<mxfile host="Electron" agent="Mozilla/5.0 (X11; Linux x86_64) AppleWebKit/537.36 (KHTML, like Gecko) draw.io/24.7.17 Chrome/128.0.6613.36 Electron/32.0.1 Safari/537.36" version="24.7.17">
  <diagram name="Page-1" id="ghz4teZokosfUxfO_zJB">
    <mxGraphModel dx="956" dy="562" grid="0" gridSize="10" guides="1" tooltips="1" connect="1" arrows="1" fold="1" page="1" pageScale="1" pageWidth="1100" pageHeight="850" math="0" shadow="0">
      <root>
        <mxCell id="0" />
        <mxCell id="1" parent="0" />
        <mxCell id="4hzZpZeHnHlpzF2ELLDW-1" value="&lt;font style=&quot;font-size: 13px;&quot;&gt;ESP32&lt;/font&gt;" style="rounded=1;whiteSpace=wrap;html=1;strokeWidth=2;rotation=-90;fillColor=#FF9933;" parent="1" vertex="1">
          <mxGeometry x="380.01000000000005" y="428.01" width="249.98" height="66.9" as="geometry" />
        </mxCell>
        <mxCell id="4hzZpZeHnHlpzF2ELLDW-2" value="&lt;font style=&quot;font-size: 13px;&quot;&gt;Raspberry Pi&amp;nbsp;&lt;/font&gt;&lt;div&gt;&lt;font style=&quot;font-size: 13px;&quot;&gt;4B 8GB&lt;/font&gt;&lt;/div&gt;" style="rounded=1;whiteSpace=wrap;html=1;strokeWidth=2;fillColor=#f8cecc;strokeColor=#000000;" parent="1" vertex="1">
          <mxGeometry x="405.09" y="225" width="130" height="56" as="geometry" />
        </mxCell>
        <mxCell id="4hzZpZeHnHlpzF2ELLDW-3" value="&lt;font style=&quot;font-size: 13px;&quot;&gt;IMU&amp;nbsp;&lt;/font&gt;&lt;div&gt;&lt;font style=&quot;font-size: 13px;&quot;&gt;MPU9250&lt;/font&gt;&lt;/div&gt;" style="rounded=1;whiteSpace=wrap;html=1;strokeWidth=2;" parent="1" vertex="1">
          <mxGeometry x="649.29" y="506" width="130.71" height="40" as="geometry" />
        </mxCell>
        <mxCell id="4hzZpZeHnHlpzF2ELLDW-4" value="&lt;font style=&quot;font-size: 13px;&quot;&gt;Keyboard&lt;/font&gt;" style="rounded=1;whiteSpace=wrap;html=1;strokeWidth=2;" parent="1" vertex="1">
          <mxGeometry x="740" y="221.5" width="70" height="28.5" as="geometry" />
        </mxCell>
        <mxCell id="4hzZpZeHnHlpzF2ELLDW-5" value="&lt;font style=&quot;font-size: 13px;&quot;&gt;USB Hub&lt;/font&gt;" style="rounded=1;whiteSpace=wrap;html=1;strokeWidth=2;rotation=-90;" parent="1" vertex="1">
          <mxGeometry x="651.7300000000001" y="248.5" width="98.62" height="25" as="geometry" />
        </mxCell>
        <mxCell id="4hzZpZeHnHlpzF2ELLDW-6" value="&lt;font style=&quot;font-size: 13px;&quot;&gt;Mouse&lt;/font&gt;" style="rounded=1;whiteSpace=wrap;html=1;strokeWidth=2;" parent="1" vertex="1">
          <mxGeometry x="740.0000000000001" y="271" width="70" height="29" as="geometry" />
        </mxCell>
        <mxCell id="4hzZpZeHnHlpzF2ELLDW-7" value="&lt;font style=&quot;font-size: 13px;&quot;&gt;GUI Workstation&lt;/font&gt;" style="rounded=1;whiteSpace=wrap;html=1;strokeWidth=2;rotation=0;fillColor=#CCCCCC;" parent="1" vertex="1">
          <mxGeometry x="579.96" y="225" width="80.04" height="60" as="geometry" />
        </mxCell>
        <mxCell id="4hzZpZeHnHlpzF2ELLDW-8" value="&lt;font style=&quot;font-size: 13px;&quot;&gt;Motor Driver L298N&lt;/font&gt;" style="rounded=1;whiteSpace=wrap;html=1;strokeWidth=2;rotation=-90;fillColor=#97D077;" parent="1" vertex="1">
          <mxGeometry x="215.09" y="373.73" width="190" height="91.18" as="geometry" />
        </mxCell>
        <mxCell id="4hzZpZeHnHlpzF2ELLDW-9" value="&lt;font style=&quot;font-size: 13px;&quot;&gt;LiPo Battery 24V 22Ah&lt;/font&gt;" style="rounded=1;whiteSpace=wrap;html=1;strokeWidth=2;" parent="1" vertex="1">
          <mxGeometry x="153" y="656" width="327" height="40" as="geometry" />
        </mxCell>
        <mxCell id="4hzZpZeHnHlpzF2ELLDW-10" value="&lt;font style=&quot;font-size: 11px;&quot;&gt;Buck Converter (3V 5V)&lt;/font&gt;" style="rounded=1;whiteSpace=wrap;html=1;strokeWidth=2;" parent="1" vertex="1">
          <mxGeometry x="330" y="609.64" width="150" height="30" as="geometry" />
        </mxCell>
        <mxCell id="4hzZpZeHnHlpzF2ELLDW-12" value="&lt;font style=&quot;font-size: 13px;&quot;&gt;TFT LCD Display&lt;/font&gt;" style="rounded=1;whiteSpace=wrap;html=1;strokeWidth=2;" parent="1" vertex="1">
          <mxGeometry x="143" y="269.75" width="90" height="40.25" as="geometry" />
        </mxCell>
        <mxCell id="4hzZpZeHnHlpzF2ELLDW-13" value="&lt;span style=&quot;font-size: 13px;&quot;&gt;2D RP - LiDAR A1 M8&amp;nbsp;&lt;/span&gt;" style="rounded=1;whiteSpace=wrap;html=1;strokeWidth=2;" parent="1" vertex="1">
          <mxGeometry x="800" y="399.82" width="130" height="60" as="geometry" />
        </mxCell>
        <mxCell id="4hzZpZeHnHlpzF2ELLDW-14" value="&lt;font style=&quot;font-size: 13px;&quot;&gt;Cooling fans&lt;/font&gt;" style="rounded=1;whiteSpace=wrap;html=1;strokeWidth=2;rotation=-90;" parent="1" vertex="1">
          <mxGeometry x="380.01000000000005" y="359.82" width="70" height="40" as="geometry" />
        </mxCell>
        <mxCell id="4hzZpZeHnHlpzF2ELLDW-20" value="&lt;font style=&quot;font-size: 7px;&quot;&gt;SSH&lt;/font&gt;" style="text;html=1;align=center;verticalAlign=middle;whiteSpace=wrap;rounded=0;" parent="1" vertex="1">
          <mxGeometry x="540" y="240" width="30" height="8.5" as="geometry" />
        </mxCell>
        <mxCell id="4hzZpZeHnHlpzF2ELLDW-21" value="" style="rounded=1;whiteSpace=wrap;html=1;strokeWidth=2;dashed=1;fillColor=#009900;fillOpacity=2;strokeColor=#009900;" parent="1" vertex="1">
          <mxGeometry x="130" y="600" width="360.09" height="106" as="geometry" />
        </mxCell>
        <mxCell id="4hzZpZeHnHlpzF2ELLDW-22" value="Emergency Switch" style="rounded=1;whiteSpace=wrap;html=1;strokeWidth=2;fillColor=#FF0000;" parent="1" vertex="1">
          <mxGeometry x="163" y="540.3" width="80" height="42.85" as="geometry" />
        </mxCell>
        <mxCell id="4hzZpZeHnHlpzF2ELLDW-25" value="" style="endArrow=classic;startArrow=classic;html=1;rounded=0;entryX=1;entryY=0.5;entryDx=0;entryDy=0;exitX=0.766;exitY=1.005;exitDx=0;exitDy=0;strokeWidth=2;exitPerimeter=0;" parent="1" source="4hzZpZeHnHlpzF2ELLDW-2" target="4hzZpZeHnHlpzF2ELLDW-1" edge="1">
          <mxGeometry width="50" height="50" relative="1" as="geometry">
            <mxPoint x="603" y="436" as="sourcePoint" />
            <mxPoint x="653" y="386" as="targetPoint" />
          </mxGeometry>
        </mxCell>
        <mxCell id="4hzZpZeHnHlpzF2ELLDW-26" value="&lt;font style=&quot;font-size: 7px;&quot;&gt;UART&lt;/font&gt;" style="text;html=1;align=center;verticalAlign=middle;whiteSpace=wrap;rounded=0;rotation=-90;" parent="1" vertex="1">
          <mxGeometry x="478.32" y="301.68" width="40" height="13.37" as="geometry" />
        </mxCell>
        <mxCell id="4hzZpZeHnHlpzF2ELLDW-29" value="" style="endArrow=classic;html=1;rounded=0;strokeWidth=2;entryX=0.392;entryY=0.998;entryDx=0;entryDy=0;exitX=0.842;exitY=-0.01;exitDx=0;exitDy=0;entryPerimeter=0;exitPerimeter=0;" parent="1" source="4hzZpZeHnHlpzF2ELLDW-10" target="4hzZpZeHnHlpzF2ELLDW-2" edge="1">
          <mxGeometry width="50" height="50" relative="1" as="geometry">
            <mxPoint x="473" y="706" as="sourcePoint" />
            <mxPoint x="473" y="276" as="targetPoint" />
          </mxGeometry>
        </mxCell>
        <mxCell id="Rx2p6Ad4WCmZezqTzOOQ-3" value="&lt;span style=&quot;font-size: 13px;&quot;&gt;Ultrasonic Sensors HCR-S04 (3)&lt;/span&gt;" style="rounded=1;whiteSpace=wrap;html=1;strokeWidth=2;" parent="1" vertex="1">
          <mxGeometry x="650.35" y="376" width="129.65" height="45" as="geometry" />
        </mxCell>
        <mxCell id="Rx2p6Ad4WCmZezqTzOOQ-4" value="&lt;span style=&quot;font-size: 13px;&quot;&gt;Temperature Sensor (NTC)&lt;/span&gt;" style="rounded=1;whiteSpace=wrap;html=1;strokeWidth=2;" parent="1" vertex="1">
          <mxGeometry x="800" y="480" width="130" height="57.15" as="geometry" />
        </mxCell>
        <mxCell id="Rx2p6Ad4WCmZezqTzOOQ-5" value="&lt;span style=&quot;font-size: 13px;&quot;&gt;Time of Flight ToF VL53L0X V2&lt;/span&gt;" style="rounded=1;whiteSpace=wrap;html=1;strokeWidth=2;" parent="1" vertex="1">
          <mxGeometry x="649.25" y="437.32" width="130.75" height="48.28" as="geometry" />
        </mxCell>
        <mxCell id="Rx2p6Ad4WCmZezqTzOOQ-6" value="" style="endArrow=classic;html=1;rounded=0;strokeWidth=2;exitX=0;exitY=0.5;exitDx=0;exitDy=0;entryX=0.5;entryY=1;entryDx=0;entryDy=0;" parent="1" source="4hzZpZeHnHlpzF2ELLDW-1" target="Rx2p6Ad4WCmZezqTzOOQ-4" edge="1">
          <mxGeometry width="50" height="50" relative="1" as="geometry">
            <mxPoint x="604.59" y="696" as="sourcePoint" />
            <mxPoint x="983" y="676" as="targetPoint" />
            <Array as="points">
              <mxPoint x="505" y="606" />
              <mxPoint x="743" y="606" />
              <mxPoint x="865" y="606" />
            </Array>
          </mxGeometry>
        </mxCell>
        <mxCell id="Rx2p6Ad4WCmZezqTzOOQ-8" value="" style="endArrow=classic;html=1;rounded=0;strokeWidth=2;entryX=0;entryY=0.5;entryDx=0;entryDy=0;exitX=0.243;exitY=1;exitDx=0;exitDy=0;exitPerimeter=0;" parent="1" source="4hzZpZeHnHlpzF2ELLDW-1" target="4hzZpZeHnHlpzF2ELLDW-3" edge="1">
          <mxGeometry width="50" height="50" relative="1" as="geometry">
            <mxPoint x="540" y="526" as="sourcePoint" />
            <mxPoint x="733" y="606" as="targetPoint" />
          </mxGeometry>
        </mxCell>
        <mxCell id="Rx2p6Ad4WCmZezqTzOOQ-9" value="" style="endArrow=classic;html=1;rounded=0;strokeWidth=2;entryX=0.5;entryY=0;entryDx=0;entryDy=0;exitX=0.886;exitY=0.995;exitDx=0;exitDy=0;exitPerimeter=0;" parent="1" source="4hzZpZeHnHlpzF2ELLDW-2" target="4hzZpZeHnHlpzF2ELLDW-13" edge="1">
          <mxGeometry width="50" height="50" relative="1" as="geometry">
            <mxPoint x="673" y="231" as="sourcePoint" />
            <mxPoint x="713" y="236" as="targetPoint" />
            <Array as="points">
              <mxPoint x="520" y="326" />
              <mxPoint x="865" y="326" />
            </Array>
          </mxGeometry>
        </mxCell>
        <mxCell id="Rx2p6Ad4WCmZezqTzOOQ-11" value="" style="endArrow=classic;html=1;rounded=0;strokeWidth=2;entryX=0;entryY=0.5;entryDx=0;entryDy=0;exitX=0.75;exitY=1;exitDx=0;exitDy=0;" parent="1" source="4hzZpZeHnHlpzF2ELLDW-1" target="Rx2p6Ad4WCmZezqTzOOQ-3" edge="1">
          <mxGeometry width="50" height="50" relative="1" as="geometry">
            <mxPoint x="593" y="426" as="sourcePoint" />
            <mxPoint x="703" y="446" as="targetPoint" />
          </mxGeometry>
        </mxCell>
        <mxCell id="Rx2p6Ad4WCmZezqTzOOQ-12" value="" style="endArrow=classic;html=1;rounded=0;strokeWidth=2;entryX=0;entryY=0.5;entryDx=0;entryDy=0;exitX=0.5;exitY=1;exitDx=0;exitDy=0;" parent="1" source="4hzZpZeHnHlpzF2ELLDW-1" target="Rx2p6Ad4WCmZezqTzOOQ-5" edge="1">
          <mxGeometry width="50" height="50" relative="1" as="geometry">
            <mxPoint x="653" y="526" as="sourcePoint" />
            <mxPoint x="703" y="476" as="targetPoint" />
          </mxGeometry>
        </mxCell>
        <mxCell id="Rx2p6Ad4WCmZezqTzOOQ-13" value="" style="endArrow=classic;html=1;rounded=0;strokeWidth=2;entryX=0;entryY=0.5;entryDx=0;entryDy=0;exitX=0.486;exitY=-0.002;exitDx=0;exitDy=0;exitPerimeter=0;" parent="1" source="4hzZpZeHnHlpzF2ELLDW-9" target="4hzZpZeHnHlpzF2ELLDW-8" edge="1">
          <mxGeometry width="50" height="50" relative="1" as="geometry">
            <mxPoint x="300.5" y="636" as="sourcePoint" />
            <mxPoint x="338" y="596" as="targetPoint" />
          </mxGeometry>
        </mxCell>
        <mxCell id="Rx2p6Ad4WCmZezqTzOOQ-14" value="&lt;font style=&quot;font-size: 13px;&quot;&gt;M1&lt;/font&gt;" style="rounded=1;whiteSpace=wrap;html=1;strokeWidth=2;rotation=0;" parent="1" vertex="1">
          <mxGeometry x="143" y="445.6" width="60" height="40" as="geometry" />
        </mxCell>
        <mxCell id="Rx2p6Ad4WCmZezqTzOOQ-15" value="&lt;font style=&quot;font-size: 13px;&quot;&gt;M0&lt;/font&gt;" style="rounded=1;whiteSpace=wrap;html=1;strokeWidth=2;rotation=0;" parent="1" vertex="1">
          <mxGeometry x="143" y="353.1500000000001" width="60" height="40" as="geometry" />
        </mxCell>
        <mxCell id="Rx2p6Ad4WCmZezqTzOOQ-16" value="&lt;font style=&quot;font-size: 13px;&quot;&gt;Arduino Mega&lt;/font&gt;" style="rounded=1;whiteSpace=wrap;html=1;strokeWidth=2;rotation=0;fillColor=#3399FF;strokeColor=#000000;" parent="1" vertex="1">
          <mxGeometry x="282.99999999999994" y="271.25" width="104.49" height="37.25" as="geometry" />
        </mxCell>
        <mxCell id="Rx2p6Ad4WCmZezqTzOOQ-20" value="" style="endArrow=classic;html=1;rounded=0;strokeWidth=2;exitX=1.005;exitY=0.462;exitDx=0;exitDy=0;entryX=0.75;entryY=0;entryDx=0;entryDy=0;exitPerimeter=0;" parent="1" source="Rx2p6Ad4WCmZezqTzOOQ-15" target="4hzZpZeHnHlpzF2ELLDW-8" edge="1">
          <mxGeometry width="50" height="50" relative="1" as="geometry">
            <mxPoint x="173" y="483.23" as="sourcePoint" />
            <mxPoint x="223" y="433.23" as="targetPoint" />
          </mxGeometry>
        </mxCell>
        <mxCell id="Rx2p6Ad4WCmZezqTzOOQ-22" value="" style="endArrow=classic;html=1;rounded=0;strokeWidth=2;entryX=0.262;entryY=-0.003;entryDx=0;entryDy=0;exitX=0.993;exitY=0.463;exitDx=0;exitDy=0;entryPerimeter=0;exitPerimeter=0;" parent="1" source="Rx2p6Ad4WCmZezqTzOOQ-14" target="4hzZpZeHnHlpzF2ELLDW-8" edge="1">
          <mxGeometry width="50" height="50" relative="1" as="geometry">
            <mxPoint x="183" y="536.0400000000001" as="sourcePoint" />
            <mxPoint x="233" y="486.0400000000001" as="targetPoint" />
          </mxGeometry>
        </mxCell>
        <mxCell id="Rx2p6Ad4WCmZezqTzOOQ-25" value="" style="endArrow=classic;startArrow=classic;html=1;rounded=0;strokeWidth=2;exitX=1;exitY=0.5;exitDx=0;exitDy=0;entryX=0.5;entryY=0;entryDx=0;entryDy=0;" parent="1" source="Rx2p6Ad4WCmZezqTzOOQ-44" target="Rx2p6Ad4WCmZezqTzOOQ-16" edge="1">
          <mxGeometry width="50" height="50" relative="1" as="geometry">
            <mxPoint x="268" y="186" as="sourcePoint" />
            <mxPoint x="318" y="136" as="targetPoint" />
            <Array as="points">
              <mxPoint x="335" y="245" />
            </Array>
          </mxGeometry>
        </mxCell>
        <mxCell id="Rx2p6Ad4WCmZezqTzOOQ-27" value="" style="endArrow=classic;startArrow=classic;html=1;rounded=0;strokeWidth=2;entryX=0;entryY=0.5;entryDx=0;entryDy=0;exitX=1;exitY=0.5;exitDx=0;exitDy=0;" parent="1" source="4hzZpZeHnHlpzF2ELLDW-12" target="Rx2p6Ad4WCmZezqTzOOQ-16" edge="1">
          <mxGeometry width="50" height="50" relative="1" as="geometry">
            <mxPoint x="210.5" y="418.5" as="sourcePoint" />
            <mxPoint x="260.5" y="368.5" as="targetPoint" />
          </mxGeometry>
        </mxCell>
        <mxCell id="Rx2p6Ad4WCmZezqTzOOQ-28" value="" style="endArrow=classic;startArrow=classic;html=1;rounded=0;strokeWidth=2;entryX=0.239;entryY=-0.008;entryDx=0;entryDy=0;entryPerimeter=0;exitX=0.18;exitY=1.005;exitDx=0;exitDy=0;exitPerimeter=0;" parent="1" source="4hzZpZeHnHlpzF2ELLDW-8" target="4hzZpZeHnHlpzF2ELLDW-1" edge="1">
          <mxGeometry width="50" height="50" relative="1" as="geometry">
            <mxPoint x="360" y="490" as="sourcePoint" />
            <mxPoint x="493" y="526" as="targetPoint" />
            <Array as="points">
              <mxPoint x="430" y="480" />
              <mxPoint x="430" y="527" />
            </Array>
          </mxGeometry>
        </mxCell>
        <mxCell id="Rx2p6Ad4WCmZezqTzOOQ-33" value="" style="endArrow=classic;html=1;rounded=0;strokeWidth=2;exitX=1;exitY=0.5;exitDx=0;exitDy=0;entryX=-0.009;entryY=0.473;entryDx=0;entryDy=0;entryPerimeter=0;" parent="1" source="4hzZpZeHnHlpzF2ELLDW-2" target="4hzZpZeHnHlpzF2ELLDW-7" edge="1">
          <mxGeometry width="50" height="50" relative="1" as="geometry">
            <mxPoint x="653" y="226" as="sourcePoint" />
            <mxPoint x="703" y="176" as="targetPoint" />
          </mxGeometry>
        </mxCell>
        <mxCell id="Rx2p6Ad4WCmZezqTzOOQ-34" value="" style="endArrow=classic;html=1;rounded=0;strokeWidth=2;exitX=1;exitY=0.5;exitDx=0;exitDy=0;entryX=0.561;entryY=0.002;entryDx=0;entryDy=0;entryPerimeter=0;" parent="1" source="4hzZpZeHnHlpzF2ELLDW-7" target="4hzZpZeHnHlpzF2ELLDW-5" edge="1">
          <mxGeometry width="50" height="50" relative="1" as="geometry">
            <mxPoint x="780" y="250" as="sourcePoint" />
            <mxPoint x="800" y="253" as="targetPoint" />
          </mxGeometry>
        </mxCell>
        <mxCell id="Rx2p6Ad4WCmZezqTzOOQ-35" value="" style="endArrow=classic;html=1;rounded=0;strokeWidth=2;exitX=0.25;exitY=1;exitDx=0;exitDy=0;entryX=0;entryY=0.5;entryDx=0;entryDy=0;" parent="1" source="4hzZpZeHnHlpzF2ELLDW-5" target="4hzZpZeHnHlpzF2ELLDW-6" edge="1">
          <mxGeometry width="50" height="50" relative="1" as="geometry">
            <mxPoint x="813" y="341" as="sourcePoint" />
            <mxPoint x="850" y="273" as="targetPoint" />
          </mxGeometry>
        </mxCell>
        <mxCell id="Rx2p6Ad4WCmZezqTzOOQ-37" value="" style="endArrow=classic;html=1;rounded=0;strokeWidth=2;exitX=0.75;exitY=1;exitDx=0;exitDy=0;entryX=-0.002;entryY=0.532;entryDx=0;entryDy=0;entryPerimeter=0;" parent="1" source="4hzZpZeHnHlpzF2ELLDW-5" target="4hzZpZeHnHlpzF2ELLDW-4" edge="1">
          <mxGeometry width="50" height="50" relative="1" as="geometry">
            <mxPoint x="923" y="371" as="sourcePoint" />
            <mxPoint x="860" y="210" as="targetPoint" />
          </mxGeometry>
        </mxCell>
        <mxCell id="Rx2p6Ad4WCmZezqTzOOQ-40" value="" style="endArrow=classic;html=1;rounded=0;strokeWidth=2;exitX=1;exitY=0.5;exitDx=0;exitDy=0;entryX=1;entryY=0.5;entryDx=0;entryDy=0;" parent="1" source="Rx2p6Ad4WCmZezqTzOOQ-16" target="4hzZpZeHnHlpzF2ELLDW-14" edge="1">
          <mxGeometry width="50" height="50" relative="1" as="geometry">
            <mxPoint x="303.00000000000006" y="196" as="sourcePoint" />
            <mxPoint x="353.00000000000006" y="146" as="targetPoint" />
            <Array as="points">
              <mxPoint x="415" y="290" />
            </Array>
          </mxGeometry>
        </mxCell>
        <mxCell id="Rx2p6Ad4WCmZezqTzOOQ-42" value="&lt;font style=&quot;font-size: 7px;&quot;&gt;UART&lt;/font&gt;" style="text;html=1;align=center;verticalAlign=middle;whiteSpace=wrap;rounded=0;rotation=0;" parent="1" vertex="1">
          <mxGeometry x="360" y="221.5" width="40" height="20" as="geometry" />
        </mxCell>
        <mxCell id="Rx2p6Ad4WCmZezqTzOOQ-43" value="&lt;font style=&quot;font-size: 7px;&quot;&gt;SPI&lt;/font&gt;" style="text;html=1;align=center;verticalAlign=middle;whiteSpace=wrap;rounded=0;rotation=0;" parent="1" vertex="1">
          <mxGeometry x="240" y="276" width="40" height="14" as="geometry" />
        </mxCell>
        <mxCell id="Rx2p6Ad4WCmZezqTzOOQ-44" value="&lt;font style=&quot;font-size: 13px;&quot;&gt;Keypad&lt;/font&gt;" style="rounded=1;whiteSpace=wrap;html=1;strokeWidth=2;" parent="1" vertex="1">
          <mxGeometry x="143" y="230" width="90" height="30" as="geometry" />
        </mxCell>
        <mxCell id="Rx2p6Ad4WCmZezqTzOOQ-45" value="" style="rounded=1;whiteSpace=wrap;html=1;strokeWidth=2;dashed=1;fillColor=#0000FF;fillOpacity=3;strokeColor=#0000FF;fillStyle=auto;imageHeight=24;shadow=0;glass=0;perimeterSpacing=0;" parent="1" vertex="1">
          <mxGeometry x="630" y="353.08" width="310" height="232.85" as="geometry" />
        </mxCell>
        <mxCell id="Rx2p6Ad4WCmZezqTzOOQ-46" value="&lt;span style=&quot;font-size: 13px;&quot;&gt;RPi&amp;nbsp;&lt;/span&gt;&lt;div&gt;&lt;span style=&quot;font-size: 13px;&quot;&gt;Wi-Fi (TCP/IP)&lt;/span&gt;&lt;/div&gt;" style="rounded=1;whiteSpace=wrap;html=1;strokeWidth=2;" parent="1" vertex="1">
          <mxGeometry x="560" y="656" width="91.73" height="40" as="geometry" />
        </mxCell>
        <mxCell id="Rx2p6Ad4WCmZezqTzOOQ-47" value="&lt;font style=&quot;font-size: 13px;&quot;&gt;ESP32 &lt;br&gt;UART, Wi-Fi&amp;nbsp;&lt;/font&gt;" style="rounded=1;whiteSpace=wrap;html=1;strokeWidth=2;" parent="1" vertex="1">
          <mxGeometry x="690" y="656" width="90" height="40" as="geometry" />
        </mxCell>
        <mxCell id="Rx2p6Ad4WCmZezqTzOOQ-49" value="" style="endArrow=classic;html=1;rounded=0;entryX=0.5;entryY=1;entryDx=0;entryDy=0;exitX=0;exitY=0.5;exitDx=0;exitDy=0;strokeWidth=2;" parent="1" source="4hzZpZeHnHlpzF2ELLDW-9" target="4hzZpZeHnHlpzF2ELLDW-22" edge="1">
          <mxGeometry width="50" height="50" relative="1" as="geometry">
            <mxPoint x="103" y="606" as="sourcePoint" />
            <mxPoint x="163" y="536" as="targetPoint" />
            <Array as="points">
              <mxPoint x="143" y="676" />
              <mxPoint x="143" y="646" />
              <mxPoint x="143" y="610" />
              <mxPoint x="203" y="610" />
            </Array>
          </mxGeometry>
        </mxCell>
        <mxCell id="Rx2p6Ad4WCmZezqTzOOQ-50" value="" style="endArrow=classic;html=1;rounded=0;strokeWidth=2;exitX=0.75;exitY=1;exitDx=0;exitDy=0;entryX=0.61;entryY=-0.003;entryDx=0;entryDy=0;entryPerimeter=0;" parent="1" source="4hzZpZeHnHlpzF2ELLDW-8" target="4hzZpZeHnHlpzF2ELLDW-14" edge="1">
          <mxGeometry width="50" height="50" relative="1" as="geometry">
            <mxPoint x="473" y="386" as="sourcePoint" />
            <mxPoint x="523" y="336" as="targetPoint" />
          </mxGeometry>
        </mxCell>
        <mxCell id="Rx2p6Ad4WCmZezqTzOOQ-51" value="" style="sketch=0;aspect=fixed;pointerEvents=1;shadow=0;dashed=0;html=1;strokeColor=none;labelPosition=center;verticalLabelPosition=bottom;verticalAlign=top;align=center;fillColor=#000000;shape=mxgraph.mscae.enterprise.wireless_connection;rotation=-90;" parent="1" vertex="1">
          <mxGeometry x="764.25" y="616.56" width="21.5" height="25.59" as="geometry" />
        </mxCell>
        <mxCell id="Rx2p6Ad4WCmZezqTzOOQ-52" value="&lt;p style=&quot;line-height: 130%;&quot;&gt;&lt;font style=&quot;font-size: 9px;&quot;&gt;Comm. protocols&lt;/font&gt;&lt;/p&gt;" style="rounded=1;whiteSpace=wrap;html=1;strokeWidth=1;dashed=1;fillColor=default;fillOpacity=0;strokeColor=#000000;" parent="1" vertex="1">
          <mxGeometry x="830" y="261" width="80" height="20" as="geometry" />
        </mxCell>
        <mxCell id="H2W__GnyZfSHAvYUxblv-1" value="" style="shape=image;aspect=fixed;image=data:image/png,iVBORw0KGgoAAAANSUhEUgAABkAAAAZACAYAAAAhDI6nAAAABHNCSVQICAgIfAhkiAAAAAlwSFlzAAVoGwAFaBsBq+FJKgAAABl0RVh0U29mdHdhcmUAd3d3Lmlua3NjYXBlLm9yZ5vuPBoAACAASURBVHic7N150O13Qd/x9yV7yAKEfUcIhkWTsIR9kUVZwg4BhLgijtNW6NQOOGqljmPBto7BUSfQqmWVCGETQdYQA2SDBERbtWpVtAoEG+pUWdM/Dkee3CT33mf9/n7nvF4z38kyd57nk3Pu3Pye8znn8ysAAAAAAAAAAAAAAAAAAAAAAAAAAAAAAAAAAAAAAAAAAAAAAAAAAAAAAAAAAAAAAAAAAAAAAAAAAAAAAAAAAAAAAAAAAAAAAAAAAAAAAAAAAAAAAAAAAAAAAAAAAAAAAAAAAAAAAAAAAAAAAAAAAAAAAAAAAAAAAAAAAAAAAAAAAAAAAAAAAAAAAAAAAAAAAAAAAAAAAAAAAAAAAAAAAAAAAAAAAAAAAAAAAAAAAAAAAAAAAAAAAAAAAAAAAAAAAAAAAAAAAAAAAAAAAAAAAAAAAAAAAAAAAAAAAAAAAAAAAAAAAAAAAAAAAAAAAAAAAAAAAAAAAAAAAAAAAAAAAAAAAAAAAAAAAAAAAAAAAAAAAAAAAAAAAAAAAAAAAAAAAAAAAAAAAAAAAAAAAAAAAAAAAAAAAAAAAAAAAAAAAAAAAAAAAAAAAAAAAAAAAAAAAAAAAAAAAAAAAAAAAAAAAAAAAAAAAAAAAAAAAAAAAAAAAAAAAAAAAAAAAAAAAAAAAAAAAAAAAAAAAAAAAAAAAAAAAAAAAAAAAAAAAAAAAAAAAAAAAAAAAAAAAAAAAAAAAAAAAAAAAAAAAAAAAAAAAAAAAAAAAAAAAAAAAAAAAAAAAAAAAAAAAAAAAAAAAAAAAAAAAAAAAAAAAAAAAAAAAAAAAAAAAAAAAAAAAAAAAAAAAAAAAAAAAAAAAAAAAAAAAAAAAAAAAAAAAAAAAAAAAAAAAAAAAAAAAAAAAAAAAAAAAAAAAAAAAAAAAAAAAAAAAAAAAAAAAAAAAAAAAAAAAAAAAAAAAAAAAAAAAAAAAAAAAAAAAAAAAAAAAAAAAPaNDgAAAGvs2Or06ozqztWtq9tUt6puWx2336+/prpqw/ls9cfVH1X//Rt//cIe5AYAAJg8BQgAAOydE6rHV49qUXrcuzp8h7/HH1Tvq95ffbj6hx3++gAAAAAAAN2h+hfVe6svtfgUx16dL1fvrr6vusku/3cCAAAAAAAr7kbVE6t3VV9rb0uPGzr/VL29evI38gEAAAAAABySE6uXVn/e+MLjQOd/VC+sjt6dhwEAAAAAAFgFx1T/tsWNyUeXG5s5f1f96+rInX9IAAAAAACAuTq8+qHqM40vM7Zz/qR6xg4/NgAAAAAAwAydWl3e+PJiJ8+F1Sk7+SABAAAAAADzcFx1btO5uflOny9XL6sO26HHCwAAAAAAmLh7V3/Q+JJiL857qtvuzMMGAAAAAABM1fdV/9j4YmIvz9XVs3bgsQMAAAAAACbm8BaTV6PLiJHn3OrI7T6QAAAAAADANBxVvbXxBcQUzu9Vt9/ewwkAAAAAAIx2QnVh44uHKZ2rq7O286ACAAAAAADjnFRd1vjCYarHJBYAAAAAAMzM8dXFjS8Zpn5MYgEAAAAAwEwcWV3Q+HJhLsckFgAAAAAAzMCvNb5UmOM5t8UN4wEAAAAAgIn58cYXCXM+H6/uuulHHQAAAAAA2DWPrL7W+BJh7udz1RM299ADAAAAAAC74VbV3za+PFilYxILAAAAAAAGe1vjC4NVPCaxAAAAAABgkO9pfFGwyufz1RMP+dkAAAAAAAC27dbV1Y0vCdbhmMQCAAAAAIA98urGFwPrdD5e3e2QnhkAAAAAAGBLzqi+1vhSYN3O1dWzD+H5AQAAAAAAtuDCxpcB63q+Xv18dcRBnyUAAAAAAOCQPb7xJYBjEgsAAAAAAHbUexv/4r+zOJ+vzjzw0wUAAAAAABzMAxr/or9z3fOa6pgDPG8AAAAAAMABvKnxL/Y7138+kUksAAAAAADYtFtWX2n8C/3ODZ+rqifd0BMIAACwGTcaHQAAAPbIc6vDR4fggG5WvSOTWAAAAAAAcMgubvwnHJxDPyaxAAAAAADgIE5u/Av6zubPF6vnXM/zCQAAcFAmsAAAWAdPHx2ALTm+ekP1n6sjBmcBAAAAAIDJ+UDjP83gbO+YxAIAAAAAgA2Oqv5f41/Ad7Z/vtjiZvYAAAAHZQILAIBVd7/qmNEh2BHLSazXVMcOzgIAAEycAgQAgFX38NEB2HFnVxe1uLk9AADA9VKAAACw6s4YHYBdcXp1SfWU0UEAAIBpUoAAALDqThkdgF1z0+ptmcQCAACux77RAQAAYBcd1uIG6EeODsKuu7I6q/qT0UEAAIBp8AkQAABW2Z1SfqyL06qPV88dHQQAAJgGBQgAAKvMTbLXy/HVGzKJBQAApAABAGC13XZ0AIY4u/pQdefBOQAAgIEUIAAArLLjRgdgmDOqT1XfPToIAAAwhgIEAIBVpgBZb8dXr88kFgAArCUFCAAAq+zGowMwCWdXl1X3Gh0EAADYOwoQAABWmU+AsHTP6mOZxAIAgLWhAAEAYJUdMToAk3J89brqF6sjB2cBAAB2mQIEAABYJ/uqF1VXZBILAABWmgIEAABYR/esLq6eNzoIAACwOxQgAADAujquxSTWa6pjB2cBAAB2mAIEAABYd2dXl2cSCwAAVooCBAAAoO6RSSwAAFgpChAAAIAFk1gAALBCFCAAAADXtpzEuvfoIAAAwNYpQAAAAK7rHtXHMokFAACzpQABAAC4fhsnsW48OAsAALBJChAAAIADO7u6LJNYAAAwKwoQAACAg7tHdWn1gtFBAACAQ6MAAQAAODTHVK/OJBYAAMyCAgQAAGBzTGIBAMAMKEAAAAA2zyQWAABMnAIEAABga0xiAQDAhClAAAAAtufs6vJMYgEAwKQoQAAAALbvlBaTWD80OggAALCgAAEAANgZx1SvyiQWAABMggIEAABgZy0nsb5tdBAAAFhnChAAAICdd0p1SSaxAABgGAUIAADA7jCJBQAAAylAAAAAdpdJLAAAGEABAgAAsPuWk1gvHB0EAADWhQIEAABgbxxTnZtJLAAA2BMKEAAAgL1lEgsAAPaAAgQAAGDvmcQCAIBdpgABAAAYwyQWAADsIgUIAADAWCaxAABgFyhAAAAAxjulurR60eggAACwKhQgAAAA03B09YstJrGOG5wFAABmTwECAAAwLctJrG8fHQQAAOZMAQIAADA931pdkkksAADYMgUIAADANJnEAgCAbVCAAAAATJtJLAAA2AIFCAAAwPSZxAIAgE1SgAAAAMzDchLrtZnEAgCAg1KAAAAAzMvzM4kFAAAHpQABAACYH5NYAABwEAoQAACAeTKJBQAAB6AAAQAAmDeTWAAAcD0UIAAAAPNnEgsAAPajAAEAAFgNy0msV1fHDM4CAADDKUAAAABWywuqK6tTRwcBAICRFCAAAACr5+7VxZnEAgBgjSlAAAAAVtNyEuvN1YmDswAAwJ5TgAAAAKy2Z1SXZhILAIA1owABAABYfSaxAABYOwoQAACA9WASCwCAtaIAAQAAWC8msQAAWAsKEAAAgPVjEgsAgJWnAAEAAFhPy0mst1Q3GZwFAAB2nAIEAABgvT29uqQ6bXQQAADYSQoQAAAA7l59LJNYAACsEAUIAAAAZRILAIAVowABAABgo6dXl2YSCwCAmVOAAAAAsL+TM4kFAMDMKUAAAAC4PiaxAACYNQUIAAAAB2ISCwCAWVKAAAAAcDAnVxdnEgsAgBlRgAAAAHAojmoxiXV+JrEAAJgBBQgAAACb8bTqiuqM0UEAAOBAFCAAAABs1p2rCzOJBQDAhClAAAAA2AqTWAAATJoCBAAAgO14WnVl9YDRQQAAYCMFCAAAANt1p+rDmcQCAGBCFCAAAADsBJNYAABMigIEAACAnWQSCwCASVCAAAAAsNNMYgEAMJwCBAAAgN2wnMR6a3XTwVkAAFhDChAAAAB201OrKzKJBQDAHlOAAAAAsNtMYgEAsOcUIAAAAOwFk1gAAOwpBQgAAAB7aTmJ9cDRQQAAWG0KEAAAAPbanaoLWkxi7RsbBQCAVaUAAQAAYITlJNb5mcQCAGAXKEAAAAAYySQWAAC7QgECAADAaCaxAADYcQoQAAAApmA5ifXWTGIBALADFCAAAABMyVOqKzOJBQDANilAAAAAmJo7VhdWL8kkFgAAW6QAAQAAYIqOqF6eSSwAALZIAQIAAMCUmcQCAGBLFCAAAABM3R2r38skFgAAm6AAAQAAYA4OzyQWAACboAABAABgTpaTWA8aHQQAgGlTgAAAADA3d6wuzCQWAAAHoAABAABgjpaTWG+rbjY4CwAAE6QAAQAAYM6eXF2RSSwAAPajAAEAAGDuTGIBAHAdChAAAABWgUksAACuRQECAADAKjGJBQBApQABAABg9ZjEAgBAAQIAAMBKMokFALDmFCAAAACssidXV1YPHh0EAIC9pQABAABg1d2h+nD1svwcDACwNlz4AQAAsA4Or346k1gAAGtDAQIAAMA6eVImsQAA1oICBAAAgHVjEgsAYA240AMAAPbKV0cHgA2Wk1hvrE4YnAUAgF2gAAEAAPbKS6pXjg4B+zmr+nQmsQAAVo4CBAAA2Cv/VL2oOrv6h8FZYCOTWAAAK8iFHQAAsNdeV92v+tToILDBchLrbdXNBmcBAGAHKEAAAIAR/qh6QCaxmJ4nVVdWDxkdBACA7VGAAAAAo5jEYqruUF2QSSwAgFlzIQcAAIy2nMT65OggsMFyEuvt1UmDswAAsAUKEAAAYAr+qHpo9frRQWA/Z1aXVPcZHQQAgM1RgAAAAFPxD9Xzq2dWVw/OAhvdtUUJ8rL8HA0AMBsu3AAAgKl5S3VGJrGYFpNYAAAzowABAACm6I+rB1avHB0E9nNmdWX1kNFBAAA4MAUIAAAwVf9UvSiTWEzP7asLMokFADBpLtQAAICpM4nFFJnEAgCYOAUIAAAwByaxmCqTWAAAE6UAAQAA5mI5ifWMTGIxLSaxAAAmyIUZAAAwN+e3mMS6cnQQ2GA5ifW71a0GZwEAIAUIAAAwT39cPSiTWEzPY6rLq4eODgIAsO4UIAAAwFxtnMT6P4OzwEa3rz6USSwAgKFciAEAAHN3fvWATGIxLSaxAAAGU4AAAACrwCQWU2USCwBgEAUIAACwKkxiMVUmsQAABnDhBQAArJrzqzMyicW0LCex3ptJLACAPaEAAQAAVtGfVA/MJBbT8+hMYgEA7AkFCAAAsKq+1GIS6+mZxGJaTGIBAOwBF1oAAMCqe2smsZiejZNYtx6cBQBgJSlAAACAdWASi6laTmI9bHQQAIBVowABAADWhUkspup21QcziQUAsKNcWAEAAOvmrdVp1SWjg8AGJrEAAHaYAgQAAFhHf1E9IpNYTI9JLACAHaIAAQAA1pVJLKbqdtWHMokFALAtLqQAAIB1ZxKLKTqsxSTW+zKJBQCwJQoQAAAAk1hM16OqK6vHjA4CADA3ChAAAICF5STW06q/H5wFNrpV9Z5MYgEAbIoLJwAAgGt7W3V6JrGYFpNYAACbpAABAAC4LpNYTNWjqk9mEgsA4KAUIAAAANfPJBZTdctMYgEAHJQLJQAAgANbTmJdPDoIbGASCwDgIBQgAAAAB/cX1SNbTGJdMzYKXMtyEuuxo4MAAEyNAgQAAODQLCexnp5JLKblltW7M4kFAHAtLowAAAA2xyQWU7ScxHp/dZvBWQAAJkEBAgAAsHkmsZiq76iuzCQWAIACBAAAYIuWk1hPyyQW07JxEuuwsVEAAMZRgAAAAGzP26vTMonFtCwnsd6XSSwAYE0pQAAAALbvL6uHV6/IJBbTYhILAFhbChAAAICd8ZXqpZnEYnpMYgEAa0kBAgAAsLNMYjFFJrEAgLWjAAEAANh5f1k9LJNYTM9yEus7RwcBANhtChAAAIDd8dVMYjFNt6x+J5NYAMCKU4AAAADsruUk1sdGB4ENTGIBACtPAQIAALD7/rJ6eCaxmB6TWADAylKAAAAA7I3lJNZTqy8MzgIb3bJ6T/XyTGIBACtEAQIAALC33lGdnkkspmVf9ZLq/ZnEAgBWhAIEAABg75nEYqoeWX0yk1gAwApQgAAAAIxhEoupukUmsQCAFaAAAQAAGGs5ifXR0UFgg42TWLcdnAUAYEsUIAAAAOP9ZfWITGIxPY+srqy+a3AOAIBNU4AAAABMg0kspuoW1bsziQUAzIwCBAAAYFreUZ2WSSymxSQWADA7ChAAAIDp+asWk1j/vvr64Cyw0SMziQUAzIQCBAAAYJq+Wr0sk1hMj0ksAGAWFCAAAADT9s5MYjE9y0msD2QSCwCYKAUIAADA9JnEYqoekUksAGCiFCAAAADzYBKLqTKJBQBMkgIEAABgXpaTWB8ZHQQ2MIkFAEyOAgQAAGB+/qp6ZCaxmJ7lJNbjRgcBAFCAAAAAzJNJLKbqFtXvVOdURwzOAgCsMQUIAADAvJnEYor2VT9avS+TWADAIAoQAACA+TOJxVSZxAIAhlGAAAAArIblJNZTqqvGRoFrMYkFAAyhAAEAAFgtv12dnkkspmU5ifX+TGIBAHtEAQIAALB6TGIxVQ+vPplJLABgDyhAAAAAVtNyEuvZ1dVjo8C13Lx6Z/UTeV0CANhFLjQAAABW25ure2cSi2k5vPrZ6kPV7QZnAQBWlAIEAABg9X0mk1hM08OrK6vHjw4CAKweBQgAAMB6WE5ifVf1d2OjwLXcvHpXdU51xOAsAMAKUYAAAACsl/dX96suGh0ENthX/WiL358msQCAHaEAAQAAWD+fqb4jk1hMj0ksAGDHKEAAAADWk0kspsokFgCwIxQgAAAA680kFlNkEgsA2DYFCAAAACaxmCqTWADAlilAAAAAqG9OYn1nJrGYFpNYAMCWKEAAAADY6AOZxGJ6lpNYF1V3HhsFAJgLBQgAAAD7M4nFVJ1RXVY9YXQQAGD6FCAAAABcH5NYTNXNq9/OJBYAcBAKEAAAAA5kOYn1e6ODwAYmsQCAg1KAAAAAcDCfqR6VSSymxyQWAHCDFCAAAAAcio2TWH87Ngpci0ksAOB6KUAAAADYDJNYTJFJLADgOhQgAAAAbNZfV9+RSSym54zq8kxiAQApQAAAANiar7WYxHpsJrGYlpMyiQUApAABAABgez6YSSymZ+Mk1l0GZwEABlGAAAAAsF0msZiqM6rLqieODgIA7D0FCAAAADvBJBZTdVL1zkxiAcDaUYAAAACwkz5YnVa9f3QQ2GA5ifWRTGIBwNpQgAAAALDT/q56XCaxmJ77ZxILANaGAgQAAIDdYBKLqdo4iXXk4CwAwC5SgAAAALCbPlidWr1vdBDYYDmJdVEmsQBgZSlAAAAA2G2frR6fSSymxyQWAKwwBQgAAAB7YTmJ9Zjqf4+NAtdiEgsAVpQCBAAAgL30oeq0TGIxLSaxAGAFKUAAAADYaxsnsb42OAtsdP/qiuoZo4MAANunAAEAAGCE5STWYzOJxbScWP1WJrEAYPYUIAAAAIxkEospMokFACtAAQIAAMBoJrGYquUk1jNHBwEANk8BAgAAwBSYxGKqTqzOyyQWAMyOAgQAAIApWU5ivXd0ENhgOYn1kepbBmcBAA6RAgQAAICp+Wz1hExiMT33qz6RSSwAmAUFCAAAAFNkEoupMokFADOhAAEAAGDKTGIxRSaxAGAGFCAAAABM3Werx1UvzSQW02ISCwAmTAECAADAHFxTvaJ6TCaxmBaTWAAwUQoQAAAA5uSC6tRMYjEtJrEAYIIUIAAAAMzN5zKJxTTdr7qietboIACAAgQAAIB5MonFVJ1QvSmTWAAwnAIEAACAObugxSTW7w7OARuZxAKACVCAAAAAMHefqx6fSSymxyQWAAykAAEAAGAVbJzE+pvBWWAjk1gAMIgCBAAAgFVyQXVaJrGYluUk1keruw7OAgBrQwECAADAqjGJxVTdt/pEJrEAYE8oQAAAAFhFy0msR2cSi2k5oTqvOjeTWACwqxQgAAAArLIPt5jEes/oILCfF2YSCwB2lQIEAACAVfe56gmZxGJ6lpNYZ40OAgCrSAECAADAOjCJxVSdUL0pk1gAsOMUIAAAAKwTk1hMlUksANhhChAAAADWzXIS68XVVwZngY1MYgHADlKAAAAAsI6uqc6pHptJLKZl4yTWUYOzAMCsKUAAAABYZyaxmCqTWACwTQoQAAAA1p1JLKbqPi0msZ49OggAzJECBAAAAL45ifWYTGIxLSdUv5lJLADYNAUIAAAAfNOF1anVu0cHgf0sJ7HuNjoIAMyFAgQAAACu7fPVEzOJxfTcp/p4JrEA4JAoQAAAAOC6Nk5i/fXgLLCRSSwAOEQKEAAAALhhF1anZRKL6TGJBQAHoQABAACAAzOJxVSZxAKAA1CAAAAAwMGZxGKqlpNYr6mOGZwFACZFAQIAAACH7sLqjOqCwTlgf2dXH6juODoIAEyFAgQAAAA252+qR2USi+l5UPXp6jmjgwDAFChAAAAAYPNMYjFVx1dvzCQWAChAAAAAYBsurE6rfmd0ENjP2dVHqruNDgIAoyhAAAAAYHs+X52ZSSym5/TqE5nEAmBNKUAAAABg+5aTWA+t/tfYKHAtJrEAWFsKEAAAANg5l1b3zyQW02MSC4C1owABAACAnWUSi6kyiQXAWlGAAAAAwM4zicVUbZzEOnZwFgDYVQoQAAAA2D0msZiqs6uLqpNHBwGA3aIAAQAAgN1lEoupOr36ePXc0UEAYDcoQAAAAGD3mcRiqo6v3pBJLABWkAIEAAAA9s6l1f2qd40OAvsxiQXAylGAAMzTXUcHAABgy66qnlK9rPra2ChwLadXl7T4/QkAs6cAAZife1RXVu+sbjY4CwAAW/O16t9XD6r+fHAW2Oim1dsyiQXAClCAAMzLsdV51XEtbqR5ZfXgoYkAANiOy6r7ZxKL6Tm7xe/Pe40OAgBbpQABmJdXVvfe8M93qD5cvaTaNyQRAADbdVX1pOrF1ZcHZ4GN7ll9rHru6CAAsBUKEID5+N7qB6/n3x9evbzFx9RvuqeJAADYKddU51QPzSQW03J89YZMYgEwQwoQgHm4Z/XLB/k1T24xifXA3Y8DAMAuMYnFVJnEAmB2FCAA03d8dX5140P4tXesfi+TWAAAc2YSi6laTmJ99+ggAHAoFCAA03du9a2b+PXLSazzM4kFADBXJrGYquOr12cSC4AZUIAATNsPtPUbDj61uqJ6wM7FAQBgjy0nsX57dBDYj0ksACZPAQIwXad18Pt+HMydqg9XL9p+HAAABrmqxf3eTGIxNfesLs4kFgATpQABmKYTqvOqo3fgax1V/WKLSayb7MDXAwBg75nEYqqOyyQWABOlAAGYpldVJ+/w13xadWl16g5/XQAA9s5l1enVm0cHgf2YxAJgchQgANPzfdWzd+lrn1xdVD1/l74+AAC77+oW14s/VX1tcBbY6J4tft54+uggAFAKEICpuU/1q7v8PY6rXlu97ht/DwDA/Hy9+tnqgZnEYlpuUr2lOrc6YnAWANacAgRgOo5rUUrsxH0/DsXzWrw76+579P0AANh5l7coQd47Ogjs54XVO6ubjQ4CwPpSgABMx69V99jj73lq9ckWP5wAADBPn60eV724+vLgLLDRd7Uo6b51dBAA1pMCBGAafqh61qDvfXSLj6f/Snv36RMAAHbWNdU51XdWfzM4C2x0l+qCFnO/ALCnFCAA4923+qXRIaofqa6o7j06CAAAW/bhFjeifvPoILDBrasLq0eMDgLAelGAAIx1sxY3CDxqdJBvOKW6tHrB6CAAAGzZ1dVZmcRiWm5cvat6+OggAKwPBQjAWL9S3Wl0iP0cU726emXTKWYAANic5STWY6u/HpwFlm7c4g1gdxsdBID1oAABGOfF1bNHhziAf9ViEuteo4MAALBlF7a4nvut0UHgG25evbe61eggAKw+BQjAGPepXj46xCG4R3VR9dTRQQAA2LKrq+dUP1F9dXAWqMWN0d9YHT46CACrTQECsPdOqt7WfOalblK9tXpNdezgLAAAbM3Xq5+rHlT92eAsUPUd1c+PDgHAalOAAOy9c6s7jA6xBWdXH2x69ywBAODQXV49sHrP6CDQYhb4zNEhAFhdChCAvfVj1TNGh9iGB1S/32JCAQCAefpc9YQWLz5/eXAW1tu+6jeqWw/OAcCKUoAA7J2HVv9hdIgdcHyLvd5zm8+MFwAA13ZNdU714OpPB2dhvZ1UvXp0CABWkwIEYG/ctHptq3WTvxdWH2iec14AACx8vMV9QUxiMdKZ1dNHhwBg9ShAAHbfjarXV3cenGM3PKT6dHXW6CAAAGzZ56rHVz+cSSzG+eXqxNEhAFgtChCA3ffiFj9QrqoTqt+sfq7V+oQLAMC6eVX16Oozo4Owlm7d4p6JALBjFCAAu+vR1c+PDrEH9lU/Xn2s+pbBWQAA2LqLqntV540Owlr6ser2o0MAsDoUIAC759Ytpq8OGx1kD92v+kT1zNFBAADYsi9Wz84kFnvv6OonR4cAYHUoQAB2x77qv1S3Gh1kgBOrN1U/03qVPwAAq8YkFiN8X4s3kwHAtilAAHbHT1ZPHB1ioBtVP9ViEusug7MAALB1JrHYa0e1uI8iAGybAgRg5z20+nejQ0zE/auPVo8aHQQAgC37YvWc6qXVVwdnYT28oDpmdAgA5k8BArCzblu9pTp8dJAJuXX1/uqc6ojBWQAA2JprqldUD6j+dHAWVt9J1VmjQwAwfwoQgJ1zWPWG6pajg0zQvupHqw9UtxucBQCArftEdZ8W93yD3fT9owMAMH8KEICd89LqEaNDTNzDqkvzOAEAzNkXq+dWL8kkFrvnYdUdRocAYN4UIAA747uqnxkdYiZuW30ok1gAAHN2TfXzLSax/ufgLKymG1XPHB0CgHlTgABs362qX8+fqZuxnMR6tCfAnwAAIABJREFUR3XzwVkAANi6T1QPrN41Oggr6amjAwAwb16sA9iew6vzqtuMDjJTj6v+sMUnaAAAmKerqjOrH66+NDgLq+Uh1U1HhwBgvhQgANvzM9XDR4eYuVtU765e3uJG8gAAzNOrqgdnEoudc1juHwjANihAALbuMS1u/Mj27WvxWL6tOmlwFgAAtm45ifXbo4OwMhQgAGyZAgRga+7cYvrKn6M768wWk1iPHR0EAIAtu6p6UvW91T8OzsL8PWh0AADmywt3AJt3ZPWb2aLdLbdsMYn1svx/CgBgzl5TPTSTWGzPqdURo0MAME9eWALYvJ+uHjA6xIo7rMXjfH6KJgCAOftEi2tnk1hs1dHVyaNDADBPChCAzXlq9eOjQ6yRp1S/3+KdgwAAzNMXMonF9nzr6AAAzJMCBODQ3aX6tRY37Gbv3K76UCaxAADm7jXVQzKJxeb5BAgAW+KFJIBDc3iLH9jMMY1xeItJrPOqEwdnAQBg665oMYn1ztFBmJU7jg4AwDwpQAAOzX/KDNMUPKP6dIt3DgIAME9fqJ6cSSwO3a1GBwBgnhQgAAf3jOpFo0Pwz25fXZBJLACAuTOJxaFSgACwJV44AjiwO1avGh2C61hOYr2hOmFwFgAAtm45ifWO0UGYNDO4AGyJAgTghh1Rvam62egg3KBnV5dXp44OAgDAln2hemr1b6qvDM7CNB09OgAA86QAAbhhr6geODoEB3VydXH1wtFBAADYsmuqX6geVv3F4CxMjwIEgC1RgABcv6dWLx4dgkN2dHVu9brquMFZAADYuk9VHxkdgsn5+ugAAMyTAgTguk6pXlvtGx2ETXte9el8cgcAYI6+vbqy+u7RQZicL40OAMA8KUAAru2o6jX5FMGc3an6QPUDo4MAAHDInltdVN19dBAmSQECwJYoQACu7ZXV/UeHYNuOrf5rdX51k8FZAAC4YTdu8QakN1THD87CdF01OgAA86QAAfims3Mj7VXztOrS6rTRQQAAuI5vqy5vcR0OB/L50QEAmCcFCMDC3apfGh2CXXFyizmF7xkdBACAf/asFtdop4wOwiz83egAAMyTAgRgMZf01urE0UHYNTeu/lv1ljzPAAAjLSevzqtOGJyF+fiz0QEAmCcFCMDikx/3Hh2CPfH0FpNY3z46CADAGrpXdVkmr9i8Px0dAIB5UoAA6+451Q+MDsGeunv1keq7RwcBAFgjT2sxeXWP0UGYpT8eHQCAeVKAAOvs1OrXR4dgiOOq11evbTHDAADA7ji2xeTV+dVNBmdhnv5vChAAtkgBAqyr41vsDh89OghDPb+6vPq20UEAAFbQyS0+eWvyiu34VPX10SEAmCcFCLCufqHFFBKc0mKO4azRQQAAVsiTq0uq00YHYfYuGR0AgPlSgADr6AerF4wOwaScUL2pxTyDSSwAgK07psU11durmw7Owmp43+gAAMyXAgRYN/eozhkdgsk6u/pw9S2jgwAAzNAdqvdn8oqd85UWM2oAsCUKEGCdnNDinWje4c+B3Lf6ZPW80UEAAGbkrOrT1YNHB2GlfLDFTdABYEsUIMA6eXWLGzHCwRxXva7FfMOxg7MAAEzZkdW5LeZETxichdXz9tEBAJg3BQiwLr4/N7lm886uPlTdeXAOAIApul2LyasXjg7CSvp69c7RIQCYNwUIsA7uU/3q6BDM1hnVp6rnjA4CADAhz6z+sHrY6CCsrN+tPjM6BADzpgABVt2J1XnVUaODMGvHV29sMYl1zOAsAAAjHVmd0+Ia2+QVu+k3RgcAYP4UIMCq++XqrqNDsDLOrj5Q3XF0EACAAW7T4l35P1rtG5yF1fbZ6h2jQwAwfwoQYJX9y+p5o0Owch5U/X717NFBAAD20BNbXAM9cnAO1sMvVf80OgQA86cAAVbVadV/HB2ClXVCi0msl1eHD84CALCbDqt+unp7ddLgLKyHf6xeNToEAKtBAQKsopNa/IB29OggrLR91Uuqi6tvGZwFAGA33Ln6aPWyFkUI7IVXtpjAAoBtU4AAq2Zfi5vluUcDe+W+1RXVM0cHAQDYQY+vLqvOGB2EtfL3LT5lDQA7QgECrJofqc4cHYK1c0L1pupn8+5IAGDeblT9RPXO6v+zd6fBttf1ne/fKIrzhEOc5yEOERQUxFk0zqJGBpWYwWCnqzpY1dUldR/caN9bdbXr1u3IrbrdDkknOCEOOGsUAs4DiHPUaDTOsygKKIrcB7+zcBsFzrDP/q291utVtYun7weHc9be3/3//G84uYX18/9UP5odAcDqcAABVslh1d/MjmBtLX5Y8KHqtpNbAAB2x82qM/JLHczxueq/zY4AYLU4gACr4nrVSdVVZoew9g6qPlg9bHYIAMAueED1keqBs0NYW/+5umh2BACrxQEEWBX3q24+OwJ2uEn1zrwwFABYfvtUz6n+KZ+nmeek6m2zIwBYPQ4gwKp4W3Vg9ZnZIbDDlaq/rj5Q3WZuCgDA73TTxuHj+dW+k1tYX/9a/cfZEQCsJgcQYJV8trp/9YbZIbDBfRpHkAdP7gAA2OjQ6sP5jMJcF1fPrM6fHQLAanIAAVbNj6onVs+oLpjcAguL3658Yd5TAwDMdaXGTOd7q1vOTYGeU505OwKA1eUAAqyqk6qHVl+ZHQI77FP9VfWW6kaTWwCA9XT96tTGTKf3lDHbm6r/PjsCgNXmAAKssg9X96hOnh0CGzyi8a6aP5wdAgCslQdUn6oePzsEqg9WR1e/mh0CwGpzAAFW3U+qp1b/pfrl5BZYuFHjSZATGk+GAADsLftUx1enVTef3AJVX6v+qLpwdggAq88BBFgHl1T/d3Xf6l8nt8DCvtX/1Xg3yE0ntwAAq+km1buqv6muOrkFqr5c3b/65uwQANaDAwiwTs6pDqnePjsENnhwY67tfpM7AIDVcu/qA9XDZofADt+qHlV9dXYIAOvDAQRYN9+vHl09q7pocgss3LJ6T/Xc/NsMAOyZKzU+U3yout3cFLjU5xu/jPb52SEArBc/ZAHW1Yurh1ffmB0CO1y5+uvq1OoGk1sAgO3pOtXJjc8U+05ugYVPVA/Jkx8ATOAAAqyz91R3q147OwQ2eHz12erw2SEAwLZyv+rT1VNmh8AG/9B48uNbs0MAWE8OIMC6+3F1VPW/VxdPboGFG1dvrZ5d7TO5BQBYfs+qTm/MasIy+FXjSaQ/rX42uQWANeYAAjA+nP8f1aHVlye3wMJVq/9evau6yeQWAGA5Xb96Y/U/q6tNboGFbzYmr/5rdcnkFgDWnAMIwK+dVR1cvW12CGzwsOrs6rDZIQDAUjmk+nhjPhOWxTuqAxpzwwAwnQMIwG/6QfXYxvTQLya3wMItqjOr5+bfbgCgjm98NrjV5A5YuLg6oXp09b3JLQBwKT9EAfhtl1QvbPzm/Tcmt8DCvo0d5TdWN5jcAgDMcb3q1Opvqv0mt8DCt6rDqxdk8gqAJeMAAnDZ3tt4fPvts0Ngg8c25i7uNzsEANhS92l8Bjhidghs8M7qno0nkgBg6TiAAFy+71ePySQWy+WW1bur51T7TG4BAPa+4xvvVLj17BDY4eLqeZm8AmDJOYAAXLHFJNbh1Tcnt8DCvtXzqzdU15/cAgDsHdetXpfJK5bLt6uHN95Pd/HcFAC4fA4gADvvPY1JrH+cHQIbPL4xh3HI7BAAYFPds/pI9aTZIbDBaY0/m2fMDgGAneEAArBrvlc9qjohv+3E8rhVY3f5+ExiAcAqOL76UHWn2SGww68ak1ePrL47uQUAdpoDCMCuu6R6QWMS61uTW2Bhv8Y8xuur601uAQB2z7WqlzX+Tb/a5BZY+E71iExeAbANOYAA7L4zG5NY75rcARsd0ZjEuu/sEABgl9yjOrt6+uwQ2OD91UHV6bNDAGB3OIAA7JnvNiaxntd4LByWwa2rdzfmMwCA5Xdc430fd54dAjssJq8eXH19bgoA7D4HEIA9d3HjcfDDq2/PTYFLLSaxXpdJLABYVtesTqpelMkrlscPqyc0vsf55dwUANgzDiAAm+eMxuPh750dAhs8qfpwdc/ZIQDAb7h7Y/Lq2NkhsMEHGjO/b5kdAgCbwQEEYHN9o3pIJrFYLneqPpRJLABYFs9sTF7dZXYI7HBJ9YLqQdXXJrcAwKZxAAHYfItJrEdU35mbApe6WmMS62XVtSa3AMC6ukZj8uol1dUnt8DCudUR1QmZvAJgxTiAAOw9pzcmsd4/OwQ2eHpjbuMPZocAwJq5W3VWJq9YLh9qTF69aXYIAOwNDiAAe9fXqwdnEovlcufGe0GOmx0CAGvimOqD1V1nh8AOi8mrB1RfndwCAHuNAwjA3vfLxiTWE6ofzk2BS12telFjhuOak1sAYFUtJq9eWV17cgssnFs9KZNXAKwBBxCArfOWxuPlH5gdAhsc25jEuvvsEABYMXeo3pfJK5bLh6sDqzfMDgGAreAAArC1vlY9qPG4+SWTW2DhLtVHqmfODgGAFXFUdU7jB82wLE5sfC/yldkhALBVHEAAtt4vG4+bH9F4/ByWwdWrlzRmOq4xuQUAtqv9GhOTJ2fyiuXxo8bk1fHVzye3AMCWcgABmOdN1aHVJ2eHwAbHVmdWt53cAQDbzS2q06vjZofABp9tvOj81NkhADCDAwjAXJ+v7tN4HN0kFsvi4OoT1TGzQwBgm3hK9ZnqsNkhsMGJ1b2qT88OAYBZHEAA5vt543H0JzUeT4dlcO3qlZnEAoDLc9XqhdWrq+tMboGFn1ZPb3yP8bPJLQAwlQMIwPJ4Q3VA9eHZIbDBsdX7qjvMDgGAJXPb6v3VX1X7TG6BhU9WB1WvmB0CAMvAAQRguXylelDjcXVYFgdW51RHzQ4BgCXx5OpjjR80w7J4cXXfxswuAJADCMAyMonFMrp2dXL1omq/yS0AMMti8uo11XUnt8DC+dUzqmdl8goAfoMDCMDyOrXxG1yfmB0CGxxXfaC6/ewQANhit2nMQpq8Ypl8uvEk0kmzQwBgGTmAACy3f6kOySQWy+VejUmsp8wOAYAt8ujq7Org2SGwwUur+1Sfmx0CAMvKAQRg+f2sMYl1bPXTyS2wcJ3qlMYk1lUntwDA3nKVxuTVW6r9J7fAwgWNyau/qC6c3AIAS80BBGD7eHnj8fZPzg6BDY6r3l/dbnYIAGyym1enZfKK5fKZTF4BwE5zAAHYXj7feC/Ii2eHwAYHNSaxnjw7BAA2ySOrj1cPnB0CG7yqMY/72dkhALBdOIAAbD8/q57VeOz9/MktsHDd6jWNmRCTWABsV1eunl+9rbrh5BZYWExePTWTuACwSxxAALavkxq/ef+p2SGwwz6NmZD3VbeZmwIAu+xm1enVczJ5xfL4YnX/TF4BwG5xAAHY3j7XmMR66ewQ2ODg6uzq0bNDAGAnPaIxefWg2SGwwcnVvaqPzQ4BgO3KAQRg+7uw+ovGY/EXTG6Bhf2rtzQmsa4yuQUALsti8uod1Y0mt8DCzxuTt8dUP5ncAgDbmgMIwOpYTGJ9ZnYI7LCYxDqtuvnkFgD4925avSuTVyyXf63uV714dggArAIHEIDV8tnqkOqVs0Nggwc2ZkUeOTsEAHY4vPFv00Nmh8AGpzQmr86ZHQIAq8IBBGD1/LR6WiaxWC43rN7WmBm58uQWANbXlarnNiavbjw3BS51UWPy6qjqvMktALBSHEAAVtdJ1WHVF2eHwA77NGZGTq9uNrkFgPVzk8bk1V/nGM/y+FLjM7vJKwDYCxxAAFbbxxuP0Z88OwQ2eFDjz+YjZocAsDbuX51dPXR2CGzw2sZn9bNnhwDAqnIAAVh9P6mOaUxiXTi5BRZu1JgfMYkFwN60mLw6o7rF3BS41EXVs6sjqx9PbgGAleYAArA+Tmr89uO/zg6BHRaTWO+qbjq5BYDVs3/1psbk1b6TW2Dhy43P5C+sLpncAgArzwEEYL2c03jM/pTZIbDBQxqTWA+fHQLAyjis+lj1mNkhsMHbqoOrs2aHAMC6cAABWD/nVUdVz2o8fg/L4MbV2xszJT6fALC7FpNXZ1a3nFoCv/aLxuTVY6sfTG4BgLXiBwwA6+vF1f2qL80OgR2u3JgpeVf1e5NbANh+blC9IZNXLJdvVA/L5BUATOEAArDePlodWL12dghs8NDq7MY+NgDsjEMbk1ePmx0CG7y9OqB67+wQAFhXDiAAnFcd2Xgs3yQWy+Lm1RmZxALg8u1TPad6T3WryS2wsJi8ekz1/cktALDW/EABgBqP47+w8Rv3X57cAgv7NmZM3lTtP7kFgOVz/erU6vmZvGJ5fLN6eCavAGApOIAAsNFZ1cHVW2eHwAaPacyaHDY7BIClcd/Gvw1PmB0CG/xjY/Lq3bNDAIDBAQSAf+8Hjf3sZzce34dlcMvqzExiAVDHN37AfOvZIbDDxdUJ1aOq701uAQA28AMEAH6XjZNY/zY3BS61mMR6Q3WDyS0AbL3rVa+v/qbab3ILLHyrOrx6QSavAGDpOIAAcHk+0pjEevvsENjgcY3Zk0NnhwCwZQ5ofC554uwQ2OBdjT+bZ07uAAAugwMIAFfk+413MJjEYpncqnpP9Zxqn8ktAOxdx1cfrO44OwR2+FX1vMbk1XcntwAAl8MBBICdsZjEOrz65uQWWNi3en51anX9yS0AbL5rVS9vTF5dbXILLHy7enjjvWQXz00BAK6IAwgAu+I9jcf8/3F2CGzwhMYk1n1nhwCwaf6gOrt62uwQ2OC91UHVP80OAQB2jgMIALvqe43H/U/Ib72xPG5dvbsxkwLA9nZ89eHqzrNDYIfF5NVDq29MbgEAdoEDCAC745LqBY1JrG9NboGF/RozKa+vrje5BYBdd83qpExesVy+U/1hY/Lql3NTAIBd5QACwJ44szGJ9c7JHbDRE6uPNP5sArA93KMxeXXs7BDY4P2NyavTZocAALvHAQSAPfXd6tGNWYBfTW6BhTtWH8wkFsB28MzG5NVdZofADovJqwdXX5+bAgDsCQcQADbDxY1ZgMOrb89NgUtdrTGj8trqupNbAPhti8mrl1RXn9wCCz+sjsjkFQCsBAcQADbTGdU9MxPAcnlyYxLrD2aHAHCpu1VnZfKK5fLBxoTmm2eHAACbwwEEgM323eqRmcRiudypMa9iEgtgvqdWH6p+f3YI7HBJ9YLqgdXXJrcAAJvIAQSAvWExifWI6jtzU+BSi0mskxqzKwBsrWs0/g5+RXWtyS2wcG71xOqETF4BwMpxAAFgbzq9Oqh6/+wQ2ODY6uzqHrNDANbIHRufB0xesUw+1Ji8euPsEABg73AAAWBv+3r14ExisVzu0pjEeubsEIA1cHT10cYPmmFZnNj4jPrVyR0AwF7kAALAVvhlYxLrCdUP56bApa5evSSTWAB7y9Ubf8e+qrr25BZY+FFj8ur46ueTWwCAvcwBBICt9JbGb39+YHYIbHBsdVZ1t9khACvk9tX7MnnFcvlI47PoG2aHAABbwwEEgK32tepB1QuqSya3wMLvN3bAnzo7BGAFHFmdU91rdghscGL1wOors0MAgK3jAALADL+sTqiOqM6d3AIL16pe0ZhrucbkFoDt6KrVi6pXV9eZ3AILP66enMkrAFhLDiAAzPSmxgzBh2aHwAbHVu+v7jg7BGAbuV1j4vK42SGwwSeq+1Svnx0CAMzhAALAbF+tHpBJLJbLAdVHq6NnhwBsA39Ufay69+wQ2ODE6pDqX2aHAADzOIAAsAwWk1hPzCQWy+Pa1asak1hXn9wCsIyuWr2wOiWTVyyPnzae5jy++tnkFgBgMgcQAJbJG6sDqw/PDoENjq3eV91hdgjAErlt4+/Gv6r2mdwCC5+qDqpePjsEAFgODiAALJuvVA9qzBbAsrhXYxLryNkhAEvgMdVZ1cGzQ2CDl1T3rT4/OwQAWB4OIAAso583ZgueVP1ocgssXKd6dfWixuwLwLq5SmPy6s3V/pNbYOH86hnVcdWFk1sAgCXjAALAMju1uk/18dkhsMFx1Qeq280OAdhCt8nkFcvn040nkU6aHQIALCcHEACW3ReqQzOJxXK5d/Wx6o9mhwBsgUc1Jq/uMzsENnhF4zPiZ2eHAADLywEEgO3gZ41JrKdXP53cAgvXqU5pzMGYxAJW0WLy6q3VDSe3wMIFjckrnwsBgCvkAALAdvKK6qDqk7NDYId9GnMw76tuO7kFYDPdrDotk1csl3/O5BUAsAscQADYbj5f3TeTWCyXgxvzMI+ZHQKwCf6w8f6tB84OgQ1eVR3SOIIAAOwUBxAAtqPFJNYfV+dPboGF/as3N+ZirjK5BWB3XLl6fvX26kaTW2Dhwsbk1VOrn0xuAQC2GQcQALazlzUmsT41OwR22DiJdZu5KQC75KaNyavnZPKK5fHF6rBMXgEAu8kBBIDt7nONSayXzg6BDe7TmMR61OwQgJ3w8Mbk1YMnd8BGr67uXX1sdggAsH05gACwCi6s/qIxj2ASi2Vxw+qtmcQClteVquc2Jq9uPDcFLnVR9azq6Oq8yS0AwDbnAALAKjmp8durX5rcAQuLSaw3Z08fWC7Xr06t/rrx7g9YBl+vHla9eHYIALAaHEAAWDVnV/esXjk7BDb4w+ozO/4LMNsDGu/PevzsENjgNdXdGu/RAgDYFA4gAKyin1ZPa0xiXTC5BRZu1JiZeX5+2xqYYzF5dUZ187kpcKmLqmdXR2XyCgDYZA4gAKyyk6rDqi/MDoEd9qmeU51W3XRyC7BeblK9M5NXLJcvNz6rvbC6ZHILALCCHEAAWHUfr+5dnTw7BDZ4cOPP5sMndwDr4bDGROTDZofABq+rDmz82QQA2CscQABYBz+pjmlMYl04uQUWbtyYxHpuPpMBe8di8urM6hZTS+DXftGYvHpK9ePJLQDAivPNNgDr5KTq/tUXZ4fADlduzNGcVv3e5BZgtdygemPj75h9J7fAwr9l8goA2EIOIACsm3Mak1inzA6BDR7SmAB5wOwQYCXcrzGz99jZIbDB26qDq7NmhwAA68MBBIB1dF51VPWs6qLJLbBw8+qMTGIBu2+f6jnVu6tbTm6BhcXk1WOr709uAQDWjG+uAVhnL278luyXZofADotJrHdWN5ncAmwv16/eUD0/k1csj29Wh2fyCgCYxAEEgHX30erA6rWzQ2CDhzUmsQ6bHQJsC4c0Jq8ePzsENnhHdc/qPbNDAID15QACAGMS68jGPINJLJbFLaozM4kFXL7jG39X3GpyByxcXJ1QPTqTVwDAZL6ZBoDhksY8w2HVlye3wMK+jUmsN1Y3mNwCLJfrVadWf1PtN7kFFr7VeIrxBZm8AgCWgAMIAPyms6uDq7fODoENHtuYt7nf7BBgKdyn8XfCEbNDYIN3Niav3j07BABgwQEEAH7bD6rHNSaxfjG5BRZu2fih0nOqfSa3APMc33inwq1nh8AOi8mrR1bfm9wCAPAbHEAA4HdbTGLdv/q3uSlwqX2r51dvqK4/uQXYWtetXpfJK5bLt6uHZ/IKAFhSDiAAcPk+0pjEevvsENjg8Y35m0NmhwBb4p6Nf4+eNDsENjit8WfzjNkhAACXxQEEAK7Y96vHZBKL5XKr6szGHA6wuo6vPlTdaXYI7PCr6nmNyavvTm4BALhcDiAAsHMWk1iHV9+c3AIL+zXmcE6trje5Bdhc16pe1vh//GqTW2DhO9Ujquc23v0BALDUHEAAYNe8pzqgesfsENjgiMYk1n1mhwCb4h7V2dXTZ4fABu+rDqpOnx0CALCzHEAAYNd9r3p0dUJ++5HlcevGgc4kFmxvxzXe93Hn2SGww2Ly6iHV1ye3AADsEgcQANg9l1QvaExifWtyCywsJrFeV113cguwa65ZnVS9KJNXLI8fVk9oTF79cm4KAMCucwABgD1zZnXP6p2TO2CjJzV+g/yes0OAnXL3xuTVsbNDYIMPNGY/3zI7BABgdzmAAMCe+171yExisVzuVH0ok1iw7P68cbC8y+wQ2GExefWg6muTWwAA9ogDCABsjsUk1sOrb09ugYWrNSaxXlZda3IL8Juu0Zi8eml19cktsPDD6ohMXgEAK8IBBAA21xmN2aHTZofABk9vzOvcY3YIUNXdqrMyecVy+WB1YPXm2SEAAJvFAQQANt93G5NYz2vMSMAyuHNjZue42SGw5o5p/KD5rrNDYIfFU6wPrL46uQUAYFM5gADA3nFxYz7iEdV35qbApa5Wvagxu3PNyS2wbq7e+H/vldW1J7fAwrnVExvvMTN5BQCsHAcQANi7Tq8Oqt43OwQ2OLYxiXX32SGwJu5QvT+TVyyXDzcmr944OwQAYG9xAAGAve/r1UMyicVyuUtjEuvPZ4fAijuqOqfxg2ZYFidWD6q+MjsEAGBvcgABgK3xy8Yk1hOqH85NgUtdvXppY5bnGpNbYNXs15icOzmTVyyPH1VPqo6vfj65BQBgr3MAAYCt9ZbqgOoDs0Ngg2Ors6q7zQ6BFXH7xt/zx80OgQ0+Xt2nOnV2CADAVnEAAYCt97XG7IRJLJbJXasPVsfMDoFt7imNyat7zQ6BDU6sDq2+MDsEAGArOYAAwByLSawjMonF8rh29crGJNbVJ7fAdnPV6oXVq6vrTG6BhZ9WT29MXv1scgsAwJZzAAGAud7ceDHuB2eHwAbHVu+v7jA7BLaJ2zb+n/mrap/JLbDwyeqg6hWzQwAAZnEAAYD5vlo9sHpBdcnkFlg4sDHjc9TsEFhyT64+1vhBMyyLE6v7Vp+fHQIAMJMDCAAsh19WJ1RPrM6d3AIL165Orl5U7Te5BZbNVRqTV6+prju5BRbOr/44k1cAAJUDCAAsmzc2fvP+w7NDYIPjqg9Ut58dAkviNpm8Yvl8qvEk0stmhwAALAsHEABYPl+pHtSYr4Blca/GJNZTZofAZI+uzq4Onh0CG7y0MXn1udkhAADLxAEEAJat3xjyAAAgAElEQVTTzxvzFU+qfjS5BRauU726Mftz1cktsNUWk1dvqfaf3AILF1TPqP6iunByCwDA0nEAAYDldmp1n+rjs0Ngh30asz/vr247uQW2ys2q0zJ5xXL5TGPy6qTZIQAAy8oBBACW3xeqQzOJxXI5qPpY9eTZIbCXPbL6RPXA2SGwwSurQ6rPzg4BAFhmDiAAsD38rDGJ9UfVjye3wMJ1q9c0ZoGuMrkFNtuVq+dXb6tuOLkFFhaTV0+rfjq5BQBg6TmAAMD28rrGJNYnZ4fADhsnsW4zNwU2zc2q06vnZPKK5fHF6rBMXgEA7DQHEADYfv6lum8msVguB1dnV4+eHQJ76BGN9y49aHYIbHByda+8EwwAYJc4gADA9rSYxPrj6vzJLbCwf/WWTGKxPS0mr95R3WhyCyxc2Ji8Oqb6yeQWAIBtxwEEALa3lzVeRv2p2SGww2IS67TGjBBsBzet3pXJK5bLv1b3z+QVAMBucwABgO3vc41JrJfMDoENHlh9onrk7BC4Aoc3ZoUeMjsENjilMXl1zuwQAIDtzAEEAFbDhdVxjZkMk1gsixtWb2vMCl15cgv8e1eqntuYvLrx3BS41EXVs6qjqvMmtwAAbHsOIACwWk5qvIz607NDYId9GrNCp2cSi+Vxk8bk1V/nOMfy+FJ1v+rFs0MAAFaFAwgArJ7PVodWr5gdAhs8qDEz9IjZIay9+1dnVw+dHQIbvLY6sPro7BAAgFXiAAIAq+mn1dMbk1gXTG6BhRs15oZMYjHDYvLqjOoWc1PgUhdVz66OzOQVAMCmcwABgNW2mMT659khsMNiEutd1e9NbmF97F+9sTF5te/kFlj4cuOJpBdWl0xuAQBYSQ4gALD6/rk6pDp5dghs8JDqE9Xhs0NYeferPlY9dnYIbPDWxi8onDU7BABglTmAAMB6+El1TGMS68LJLbBw48Yk1nPzuZTNt5i8end1y7kpcKlfNCavHlf9YHILAMDK840mAKyXk6rDqi/ODoEdrtyYJXpndZPJLayOG1RvyOQVy+Ub1cMyeQUAsGUcQABg/Xysunf16tkhsMHDqrMbe/iwJw5t/D33uNkhsMHbqwOq984OAQBYJw4gALCezquOrp5VXTS5BRZuUZ2RSSx2zz7Vc6r3VLea3AILi8mrx1Tfn9wCALB2fGMJAOvtxY0XBH9pdgjssG9jtuiN1f6TW9g+rl+dWj0/k1csj29Wh2fyCgBgGgcQAOCj1YHVa2aHwAaPbcwY3W92CEvvvo0/K0+YHQIb/GNj8uo9s0MAANaZAwgAUGMS66jGTIdJLJbFLat3ZxKLy3Z848/IrWeHwA4XVydUj6q+N7kFAGDt+UYSAFi4pDHTcVj15cktsLCYxHpDdYPJLSyP61Wvr/6m2m9yCyx8qzF59YJMXgEALAUHEADg3zu7MYn1utkhsMHjGjNHh84OYboDqo9UT5wdAhu8q/Fn88zJHQAAbOAAAgD8Lj+untKYxPrF5BZYuFVjT/851T6TW5jj+OqD1R1nh8AOv6qe15i8+u7kFgAA/h0HEADgsiwmsR5ZfXtyCyzsWz2/Oqm61uQWts7Vq5c2Jq+uNrkFFs5tPIn03Ma7PwAAWDIOIADAFfmn6h7V22aHwAZPrz5d3Xd2CHvdHzTmz/58dghs8N7Gv41vmh0CAMBlcwABAHbG96vHZhKL5XLr6t2NWSRW0/HVh6s7zw6BHRaTVw+tvjG5BQCAK+AAAgDsrMUk1uHVNye3wMJ+jVmk11fXm9zC5rlmY+bM5BXL5DvVIxqTV7+cmwIAwM5wAAEAdtV7qntW75gdAhs8sfpIdcDsEPbYPaqzq2Nnh8AG768Oqk6fHQIAwM5zAAEAdsf3q0dXJ+TFryyPO1YfzCTWdvbMxuTVXWaHwA6LyasHV1+fmwIAwK5yAAEAdtcl1Quqh1XfmtwCC1drzCa9vLrW5BZ23jUak1cvqa4+uQUWflg9IZNXAADblgMIALCn3l3dtzEPAsviaY0/k7efHcIVul3j7xGTVyyTj1eHVG+ZHQIAwO5zAAEANsPXqgdkEovl8gfVH86O4HI9tfpE490KsAwWTzceXH1hcgsAAHvIAQQA2CyLHxo9PJNYwOVbTF69IlNlLI9zqyMax3yTVwAAK8ABBADYbGdUB1SnzQ4BltIdG/NkJq9YJh9q/Nv1ptkhAABsnivPDgAAVtL51cmN3+w+pNpnbg6wJC6q/s/qtrNDYIO/rY6ufjA7BACAzeWHEQDA3vbQ6pXVTWaHAMAGP6r+tHrD7BAAAPYOBxAAYCvconpVdf/ZIQBQfaQ6svrK7BAAAPYeE1gAwFY4r3pZ40XpD8wvYQAwz4nVUzN5BQCw8vzwAQDYao+p/qHaf3YIAGvlx9WfVa+fHQIAwNZwAAEAZrhlYxLrsNkhAKyFTzQmr/5ldggAAFvHBBYAMMN51UmZxAJg7zuxOrr6zuwQAAC2lh82AACzPa76++oGkzsAWC0/rf6yevnsEAAA5nAAAQCWwa2qk6tDZ4cAsBI+VT2l+vzsEAAA5jGBBQAsgx83Xoy+X+O9IH5JA4Dd9eLqyZm8AgBYe364AAAsmydU/6u6/uwQALaV86v/2HjHFAAAOIAAAEvp1o1JrENmhwCwLXy6MXn1udkhAAAsDxNYAMAy+nHjpbXXqe47uQWA5fbS6knVt2eHAACwXDwBAgAsuydWf1ddb3YIAEvlguovM3kFAMBlcAABALaDO1anVAfMDgFgKXymOrL659khAAAsLxNYAMB28MPqHzKJBUC9qjqi+sbsEAAAlpsnQACA7eZJjUms684OAWBLmbwCAGCXOIAAANvRnarXVH8wOwSALfHFxuTVx2aHAACwfZjAAgC2ox9Uf59JLIB18OrqsdVXZocAALC9eAIEANjunl79z+qas0MA2FQ/r/6qevHsEAAAticHEABgFdylOqW6x+wQADbFvzYmr86ZHQIAwPZ1pdkBAACb4HONKayXzA4BYI+9prpXjh8AAOwh7wABAFbFL6s3V1+uHlFddW4OALvoouo/V/+lMX8FAAB7xAQWALCKfr8xiXX32SEA7JQvVUdVZ88OAQBgdZjAAgBW0WerQ6tXzA4B4Aq9rjF55fgBAMCmcgABAFbVT6unV8+oLpjcAsBvu6h6dvWU6seTWwAAWEEmsACAdXDXxkt17zo7BICq/q06sjprcgcAACvMEyAAwDr45+qQ6lWzQwDobdVBOX4AALCXOYAAAOviJ9VTG5NYF05uAVhHv2hMXj22+sHkFgAA1oAJLABgHR1YnVLdYXYIwJr4RuMI/Z7ZIQAArA9PgAAA6+hj1b2rV88OAVgD76gOyPEDAIAt5gACAKyr86qjq2dVP5/cArCKLq5OqB5dfX9yCwAAa8gEFgBA3asxiXX72SEAK+Jb1THVu2eHAACwvjwBAgBQ5zSOIK+ZHQKwAt5Z3TPHDwAAJrvy7AAAgCXx8+q11bnVQ/M5CWBXXVz9b9VfVudPbgEAABNYAAC/w0GNSazbzg4B2Ca+VT2tOmN2CAAALJjAAgD4bWdXB1avmx0CsA28qzogxw8AAJaMaQcAgN/t5413gpxbPSyfmwD+vV9V/7U6rvrp5BYAAPgtJrAAAK7YwY1JrNtM7gBYFt9uTF790+wQAAC4LCawAACu2FmN94K8bXYIwBJ4X+PvRMcPAACWmikHAICdc2H1qkxiAetrMXn159WPJ7cAAMAVMoEFALDrHli9srr57BCALfKD6hnVW2eHAADAznIAAQDYPTesXlY9cnYIwF72/uqY6muzQwAAYFeYbgAA2D0XNJ4CubB6SN6tBqyexeTVn1U/mtwCAAC7zBMgAAB77kGNY8jNZocAbJIfVn9SvXlyBwAA7DYHEACAzXGj6uXVI2aHAOyhD1ZHV1+dHQIAAHvCBBYAwOa4oHpFJrGA7euS6r9Vx1bnTm4BAIA95gkQAIDN95DGMeSms0MAdtK51Z9Wb5wdAgAAm8UBBABg77hxYxLr4bNDAK7Ah6ujqq/MDgEAgM1kAgsAYO84v/Fi9EuqB+YXT4DldGL1tOoHs0MAAGCz+UYcAGDve2hjEuv3ZocA7PCj6s+qU2eHAADA3uIAAgCwNW5enVzdf3YIsPY+Xh1ZfWF2CAAA7E0msAAAtsZPqpdlEguY68Tq6Oq7s0MAAGBv8403AMDWe3L1t9V1Z4cAa+PC6j81/u4BAIC14AACADDHLRqTWIfNDgFW3ierp1T/MjsEAAC2kgksAIA5zqtOyiQWsHedWB1VfWd2CAAAbDXfaAMAzPe46u+rG0zuAFbH+dVfNt49BAAAa8kBBABgOdyyenV16OwQYNv7VHVk9bnZIQAAMJMJLACA5XBe9Q/Vfo33gvhFFWB3vKR6cvXt2SEAADCbb6wBAJbPE6r/VV1/dgiwbZxf/cfGu4UAAIAcQAAAltWtGpNYh8wOAZbepxuTV5+dHQIAAMvEBBYAwHL6cfXy6jrVfSe3AMvrldUR1TdnhwAAwLLxBAgAwPI7ojGJdb3ZIcDSuKD6y0xeAQDAZXIAAQDYHm5dnVLdZ3YIMN0XGpNXH58dAgAAy8wEFgDA9vDj6mWZxIJ1d3L1uOqrs0MAAGDZeQIEAGD7eVL1d9V1Z4cAW+bC6j9k8goAAHaaAwgAwPZ0p8Yk1j1nhwB73Rero6pzZocAAMB2YgILAGB7+kH195nEglX36sbk1b9N7gAAgG3HEyAAANvf06v/UV1rdgiwaS6q/lP14tkhAACwXTmAAACshjtXr6nuMTsE2GNfqo6sPjo7BAAAtrMrzQ4AAGBTfL66T/WS2SHAHnltdWCOHwAAsMccQAAAVsfPquOqZ1TnT24Bds1F1bMbT36cN7kFAABWggksAIDVdJfGJNbdZ4cAV+jLjcPH2bNDAABglXgCBABgNX2uMYn1t7NDgMv11urgHD8AAGDTOYAAAKyuC6tnNiaxLpjcAvymXzQmrx5X/WByCwAArCQTWAAA6+GujUmsu84OAfq36qjqI5M7AABgpXkCBABgPfxzdUj1qtkhsObe3pi8cvwAAIC9zAEEAGB9/KR6aiaxYIbF5NVjqu9PbgEAgLVgAgsAYD0dWJ1S3WF2CKyBb1bHVO+ZHQIAAOvEEyAAAOvpY9W9qlfPDoEV94/VATl+AADAlnMAAQBYXz+pjq6eVf18cgusmourE6pHVd+b3AIAAGvJBBYAADWeBjmluv3sEFgB32q8b+fMyR0AALDWPAECAEDVOY0jyGtmh8A2987G5NWZkzsAAGDtOYAAALBwXnVkYxLrosktsN38qnpe9ejqu5NbAACATGABAPC7HdR4QfrtZofANvDtxuTVGbNDAACAX/MECAAAv8vZjUms184OgSV3WnXPHD8AAGDpXHl2AAAAS+vnjQPIudVD89kRNvpV9V+r46qfTm4BAAB+BxNYAADsjIMbk1i3nR0CS+A71dOq02eHAAAAl80EFgAAO+OsxhHkbbNDYLL3N96R4/gBAABLzowBAAA768LqVY1JrIflsyTrZTF59WfVjya3AAAAO8EEFgAAu+MBjWPIzWeHwBb4YfWM6i2zQwAAgJ3nAAIAwO66YfWy6pGzQ2Av+kB1dPW12SEAAMCuMVsAAMDuuqB6ZSaxWE2XVP+t+uNMXgEAAAAArK0HVd9o/NDYl6/t/vXD6vEBAAAAAEB1o+odzf/htS9fe/L1wepWAQAA256ZAgAANssF1SuqC6uHVFeamwO75JLq/62e1ngCBAAAAAAAfsuDq282/7f5ffnama9zqyMCAAAAAICdcOPqnc3/4bYvX5f39aHq1gEAACvHBBYAAHvL+dUrGz9kfmC1z9wc+C0nNiavfjA7BAAA2Hx2mQEA2JsuqX6547+wTC6pfpU/mwAAAAAA7KKbVe9u/sSRL1+X93VOdYcAAAAAAGAnPLL6bvN/uO3L1858nVcdHQAAAAAAXIYrV8/v19NCvnxtp68XVfsFAACsBC+iBABgs9y08dLzB0/ugD1xTnVk9a+zQwAAgD3jJegAAGyGR1SfyPGD7e9e/foIAgAAAADAmjJ55WuVv15UXTUAAGBbMoEFAMDu+r3G5NVDZofAXvTRxtMgX5odAgAA7BoTWAAA7I7DG5NXjh+suntXH6v+aHYIAACwa648OwAAgG3lStVfVy+urj25BbbKftVTqhtU/1RdPDcHAADYGSawAADYWTepXlE9bHYITHRWdVT15dkhAADA5TOBBQDAzrh/dXaOH3Bw4wjymNkhAADA5TOBBQDA5VlMXv1tdb3JLbAsrlEd05jEOr361dwcAADgdzGBBQDAZdm/+vvqsZM7YJl9pDGJ9W+TOwAAgH/HAQQAgN/lsOpV1S1nh8A28P3qj6u3zw4BAAB+zQQWAAAbLSav/q66/uQW2C6uUT01k1gAALBUPAECAMDCDRqTV4+b3AHb2Xsa7wf55uwQAABYdw4gAABUHVqdXN1qdgisgO9Vx1b/ODsEAADWmQksAACOaxw/9p8dAivimtXR1S+q909uAQCAteUJEACA9XX96n9VT5gdAivszMb7Qb41uQMAANaOAwgAwHo6pPHUx61nh8Aa+G5jEuuds0MAAGCdmMACAFg/x1evyOQVbJVrNp4CuVLjJemXzM0BAID14AkQAID1cb3G5NURs0NgjZ3ROIZ8e3YIAACsOgcQAID1cEB1SnXH2SFA362eVp02OwQAAFaZCSwAgNV3fPXq6sazQ4BqTGI9LZNYAACwV3kCBABgdV23+rvqSbNDgMt0euMY8p3ZIQAAsGocQAAAVtM9G5NXd5odAlyhr1fHVO+bHQIAAKvEBBYAwOo5vjq5usnsEGCnXKf648b3ZyaxAABgk3gCBABgdVyr+h/V02eHALvtLdUzqh/ODgEAgO3OAQQAYDXco3pNdefZIcAe+1p1dPWB2SEAALCdmcACANj+jqteX/3e7BBgU1y38RTIRTmCAADAbvMECADA9nXNxuTVsbNDgL3mTdWfZhILAAB2mQMIAMD2dPfG5NVdZocAe91Xq6OqD80OAQCA7cQEFgDA9vPMxuTVTWeHAFviutWfZBILAAB2iSdAAAC2j2tU/zOTV7DO3tiYxDp3dggAACw7BxAAgO3hbo3Jq9+fHQJM95XGJNaHZ4cAAMAyM4EFALD8jqneUN18dgiwFK7XeBLsJzmCAADAZfIECADA8jJ5BVyRU6s/q340OwQAAJaNAwgAwHK6Q3VKdeDsEGDpfaE6svr47BAAAFgmJrAAAJbP0dVbqlvPDgG2hf2rP6l+mkksAAC4lCdAAACWx37VidVxs0OAbesV1X9oHEMAAGCtOYAAACyH2zcmr+41OwTY9j7fmMT65OwQAACYyQQWAMB8R1ZvrW4zuQNYDTes/jSTWAAArDkHEACAea5a/X/V8xvzVwCbZd/qkY2ny95Z/WJuDgAAbD0TWAAAc9yuMXl179khwMr7XONJs0/NDgEAgK3kCRAAgK33R9XbqtvODgHWwg2rP6m+W50zNwUAALbOlWYHAACskatWL2w8+XGdyS3Aerl69eLqpOqak1sAAGBLmMACANgat61eXR08OwRYe59tTGJ9enYIAADsTZ4AAQDY+x5TnZXjB7Acfr/6YPW02SEAALA3OYAAAOw9V2lMXr252n9yC8BG16pe3pjEusbkFgAA2CtMYAEA/z979x3te13n9/6JYO9i721GHXUUBQVBwREdxI6KqKCTZMRUMTdFkjvJYLKSgXWzsgaSm4k6meTiWNBRsGBFQQVFQcAy9jJWbAgiKCjl/vE9P9w2OGefvc/nVx6PtbJw1jLwXMvDbu/9fX3ZHPdsmrx6xOAOgOvymerZW/4KAABLwxMgAAAb74lNk1eOH8Ai+L3qzOqQ0SEAALCRHEAAADbObPLq5Oq2g1sAtsXNq9c1TWLdeHALAABsCBNYAAAb485NPzx8zOgQgO10bnVw9aXRIQAAsD08AQIAsP0OqM7L8QNYDrtVH6+eMzoEAAC2hwMIAMD67VwdXb2jut3gFoCNdIvq9dUrqhsMbgEAgHUxgQUAsD53ql5b7Te4A2CzzZ4G+fLoEAAA2BaeAAEA2HZPqD6R4wewGh5enVM9e3QIAABsi51HBwAALJCdqz+r/qK66eAWgB3phtWzqttU76+uHJsDAADXzQQWAMDWuWPT5NVjR4cADHZ2dXD11dEhAABwbUxgAQBct/2bJq8cPwBq9+rc6pmjQwAA4NqYwAIA+O2uV/1p9crq5oNbAObJjZreCXKb6n3VVWNzAADg15nAAgD4ze5QvaZ63OgQgDl3VtMk1t8N7gAAgF9iAgsA4Nft07Rx7/gBcN32aDqCHDg6BAAA1jKBBQDwC7PJq/9V3WpwC8AiuUn1vExiAQAwR0xgAQBMdq3+T/XkwR0Ai+6D1XOrb48OAQBgtTmAAADU3tXrqruNDgFYEj+oDqveNToEAIDVZQILAFhls8mrv6puPbgFYJncpHp+dePq1OrqsTkAAKwiT4AAAKvqNk2TV08Z3AGw7D7Q9H4Qk1gAAOxQDiAAwCraq3p9dffRIQAr4vvVodV7RocAALA6TGABAKtkp+pl1aszeQWwI9206QBiEgsAgB3GEyAAwKq4dfW/q6eNDgFYcac2vR/k/NEhAAAsNwcQAGAV7Nk0eXWP0SEAVPW9pidC3js6BACA5WUCCwBYdkdUr6l2HR0CwDVu2vRi9OtVH8wkFgAAm8ATIADAsrpV0+TV00eHAHCt3t80ifWd0SEAACwXBxAAYBk9tHpD9TujQwDYKt+qDqlOHx0CAMDyMIEFACybI6oTqtuPDgFgq92iekHT96gmsQAA2BCeAAEAlsUtq7+qDhodAsB2Obl6YXXB6BAAABabAwgAsAwe0jR59bujQwDYEN9smsQ6Y3QIAACLywQWALDojqheX91hdAgAG8YkFgAA280TIADAorpZ9RfVoaNDANhUb6v+qPrh4A4AABaMAwgAsIgeXL2xut/oEAB2iG9Uz6k+MjoEAIDFYQILAFg0z6lOqu48OgSAHeaW1fOr71cfH9wCAMCC8AQIALAobto0eXXY6BAAhnpL9feqC0eHAAAw3xxAAIBF8KCmyav7jw4BYC58vemJwDNHhwAAML9MYAEA8+6PqzdXdxodAsDcuGXTE4E/rj46uAUAgDnlCRAAYF7dpPqfmbwC4Nqd1DSJddHoEAAA5osDCAAwjx7YNHn1gNEhACyEr1UHVx8bHQIAwPwwgQUAzJvnNv02711GhwCwMG5VvSCTWAAArOEJEABgXpi8AmAjvLn6+9WPRocAADCWAwgAMA/uW72h2m10CABL4QtNk1ifGB0CAMA4JrAAgNEOqd5e3WN0CABLY9fqj6pLMokFALCyPAECAIxyw+q46vDRIQAstb+u/lHTMQQAgBXiAAIAjHCfpsmrh40OAWAlfL56dvWp0SEAAOw41xsdAACsnIOrc3L8AGDHuV/1sTx1CACwUjwBAgDsKDeo/lt++ATAWK9umsS6dHQIAACbywEEANgR7t00efXw0SEAUH2uaRLr06NDAADYPCawAIDN9qzq3Bw/AJgf92+axPrj0SEAAGyenUcHAABLa+fqP1THVTca3ALMhxOrO1Q3Hh0C1fWrp1a7Vu+rrhybAwDARvMECACwGe5VfaT6k3y9AfzCKdUDtvwV5sU/a3pS8YGjQwAA2Fh+IAEAbLQnVWdVe4wOAebS96oDqpdXVw1ugZnfazrcP3d0CAAAG8cBBADYKNevjq3e1jQnAvDbXFkdVT2h+u7YFLjGzavXVsdXNxncAgDABnAAAQA2wh2qd1YvqXYa3AIzn6zePTqCa/W+6lHV2aNDYI3Dmv5s3n10CAAA28cBBADYXk+sPl09bnQIbHF1dUz18OrLg1u4bl+p9sokFvNlz6bPbc8ZHQIAwPo5gAAA6zWbvDq5uu3gFpi5sDqoOrK6YnALW++Kpkmsp1U/HJsC17h59frqFdUNB7cAALAODiAAwHrcuTolk1fMl49Wu1UnjQ5h3d5ePbT68OgQWOPwpj+T9xkdAgDAtnEAAQC21QHVedVjRofAGsdV+1ZfGx3CdvtG0/+WxzTNmcE8eFh1TvXs0SEAAGw9BxAAYGvtXB1dvaO63eAWmLmoafLqiOrywS1snCuaZsye3jRrBvPgFtUbmiaxbjC4BQCAreAAAgBsjTs1TV69LJNXzI9PVI+sThwdwqZ5a9Mk1pmjQ2CNw6szqnuPDgEA4No5gAAA1+UJTT9o3m9wB6x1XLVn9YXRIWy6rzd9/Dkuk1jMj92bJrGeNToEAIDfzgEEAPhtZpNX78rkFfPjkuqwpsmrywa3sONc3vS/+UGZxGJ+3LJpEuvYTGIBAMwlBxAA4De5Y/XeTF4xXz7Z9FvXfz06hGFOqnarPjo6BLbYqXpJdXp1r8EtAAD8CgcQAOBX7d80efXY0SGwxiub3vfx+dEhDPe1at+mSSyYF3tUZ1UHjg4BAOAXHEAAgJnrVUc1TV7dfmwKXOPS6oXVizN5xS+sncS6aHALzOxavb1pEuv6g1sAAMgBBACY3KF6T/WnTe/+gHnw6abJq+NHhzC3Tmx6MugTo0Ngi9kk1vuquwxuAQBYeQ4gAMA+1dnV40aHwBp/WT2i+tzoEObeF6o9M4nFfHl0dV71xNEhAACrzAEEAFbXbPLq1OquY1PgGj9pmrx6UfXTwS0sjsuaJrEOqy4Z3AIzt61OziQWAMAwDiAAsJp2rd7SNHm1y+AWmPnbTF6xff666c/QJ0eHwBazSaxTqjsPbgEAWDkOIACwevauzq2ePDoE1nhd04zRZ0eHsPA+3/RekFeODoE1HtM0ifWHo0MAAFaJAwgArI7Z5NVp1d2GlsAvzCavnpfpIjbOZdWLm/5sXTq4BWZuV72zOrraeXALAMBKcAABgOlvZgAAACAASURBVNVwm+qkTF4xX75U7ZPJKzbP8U2TWJ8eHQJb7FS9rGkS606DWwAAlp4DCAAsv72aJq+eMjoE1nh99bCmP5uwmT5XPaL6y9EhsMZ+TZNYjx/cAQCw1BxAAGB5zX7L9IPV3Qe3wMzlTdNEz61+PLiF1fHT6kVNk1g/GdwCM7dvmsQ6Kt+bAwBsCl9kAcByunV1YtPOuMkr5sWXq0fl5dSMM5vE+tvRIbDFzk3zlO+t7ji4BQBg6TiAAMDy2bNpVuhpo0NgjTc2TV6dMzqElffZpmnA140OgTX+oDq7evToEACAZeIAAgDL5YjqtOoegztg5mdNk1cHVxcPboGZH1fPyyQW8+Uu1amZxAIA2DC+qAKA5XCrpsmrP69uOLgFZr5S7Z3JK+bX8dU+1ZdGh8AWs0ms91R3GNwCALDwHEAAYPE9tPpY9fTRIbDG3zRNXp09OgSuw7lNf1ZfPzoE1nhc08fPvUeHAAAsMgcQAFhsR1RnVr8zOgS2+Fn10qbJqx8NboGt9ePquU1zbZcPboGZuzbNWh6V790BANbFF1EAsJhuWb0pk1fMl682zQkdW109uAXW45XVo6ovjw6BLXZpmsR6S3WbwS0AAAvHAQQAFs9DmiavDhodAmu8o9qjOmt0CGync5omsd44OgTWeHJ1XtOBDgCAreQAAgCLZTZ59bujQ2CLnzdNXj25umBwC2yUi5tm3F7cNOsG8+Bu1Qeql1U7DW4BAFgIDiAAsBhuVr26afLqRoNbYOZbTS/qNXnFsnpl00uovzI6BLbYpTq6Oqm69eAWAIC55wACAPPvwdXZ1aGjQ2CNd1UPrT40OgQ22dlNk1h/MzoE1nhq0yTWnqNDAADmmQMIAMy3w5ve93G/0SGwxWzy6sDqB4NbYEf5UdMk1kszicX8uHt1WtM8pkksAIDfwAEEAObTTavjq1dk8or58e3q8Zm8YjVd3fRnf5/qq4NbYOaGTfOYb84kFgDAr3EAAYD586CmyZXDRofAGu9umrz6wOgQGOysao/qHaNDYI2nV+dWjxwdAgAwTxxAAGC+/HHT5NX9R4fAFldWR1ZPrL4/uAXmxQXVk5smsX4+uAVm7tF0pD5idAgAwLxwAAGA+XCTpsmrV1U3HtwCM+c3TV4dk8kr+FWzSazHVd8a3AIzayexbjW4BQBgOAcQABjvgZm8Yv68t2ny6tTRITDnPtT078q7RofAGs9oeqL0IaNDAABGcgABgLGeW32kesDoENjiqurlTZNX3xvcAoviB9WBmcRivvxOdWYmsQCAFeYAAgBjzCavXlvdfHALzHynafLqqKZ3fwBbbzaJ9fjq24NbYOZGTZNYf13dbHALAMAO5wACADvefavTM3nFfDm92r16/+gQWHAfaJrEevfoEFjj+U1zm78/OgQAYEdyAAGAHeuQ6pxqt9EhsMVs8uqxeZEzbJTvN83IHZmnqZgf96s+mkksAGCFOIAAwI5xw+oV1esyecX8uKB6atPk1RVjU2DpXF0d0zSJdf7gFpiZTWIdX910cAsAwKZzAAGAzXef6sPV4aNDYI0zmmZ6Th4dAkvu1KZ/1947OgTWOKxpEuvBo0MAADaTAwgAbK4DqzOrh40OgTX+R/W46pujQ2BFfK96UvVfm54MgXlw/6b3Pz17dAgAwGZxAAGAzXGDpsmrk6vbDm6BmR82TV79k+rywS2wan5e/Ytq/+o7g1tg5hbVG5omsW4yuAUAYMM5gADAxrt3Jq+YPx9pmuF52+gQWHHvr3Zv+s17mBezSawHjg4BANhIDiAAsLGeVZ1bPXx0CGwxexHzY6pvDG4BJt+qHlu9vLpqcAvMPKBptvN5o0MAADaKAwgAbIwbVMc2zUjcYnALzFxYPaM6srpicAvwy66ojmqapbtgbApc42bVazKJBQAsCQcQANh+92qaMnlJtdPgFpg5s9qtesvoEOBandw0T3fG6BBY47CmP5O/MzoEAGB7OIAAwPZ5UnVWtcfoEFjjuGq/6muDO4Ct882mf2dNYjFPHlp9vDpkdAgAwHo5gADA+ly/afLqbdWug1tg5qLqoOqI6vLBLcC2mU1iPb364dgUuMbNq9c1TWLdeHALAMA2cwABgG13z0xeMX/Oqx5RnTg6BNgub2uar/vI6BBY47Cmr33uOzoEAGBbOIAAwLZ5YtPk1SNGh8Aax1V7VV8cHQJsiK9Xj6mOqa4e3AIzD2uaxDp4dAgAwNZyAAGArTObvDq5uu3gFpj5UfXMpsmrywa3ABvriurI6hnVhYNbYOYW1QnVK6obDG4BALhODiAAcN3uXJ2SySvmyyebnkR68+gQYFO9pWkS68zRIbDG4dWHq3uPDgEAuDYOIABw7Q5oerfCY0aHwBrHVY+svjA6BNghvlbt1/TvPsyLh1fnVs8aHQIA8Ns4gADAb7ZzdXT1jup2g1tg5tLqBZm8glV0edO/+wdVFw1ugZlbVG9omgk1iQUAzB0HEAD4dXdqmrx6WSavmB+fqnavXj06BBjqxKb5u/NGh8AWOzXNhJ5R3WtwCwDAL3EAAYBf9oTqE01TIzAvXtU0efW50SHAXPhitVcmsZgvu1dnVU8aHQIAMOMAAgCT2eTVuzJ5xfy4tHph08tmfzq4BZgvlzVNYj2z+tHgFpjZtXpb0yTW9Qe3AAA4gABAdcfqvZm8Yr58utqjOn50CDDX3tw0ifXJ0SGwxWwS6/TqnmNTAIBV5wACwKrbv2ny6rGjQ2CN1zTN23x2dAiwEL7QNJNnEot58oimSawnjg4BAFaXAwgAq+p61VFNk1e3H5sC1/hJ0+TVodUlg1uAxTKbxHpB03wezIPbVidnEgsAGMQBBIBVdIfqPdWfNr37A+bBZzJ5BWy/Vze9jPpTo0Ngi9kk1inVnQe3AAArxgEEgFWzT3V29bjRIbDG66s9m44gANvrc02TWK8aHQJrPKY6rzpgdAgAsDocQABYFbPJq1Oru45NgWv8tGny6rnVjwe3AMvlp9XhTR9jTGIxL25XvaM6Ok/hAgA7gAMIAKtg1+otTZNXuwxugZkvVXtn8grYXMc3zet9enQIbLFT9bLqfdWdBrcAAEvOAQSAZbd3dW715NEhsMYJ1cOb/mwCbLbPVntVrxkdAmvsW32iesLoEABgeTmAALCsZpNXp1V3G1oCv/Cz6sXVIdXFg1uA1XJJdWjTJNZPBrfAzO2qd2USCwDYJA4gACyj21QnZfKK+fKV6lHVK0eHACttNon1mdEhsMVsEuu91R0HtwAAS8YBBIBls1fTrNBTRofAGn9T7VZ9fHQIQNPxY8/q9aNDYI3HNk1i7T86BABYHg4gACyL2W8PfrC6++AWmPlZ9dLq4ExeAfPlx9Vzmyaxfjq4BWZu3zSJdVR+XgEAbABfUACwDG5dndi0H23yinnx1Wrv6tjq6sEtAL/N8U0fq740OgS22LlpxvQ91R0GtwAAC84BBIBFt2fT5NXTRofAGic3beyfPToEYCucWz28OmF0CKzxuKbPo/uMDgEAFpcDCACL7IjqtOoegztg5udNk1dPqS4Y3AKwLS6uDqle3DTfB/PgrtWpmcQCANbJFxAALKJbNU1e/Xl1w8EtMPN3Tb+lavIKWGSvrB5VfWV0CGyxS9Mk1luqXQe3AAALxgEEgEXz0Opj1dNHh8Aa72yavPrY6BCADfDxarfqb0aHwBpPbppr23t0CACwOBxAAFgkR1RnVr8zOgS2mE1ePan6weAWgI10cXVw08c4k1jMi7s1zZ8elZ9nAABbwRcMACyCW1ZvyuQV8+Xb1f6ZvAKW19VNH+P2rr46uAVmZpNYJ1W3GdwCAMw5BxAA5t1DmmaFDhodAmu8u2mO7YOjQwB2gLObZv5OHh0CazylaRJrr9EhAMD8cgABYJ7NJq9+d3QIbHFldWT1xOr7g1sAdqQLmn7g/NKm+T+YB3dv+mWEl1U7DW4BAOaQAwgA8+hm1aubJq9uNLgFZs5vmrw6JpNXwGqaTWLtU/3d2BS4xi7V0dWJ1a0HtwAAc8YBBIB58+CmqY1DR4fAGu9pmrw6bXAHwDz4WNMk1jtHh8AaT2uaxHrk6BAAYH44gAAwTw5v+qHK/UaHwBZXVS+vDqy+N7gFYJ78oHpSJrGYL/eoPtA0owoA4AACwFy4aXV89YpMXjE/vtM0eXVU07s/APhls0ms/atvD26BmRs2zai+ubrV4BYAYDAHEABGe1DT5NVho0NgjVOqh1Snjg4BWAAfbJoJfPfoEFjjGU1PFj90dAgAMI4DCAAj/XHTN6b3Hx0CW8wmrw7I5BXAtvh+9cTqyDw1x/z4neojmcQCgJXlAALACDdpmrx6VXXjwS0w893qCZm8Alivq6tjmiaxzh/cAjM3aprEelN1y8EtAMAO5gACwI72wExeMX/OqHav3jc6BGAJnNY0O/SewR2w1kFNTx7//ugQAGDHcQABYEd6btMMwQNGh8AWs8mr/apvjk0BWCrfqw5s+hh71eAWmPnd6qOZxAKAleEAAsCOMJu8em1188EtMPPD6mlNk1dXjE0BWEpXNn2M3b/6ztgUuMZsEuvV1U0HtwAAm8wBBIDNdt/q9ExeMV8+3DTP8vbRIQAr4NTqIdUpo0NgjUObZlkfPDoEANg8DiAAbKZDqnOq3UaHwBazF/TuW31jcAvAKvledUAmsZgv92+axHrR6BAAYHM4gACwGW5YvaJ6XSavmB8XVk+vjszkFcAIs0msJ1TfHZsC17hx9cqmuVaTWACwZBxAANho92maFzp8dAiscWbT5NVbR4cA0Puq3aszRofAGodVZ1UPGh0CAGwcBxAANtLBTZNXDxsdAmscV+1XfX1wBwC/8M2mj80msZgnD6g+Uj1/dAgAsDEcQADYCDdomrw6obrF4BaYuah6RnVEdfngFgB+3RVNk1hPq344NgWucbPqr5smsW4yuAUA2E4OIABsr3tn8or589GmyauTRocAcJ3e3vQx+8OjQ2CN2STWA0eHAADr5wACwPZ4VnVu9fDRIbDGcdW+1ddGhwCw1b7R9LH7mOrqwS0w83tNk1jPHR0CAKyPAwgA63GD6tjqDZm8Yn5cVD0zk1cAi+qK6sjq6dWFg1tg5ubVa5smsW48uAUA2EYOIABsq3tVp1cvqXYa3AIzn6geWb15dAgA2+2tTZNYZ44OgTUOq86o7js6BADYeg4gAGyLJzVtIe8xOgTWOK7as/rC6BAANszXq/2aPsabxGJe7FadUz1ndAgAsHUcQADYGtdvmrx6W7Xr4BaYuaTptzGPqC4b3ALAxru86WP8QU0zhzAPbl69vnpFdcPBLQDAdXAAAeC63DOTV8yfT1a7V389OgSATXdS0yTWR0eHwBqHVx+u7jM6BAD47RxAALg2T2yavHrE6BBY45VN7/v4/OgQAHaYr1X7Nk1iwbx4WNMk1rNHhwAAv5kDCAC/yWzy6uTqtoNbYObS6oXVizN5BbCKZpNYz8wkFvPjFtUJTV8732BwCwDwKxxAAPhVd65OyeQV8+XTTZNXx48OAWC4Nzc9CfiJ0SGwxU5NXzufUd17cAsAsIYDCABrPbr6WPWY0SGwxpuqfarPjQ4BYG58oelzw2tGh8Aau1cfqR4/OgQAmDiAAFC1c3V09YHqLoNbYOYnTZNXz6p+NLgFgPlzSXVoddiW/wzz4PbVuzOJBQBzwQEEgDs1TV69LJNXzI+/rfbI5BUA1+2vm37z/pOjQ2CL2STW6dU9x6YAwGpzAAFYbU9o2s/eb3AHrPW6aq/qM6NDAFgYn296L8grR4fAGntUZ1cHjg4BgFXlAAKwmmaTV++qbje4BWZmk1fPq348uAWAxXNZ9eKmzyWXDm6BmV2rtzdNYl1/cAsArBwHEIDVc8fqvZm8Yr58qelltiavANhexzdNYn16dAhsMZvEel/etwcAO5QDCMBq2b9p8uqxo0NgjROqh1Xnjg4BYGl8rnpE9ZejQ2CNR1fnVQeMDgGAVeEAArAarlcd1TR5dfuxKXCNy5umSg7J5BUAG++n1YuaJrF+MrgFZm5bvSOTWACwQziAACy/O1Tvqf606d0fMA++XD0qL6sFYPPNJrH+dnQIbDGbxHpvdefBLQCw1BxAAJbbPtXZ1eNGh8Aab2yavDpndAgAK+Oz1V7V60aHwBr7Nk1i/eHoEABYVg4gAMtpNnl1anXXsSlwjZ81TV4dXF08uAWA1fPj6nmZxGK+3K56Z3V0ntYGgA3nAAKwfHat3tI0ebXL4BaY+Uq1dyavABjv+KanZL80OgS22Kl6WXVKdafBLQCwVBxAAJbL3tW51ZNHh8Aab2qavDp7dAgAbHFu0+emE0aHwBr7NU1iPX5wBwAsDQcQgOUwm7w6rbrb0BL4hZ9VL62eXf1ocAsA/KofV4c0zTNePrgFZm7fNIl1VH5mAwDbzSdTgMV3m+qkTF4xX/6uaV7k2OrqsSkAcK1eWT2q+vLoENhi56av7d9b3XFwCwAsNAcQgMW2V9OEw1NGh8Aa76h2r84aHQIAW+mcpkmsN44OgTX+oGlC9NGjQwBgUTmAACym2YsSP1jdfXALzPy8afLqydUFg1sAYFtdXB3cNIn1s8EtMHOX6v2ZxAKAdfHJE2Dx3Lo6sTo6k1fMj29V+2fyCoDF98pq7+oro0Ngi12aJrHeXd1hcAsALBQHEIDFsmfT5NXTRofAGu+qHtr0RBIALIOzmyax/mZ0CKyxf9Ofzb1HhwDAonAAAVgcR1SnVfcY3AEzV1ZHVgdWPxjcAgAb7UdNk1gvzSQW8+OuTd8THJWf6QDAdfLJEmD+3app8urPqxsOboGZ86vHVcdk8gqA5XV107zjPtVXB7fAzGwS66TqNoNbAGCuOYAAzLeHVh+rnj46BNZ4T/WQ6gOjQwBgBzmr2qN6x+gQWOMp1XnVXqNDAGBeOYAAzK8jqjOr3xkdAlvMJq8OqL4/uAUAdrQLqic3TWL9fHALzNyt6T1sL6t2GtwCAHPHAQRg/tyyelMmr5gv51ePz+QVAKttNon1uOpbg1tgZpfq6KZJrFsPbgGAueIAAjBfHtI0eXXQ6BBY471Nc2ynjg4BgDnxoabPje8aHQJrPLVpEmvP0SEAMC8cQADmx2zy6ndHh8AWV1Uvr55YfW9wCwDMmx9UBzbNQ145uAVm7l6d1vS9BQCsPAcQgPFuVr26afLqRoNbYOY7TZNXR+WHOgDw21zdNA/5uOrbg1tg5oZN31ucWN1qcAsADOUAAjDWg6uzq0NHh8Aap1e7V+8fHQIAC+IDTZNY7xkdAms8vWkS6xGjQwBgFAcQgHEOb3rfx/1Gh8AWs8mrx+bFrgCwrb5fHZBJLObLPaoPZhILgBXlAAKw4920Or56RSavmB8XNL0486jqirEpALCwZpNYj6/OH9wCM7NJrDdlEguAFeMAArBjPahp8uqw0SGwxhnVbtXJo0MAYEmc2jSJ9d7RIbDGQdVHq4eMDgGAHcUBBGDH+eOmyav7jw6BLWaTV/tV3xibAgBL53vVE5s+1141uAVmfrc6M5NYAKwIBxCAzXeTpsmrV1U3HtwCMz9sejHmUZm8AoDNcmXT59rHV98ZmwLXuFHTJNarq5sNbgGATeUAArC5HpjJK+bPR5omr942OgQAVsT7q92r00eHwBqHNn2v8vujQwBgsziAAGye5zb9oPkBo0Ngi9mLWR9TfX1wCwCsmm9Vj80kFvPlfk3vBTl8dAgAbAYHEICNN5u8em1188EtMHNh9YzqyExeAcAoVzRNYj21umBsClzjRtUrmr6HuengFgDYUA4gABvrvk3TBiavmCcfbZq8esvoEACgqpOrh1ZnjA6BNQ5rmsR60OgQANgoDiAAG+eQ6pymHzTDvDiu2rf62ugQAOCXfLPaL5NYzJf7Vx+r/nh0CABsBAcQgO13w6ZHxl+XySvmx0XVQdUR1eWDWwCA32w2ifX06odjU+AaN65e1TSJdZPBLQCwXRxAALbPfaoP56WBzJfzqkdUJ44OAQC2ytuaniL+yOgQWGM2ifXA0SEAsF4OIADrd3DT5NXDRofAGsdVe1VfHB0CAGyTr1ePqY6prh7cAjMPqM6snjc6BADWwwEEYNvdoGny6oTqFoNbYOaS6tCmyavLBrcAAOtzRXVk9YzqwsEtMHOz6jWZxAJgATmAAGybe2fyivnzyWr3pm9MAYDF95amSayPjg6BNQ6rTq/uOzoEALaWAwjA1ntWdW718NEhsMZx1SOrz48OAQA21NeqfZs+18O82K1pBviQ0SEAsDUcQACu2w2qY6s3ZPKK+XFp9YJMXgHAMru86XP9QdVFg1tg5ubV65pmgW84uAUArpUDCMC1u1fTY94vqXYa3AIzn2qavHr16BAAYIc4sXpEdd7oEFjj8KZ54PuMDgGA38YBBOC3e1J1VrXH6BBY4y+bJq8+NzoEANihvljtlUks5svDmiaxDh4dAgC/iQMIwK+7ftPk1duqXQe3wMyl1QurF1U/HdwCAIxxWdMk1rOqHw1ugZlbVCc0TWLdYHALAPwSBxCAX3bPTF4xf/626Umk40eHAABz4U1Nk1ifHB0Ca8wmse49OgQAZhxAAH7hiU2TV48YHQJrvLbas/rs6BAAYK58oWkW0yQW8+Th1blNTykBwHAOIADTx8I/aZq8uu3gFpj5WfXPq0OrSwa3AADzaTaJ9Q+3/GeYB7NJrH+fp+oBGMwBBFh1d65Orf5jtfPgFpj5YtNvdP55dfXgFgBg/r2i2q361OgQ2OJ61curd1S3HtwCwApzAAFW2aOrj1WPGR0Ca7y1afLqvNEhAMBC+Vy1T/XG0SGwxgFNv3B2p9EhAKwmBxBgFe1cHV19oLrL4BaY+Wn1wupp1Q8HtwAAi+ni6uCmrykuHdwCMw+pzq4ePDoEgNXjAAKsmts2/Yb9y7JHy/z4RrV/dfzoEABgKRxf7Vt9ZXQIbHHn6t3V/UaHALBaHECAVfKE6jPVgaNDYI03VA+qPjw6BABYKh9v+s37144OgS3uVH2weuDoEABWhwMIsAp2qv5l9fbqdoNbYOaK6t9UhzTNVQAAbLRLqkOrl1Y/G9wCVbev3lnddXQIAKvBAQRYdnes3lf9P9X1B7fAzFeaXnR+dHX14BYAYLldXR1bPbL64uAWqLpb9Z7qNqNDAFh+DiDAMntkdWb12NEhsMZ7mo4fHx8dAgCslPOavj5+6+gQqB5QnVDtMjoEgOXmAAIso+tVR1VnVPcYmwLX+FnT/MQB1fcHtwAAq+nC6mnVC6ufDm6B/atjRkcAsNwcQIBlc6vqTdWfVjsPboGZ86s/bJqfMHkFAIx2fPW46hujQ1h5/7x60ugIAJaXAwiwTPapPlU9fXQIrHFy9eDqtMEdAABrfaR6UPWG0SGstJ2q/6/p3Y0AsOEcQIBlcWB1SnXX0SGwxVXVy5tmJi4Y3AIA8JtcXB1SHVldMbiF1bVr9d9HRwCwnBxAgGXx4epboyNgi+9WT2h6F82VY1MAAK7V1U3vYfiDfD3NOM/c8v8AYEM5gADL4qLq4Ory0SGsvNOq3ar3De4AANgWH2r6Gubdo0NYWf+luvHoCACWiwMIsEw+Xv1foyNYWVdV/6nav+ml5wAAi+b7TdOyf5KnWNnx7ln9y9ERACwXBxBg2fyP6vjREaycb1ePzQ8LAIDFN/uljj2rrw5uYfW8LC9EB2ADOYAAy+gfV58ZHcHKeHf10OqDo0MAADbQ2dUe1cmjQ1gpN63+zegIAJaHAwiwjC6tnl9dNjqEpTZ7YeiTm+YiAACWzQXV06qj8pQrO86LqtuPjgBgOTiAAMvqvOrvj45gaZ1f/UF1ZHXF4BYAgM10ZfXy6lHV341NYUXcuPpnoyMAWA4OIMAye131mtERLJ2PNG1inza4AwBgR/pY0xHktMEdrIbDqxuNjgBg8TmAAMvuj5ueBoHtdVXTbz8+uvr64BYAgBFmT8G+tPr54BaW2+2rZ42OAGDxOYAAy+6y6uDq4tEhLLTvVI/P/jUAwNXVsdX+1bcHt7Dc/t7oAAAWnwMIsAq+2PRbarAeH6v2qt4/OgQAYI58sHpE9aHRISyt/aq7jo4AYLE5gACr4n9XrxodwUKZTV7tnRd+AgD8Jt+q9q2OzFOybLzrZQYLgO3kAAKskpdU54yOYCF8t3pC0+TVFWNTAADm2tXVMU2TWOcPbmH5PGN0AACLzQEEWCWXVYdWl44OYa59vHpU9b7RIQAAC+S06pHVhwd3sFweVd1ydAQAi8sBBFg1n83L9PjNZpNXe1ZfGdwCALCIvlE9pulrqqsGt7Acdml6FwgArIsDCLCK3lj95egI5srF1XMzeQUAsL2ubPqa6hnVhWNTWBL7jg4AYHE5gACr6p82TR3Bh6sHVW8YHQIAsETeWt2/OmV0CAvvUaMDAFhcDiDAqrq8ek71o9EhDDN7Yee+TXMNAABsrO9VB2QSi+3z+01TWACwzRxAgFX25eofjo5giEuqQ6sjM3kFALCZZpNYz6ouGpvCgrpxdd/REQAsJgcQYNW9vjp2dAQ71JnVA6vXjg4BAFghJ1YPrs4YHcJCuv/oAAAWkwMIQP2rpvdAsPyOq/arvj64AwBgFX2z6Wsxk1hsq/uMDgBgMTmAANTPqxfmfSDL7NKm/42PaHr/CwAAY1zRNIl1SHXx2BQWyD1HBwCwmBxAACZfqp7f9GJslsvHmiavjh8dAgDANd5YPShPYrN17jg6AIDF5AAC8AsnV/91dAQb6rjqMdXXRocAAPBrvlHtWx2TX0Ti2t1+dAAAi8kBBOCX/d/VWaMj2G4/qf5BJq8AAObdFdWRTU9j/3hwC/PrVqMDAFhMDiAAv+zy6qDqB6NDWLdPVLtVfzU6BACArfa6pkmsM0eHMJduNDoAgMXkAALw675ZvSiP4S+i11T7VF8YHQIAwDb7evUH1WtHhzB3wBiS2QAAIABJREFUbjA6AIDF5AAC8JudVP356Ai22mXVi6tDq0sGtwAAsH6/X+09OoK54+dXAKyLTyAAv92/rj40OoLr9KnqodUrR4cAALBu16uOqs6o7jE2hTn009EBACwmBxCA3+6KpicKfjg6hN/qhKbJq8+PDgEAYN1uU51Y/Wm18+AW5tPlowMAWEwOIADX7uvVs6srR4fwSy6tXlgdUl08uAUAgPV7fPXZ6qmjQ5hrF44OAGAxOYAAXLf3V382OoJrfLravTp+dAgAAOs2m7x6Z3X7sSksgO+NDgBgMTmAAGydl1enj46gNzVNXn1udAgAAOt2m+qkTF6x9RxAAFgXBxCArXNF9azq/NEhK+onTZNXz6p+NLgFAID1m01ePWV0CAvlq6MDAFhMDiAAW++71fPyPpAd7TPVHpm8AgBYZDtn8or1+8LoAAAWkwMIwLY5rTpmdMQKeUvT5NVnRocAALBuJq/YXl8cHQDAYnIAAdh2/656z+iIJffTpsmrp1cXDm4BAGD9ntA0efXk0SEsrB/nCRAA1skBBGDbXVUdVn1rdMiS+lK1dyavAAAW2Wzy6h2ZvGL7fKLpezAA2GYOIADr873qj/KF+EZ7e7Vnde7oEAAA1m3XTF6xcc4eHQDA4nIAAVi/U5rmsNh+l1cvrp5SXTC4BQCA9XtC0/vbTF6xUd43OgCAxeUAArB9/qx66+iIBffl6lHVK0eHAACwbjtXR1fvyuQVG+fn1QdGRwCwuBxAALbP1dXh1fmjQxbUu5omr84ZHQIAwLrtWr2lelm10+AWlstHml6CDgDr4gACsP2+Wz2j+tnokAXys+ql1YHVDwa3AACwfrPJqyeNDmEpvXF0AACLzQEEYGN8tPoPoyMWxLebvlE+tukJGgAAFs9O1b+uTs7kFZvjqqYniwBg3RxAADbOf65OGh0x595U/V52fAEAFtmdqvdXx1S7DG5heZ1SfWN0BACLzQEEYONcXf396qujQ+bQz5smr55d/WhwCwAA6/eH1Seq/QZ3sPz+9+gAABafAwjAxrqwekF1xeiQOfKd6oBMXgEALLKdml5y/vbqdoNbWH4XZP4KgA3gAAKw8U6v/tXoiDnxjurBTRMJAAAspjs3fT13dCav2DH+e/XT0REALD4HEIDNcWzTCyFX1VXVf6yeWv1gcAsAAOu3T/XRTF6x41xe/c/REQAsBwcQgM1xdXVo9ZXRIQN8u3ps9e+rKwe3AACwPjs3PfHxwequg1tYLX/RNKMLANvNAQRg81xUPafpN5hWxbuqhzR9owwAwGK6c3VK0zs/dhrcwmq5uPpPoyMAWB4OIACb6+zq346O2AGurv6sekomrwAAFpnJK0Y6Lt9PALCBHEAANt9/rV47OmITnd80efVvqysGtwAAsD4mrxjtK9V/Hh0BwHJxAAHYMf5p9XejIzbBGdUjqw+MDgEAYN1uV709k1eM9a+qn46OAGC5OIAA7BgXVk9teb6gv7I6snp09Y3BLQAArN8B1d9u+SuM8vrqzaMjAFg+DiAAO86nqn8+OmIDfKd6fHVM07s/AABYPNevjq3e0fQECIzyzeofjY4AYDk5gADsWK+o3jQ6Yjt8tNqzOnV0CAAA63a76q3VSzJ5xVhXNx0/LhodAsBycgAB2PH+qPrs6IhtdFX18mrv6muDWwAAWD+TV8yT/9j0/hkA2BQOIAA73iXVodXlo0O20kXVM6ujmt79AQDA4rle9W+rt2XyivlwatMBBAA2jQMIwBjnVP9kdMRWOL16cHXS6BAAANbtzk0/bP5P1S6DW6Dq3Opp1RWjQwBYbg4gAOP8r+qE0RHX4r9V+ze9lBAAgMX0mOpjW/4K8+Bb1dOrH48OAWD5OYAAjPUPqs+MjvgVP6ye0vRSzEWZ6QIA4Jddvzq2Oq26y9gUuMb51X7V1wd3ALAiHEAAxrq0ekbz89tPH64emhcRAgAssjtXpzT9QstOg1tg5gfVE6ovjQ4BYHU4gACM94XqX4yOqP6ielz1jdEhAACs277VWZm8Yr58p/rD6tOjQwBYLQ4gAPPhVdVfDfpn/7DpBYT/uLpsUAMAANtnNnl1atMTIDAvzqseVp0zOgSA1eMAAjA/jqg+u4P/mZ+o9qreuoP/uQAAbJzbN02Ymrxi3ry76Snz80eHALCaHEAA5sclTU9iXLwD/llXV8dUuzdNcAEAsJieWP1t07sVYF5cVR3Z9Ofzh4NbAFhhDiAA8+WLTU+CbKZLqhc0fUNyxSb/swAA2BzXq/6kelt128EtsNZF1bObfuHq6sEtAKy4XUYHAPBr/k+1Z/XiTfh7f7R6TvW1Tfh7AwCwY9ylem1edM78Ob16bvXN0SEAUJ4AAZhXR7TxLwk8rto3xw8AgEX2xKaXSjt+ME+uql5ePTbHDwDmiAMIwHy6vOlJjR9twN/rouqgpqPK5Rvw9wMAYMe7fnVsdXImr5gv3216B81RmdgFYM44gADMry9VL9rOv8d51SOqE7c/BwCAQe5Sva96SbXT4BZY60PV7k1/PgFg7jiAAMy3N1b/7zr//x5X7dX0YnUAABbTgU2/1PLo0SGwxmzy6g8yeQXAHHMAAZh//6L6+Db89y+pDm2avLpsU4oAANhss8mrt2fyivnynUxeAbAgdhkdAMB1urx6ZtNL0W9zHf/dT1YHV5/f7CgAADbNPasTmqZMYZ58qHpu9a3RIQCwNTwBArAYvla9sLr6Wv47x1WPzPEDAGCRHVidleMH82U2efXYHD8AWCAOIACL4+1NMwi/6tLqBZm8AgBYZCavmFdrJ6+uHJsCANvGAQRgsfzr6sNr/u9PVbtXrx6TAwDABrhndXr1kmqnsSnwSz7U9P3G+0aHAMB6OIAALJafV4dUF1R/2TR59bmhRQAAbI8Dq7MzecV8MXkFwFLwEnSAxfONpsPHl0eHAACwbjtXf1L9uy3/GebFhdXfq94yOgQAtpcDCMBicvwAAFhc96pen6c+mD+nVIdW3x0dAgAbwQQWAAAA7DhPqs7K8YP5Mpu8OiDHDwCWiCdAAAAAYPNdv/ov1T/Li86ZL9+pnl+9f3QIAGw0BxAAAADYXPeqTqj2GB0Cv+K9TZNX3xsdAgD/f3t3H/P7Xd91/NkwmCDJiokazTKXDRScAm5KS1Ru/GuD3SnQc9qyAWV02UzsjInszy3+IcSoSZc4dc4l0w3a6dh04sA5GDh642i5Gc452LobiiA3ZdIxuSn+8ePaTq+ec3pd5/r9fp/P7/t9PJJvSPoPn17nr16vvJ9nFySwAAAAYHeOklfGD2ZylLz6howfACyYCxAAAADYvsdV/yjJK+YjeQXAahhAAAAAYLskr5iV5BUAqyKBBQAAANsjecWMJK8AWCUXIAAAAHB2klfM6kNtkldvGf0QANg3AwgAAACcjeQVs5K8AmDVJLAAAADgyr2oujfjB3P5fJJXAOACBAAAAK6A5BWzkrwCgC8ygAAAAMDpSF4xqzdX35arDwCoJLAAAADgNF6c5BXzOUpevSDjBwD8ARcgAAAA8Ogkr5iV5BUAXIIBBAAAAC7vq9okr/7y6IfAMZJXAHAZElgAAABwaS+u7sn4wVw+X31v9fUZPwDgklyAAAAAwCNJXjErySsAOCEDCAAAADyc5BWzkrwCgFOQwAIAAIA/9JIkr5iP5BUAXAEXIAAAACB5xbw+VN1QvXXwOwDg4BhAAAAAWDvJK2b1pjbJq/8z+iEAcIgksAAAAFizl1T3ZvxgLkfJq2/I+AEAV8wFCAAAAGskecWsJK8AYEsMIAAAAKyN5BWzkrwCgC2SwAIAAGBNJK+YkeQVAOyACxAAAADW4HHVD1Q3j34IHHN/dWOSVwCwdQYQAAAAlu6r2ySvvm70Q+AYySsA2CEJLAAAAJbsuuqejB/MRfIKAPbABQgAAABLJHnFrO6vbqh+YfRDAGDpDCAAAAAsjeQVs/rZ6ttz9QEAeyGBBQAAwJJIXjGjo+TVCzJ+AMDeuAABAABgCSSvmJXkFQAMYgABAADg0EleMSvJKwAYSAILAACAQ3YuySvm89nqe5K8AoChXIAAAABwiL60ujXJK+YjeQUAkzCAAAAAcGi+urq9+trRD4FjJK8AYCISWAAAABySo+SV8YOZSF4BwIRcgAAAAHAIJK+Y1f3V9dXbRj8EAHg4AwgAAACze3J1W64+mM9/bpO8+ujohwAAjySBBQAAwMzOVe/M+MFcjpJXL8z4AQDTcgECAADAjCSvmNUHqxuSvAKA6RlAAAAAmI3kFbOSvAKAAyKBBQAAwEzOJ3nFfCSvAOAAuQABAABgBo+v/kX1baMfAsdIXgHAgTKAAAAAMNqTq9urvzT6IXCM5BUAHDAJLAAAAEY6X92T8YO5SF4BwAK4AAEAAGAEyStmJXkFAAthAAEAAGDfJK+Y1Rurl+XqAwAWQQILAACAffqm6q6MH8zloeofVN+c8QMAFsMFCAAAAPvwhOqfJ3nFfO6rzlV3D34HALBlBhAAAAB2TfKKWUleAcCCSWABAACwS9dX92T8YC6frb6n+saMHwCwWC5AAAAA2AXJK2Z1X5JXALAKBhAAAAC27SnVbbn6YD6SVwCwIhJYAAAAbNP11TszfjAXySsAWCEXIAAAAGyD5BWzui/JKwBYJQMIAAAAZ/WU6vbqmaMfAsf8pzbJq4+NfggAsH8SWAAAAJzFUfLK+MFMjpJX35TxAwBWywUIAAAAV0Lyiln9RnU+ySsAWD0DCAAAAKf1NW2SV39+9EPgGMkrAOAPSGABAABwGjdUd2T8YC6SVwDAI7gAAQAA4CQkr5jVb1Tnqv8++iEAwFwMIAAAADwayStmJXkFAFySBBYAAACXI3nFjD6T5BUA8ChcgAAAAHAxklfMSvIKADgRAwgAAADHSV4xq5+pXp6rDwDgBCSwAAAAuNCN1Z0ZP5jLUfLqmzN+AAAn5AIEAACAkrxiXpJXAMAVMYAAAADwF9okr542+iFwzL+rvqP65OiHAACHRwILAABg3W6s7sj4wVyOklfXZfwAAK6QCxAAAIB1krxiVpJXAMBWGEAAAADWR/KKWUleAQBbI4EFAACwLpJXzEjyCgDYOhcgAAAA6/BHqx9M8or5/Hqb5NUvjX4IALAsBhAAAIDlk7xiVpJXAMDOSGABAAAs23dUd2f8YC6SVwDAzrkAAQAAWCbJK2YleQUA7IUBBAAAYHkkr5jVT1SvytUHALAHElgAAADLInnFjI6SV+cyfgAAe+ICBAAAYBkkr5iV5BUAMIQBBAAA4PD9xTbJq6eOfggc8xNtrpJ+d/RDAID1kcACAAA4bK+q7sr4wVwuTF4ZPwCAIVyAAAAAHCbJK2YleQUATMEAAgAAcHgkr5iV5BUAMA0JLAAAgMMiecWMPlN9Z3Vdxg8AYBIuQAAAAA6D5BWz+kCb5NU7Rz8EAOBCBhAAAID5SV4xq9vbXCW5+gAApiOBBQAAMLebk7xiPkfJq3MZPwCASbkAAQAAmJPkFbOSvAIADoIBBAAAYD6SV8xK8goAOBgSWAAAAHO5pbo74wdzkbwCAA6OCxAAAIA5SF4xK8krAOAgGUAAAADGe3p1W64+mM9t1c25+gAADpAEFgAAwFi3VHdl/GAu/69N8up8xg8A4EC5AAEAABjjidU/S/KK+Xyguq66Z/RDAADOwgACAACwf0+vbq/+3OiHwDGSVwDAYkhgAQAA7NdR8sr4wUwkrwCAxXEBAgAAsB9PrH6weunoh8Ax76/OJXkFACyMAQQAAGD3JK+YleQVALBYElgAAAC7JXnFjCSvAIDFcwECAACwG5JXzEryCgBYBQMIAADA9kleMavXt7n8cPUBACyeBBYAAMB2SV4xo09XL6uuz/gBAKyECxAAAIDtkLxiVpJXAMAqGUAAAADO7hnVbbn6YD6vr26u/u/ohwAA7JsEFgAAwNncUt2Z8YO5XJi8Mn4AAKvkAgQAAODKfFn1w9WLRj8Ejnl/dV117+iHAACM5AIEAADg9J5R3Z3xg/m8vvrajB8AAAYQAACAUzpKXv3Z0Q+BC0heAQAcI4EFAABwMpJXzEryCgDgIlyAAAAAPDrJK2b1uiSvAAAuygACAABweZJXzOj32iSvbkjyCgDgoiSwAAAALu4J1Q9UN41+CBzzm9W56q7RDwEAmJkBBAAA4JGeWd2Wqw/m87rqO3P1AQDwqCSwAAAAHu6W6o6MH8xF8goA4JRcgAAAAGxcXf1w9bdGPwSO+bU2ySt/0TkAwCm4AAEAANgkr+7O+MF8Xld9XcYPAIBTM4AAAABrd5S8esroh8AFJK8AAM5IAgsAAFgryStm9T+ql3zxfwEAuEIuQAAAgDWSvGJWP15dm/EDAODMDCAAAMDa3FLdmeQVczlKXt2Y5BUAwFZIYAEAAGtxdfWvq785+iFwzPuq63L1AQCwVS5AAACANXhWdW/GD+bz49WzM34AAGydAQQAAFi6W6q3VV85+B1wIckrAIAdk8ACAACWSvKKWUleAQDsgQsQAABgia6p3pXxg/n8WHVtxg8AgJ0zgAAAAEtzS/UL1Z8Z/RC4wFHy6qXVpwa/BQBgFSSwAACApZC8YlaSVwAAA7gAAQAAlkDyillJXgEADGIAAQAADp3kFTOSvAIAGEwCCwAAOFRPapO8+tbRD4FjfrlN8upXRj8EAGDNXIAAAACH6Jrq3owfzOfHqmdn/AAAGM4AAgAAHBrJK2YkeQUAMBkJLAAA4FBIXjErySsAgAm5AAEAAA7BtUleMad/VT0r4wcAwHQMIAAAwMyuapO8emuSV8zlwTbJq1dVnx78FgAALkICCwAAmJXkFbOSvAIAOAAuQAAAgBlJXjErySsAgANhAAEAAGYiecWsJK8AAA6MBBYAADCLJ1U/Un3L6IfAMZJXAAAHyAUIAAAwg2urd2X8YD4/lOQVAMBBMoAAAAAjXVW9unp79RWD3wIXOkpe3ZzkFQDAQZLAAgAARpG8YlbvbZO8+p+jHwIAwJVzAQIAAIzw7CSvmNMPVddk/AAAOHgGEAAAYJ+OkldvS/KKuUheAQAsjAQWAACwL0+q3pCrD+YjeQUAsEAGEAAAYF++L/8Nwnxur15V/e7ohwAAsF0SWAAAwL4YP5jJUfLqXMYPAIBF8h8gAAAArI3kFQDACrgAAQAAYE3+ZXVNxg8AgMVzAQIAAMAaPFh9d/Wjox8CAMB+GEAAAABYOskrAIAVksACAABgyW6tnpXxAwBgdVyAAAAAsEQPVt9V/ZvRDwEAYAwDCAAAAEvznupcrj4AAFZNAgsAAIAlubW6JuMHAMDquQABAABgCT5VfXeSVwAAfJEBBAAAgEP3nuq66ldHPwQAgHlIYAEAAHDIjpJXxg8AAB7GBQgAAACH6FPVd1X/dvRDAACYkwEEAACAQyN5BQDAo5LAAgAA4JBIXgEAcCIuQAAAADgEklcAAJyKAQQAAIDZSV4BAHBqElgAAADMTPIKAIAr4gIEAACAGUleAQBwJgYQAAAAZvPu6lyuPgAAOAMJLAAAAGZya3Vtxg8AAM7IBQgAAAAz+GT1yurfj34IAADLYAABAABgtHdX11X/a/RDAABYDgksAAAARjpKXhk/AADYKhcgAAAAjCB5BQDAThlAAAAA2DfJKwAAdk4CCwAAgH2SvAIAYC9cgAAAALAPn6xuqn5y9EMAAFgHAwgAAAC79q7qXK4+AADYIwksAAAAdulHq7+W8QMAgD1zAQIAAMAuPFC9MskrAAAGMYAAAACwbZJXAAAMJ4EFAADANt1aPTvjBwAAg7kAAQAAYBskrwAAmIoBBAAAgLN6V3Vd9WujHwIAAEcksAAAADiLW6trM34AADAZFyAAAABciQeqm6o3jH4IAABcjAEEAACA05K8AgBgehJYAAAAnIbkFQAAB8EFCAAAACcheQUAwEExgAAAAPBo7qrOV/cNfgcAAJyYBBYAAACXc2v13IwfAAAcGBcgAAAAXIzkFQAAB80AAgAAwHF3Veeq3xz9EAAAuFISWAAAAFzoKHll/AAA4KC5AAEAAKA2yatXVD81+iEAALANBhAAAAAkrwAAWBwJLAAAgHWTvAIAYJFcgAAAAKzTJ6qbkrwCAGChDCAAAADrc2d1PlcfAAAsmAQWAADAenyhTfLqeRk/AABYOBcgAAAA6yB5BQDAqhhAAAAAlk/yCgCA1ZHAAgAAWC7JKwAAVssFCAAAwDJ9onpF9dOjHwIAACMYQAAAAJZH8goAgNWTwAIAAFiOL1SvrZ6T8QMAgJVzAQIAALAMklcAAHABAwgAAMDhu7M6V/3W6IcAAMAsJLAAAAAO11Hy6q9n/AAAgIdxAQIAAHCYJK8AAOAyDCAAAACH547qfK4+AADgkiSwAAAADsdR8uo5GT8AAOCyXIAAAAAchk9UL6/+w+B3AADAQTCAAAAAzE/yCgAATkkCCwAAYF6SVwAAcIVcgAAAAMzp49UrkrwCAIArYgABAACYj+QVAACckQQWAADAPCSvAABgS1yAAAAAzEHyCgAAtsgAAgAAMN47qutz9QEAAFsjgQUAADDOQ9X3V8/N+AEAAFvlAgQAAGCMj1cvr/7j4HcAAMAiGUAAAAD27x3V+eq3Rz8EAACWSgILAABgfy5MXhk/AABgh1yAAAAA7IfkFQAA7JEBBAAAYPckrwAAYM8ksAAAAHZH8goAAAZxAQIAALAbklcAADCQAQQAAGD7frG6PlcfAAAwjAQWAADA9hwlr56X8QMAAIZyAQIAALAdH69eVv3M6IcAAAAGEAAAgG2QvAIAgMlIYAEAAFw5ySsAAJiUCxAAAIAr87Hq5UleAQDAlAwgAAAApyd5BQAAk5PAAgAAODnJKwAAOBAuQAAAAE5G8goAAA6IAQQAAODR/WJ1vvqd0Q8BAABORgILAADg0i5MXhk/AADggLgAAQAAuLgPVy+tfm70QwAAgNMzgAAAADzSf6uuz9UHAAAcLAksAACAP3SUvHp+xg8AADhoLkAAAAA2HqheWf3k6IcAAABnZwABAACQvAIAgMWRwAIAANZM8goAABbKBQgAALBWH65urP7r6IcAAADbZwABAADWSPIKAAAWTgILAABYE8krAABYCRcgAAAs2edHP4CpPFDdVL1h9EMAAIDdM4AAALBknx79AKbx9uqGXH0AAMBqSGABALBkvz/6AQx3lLz6Gxk/AABgVVyAAACwZAaQdftEm+TVT41+CAAAsH8GEAAAluwjox/AMG+vrq8+OPohAADAGBJYAAAsmeTR+hwlr56f8QMAAFbNBQgAAEvmF+Dr8r+rG6ufH/0QAABgPAMIAABL9tujH8De3FWdr+4b/A4AAGASElgAACzZJ6vfGv0IduooefVXM34AAAAXcAECAMDSvaf6itGPYCckrwAAgEtyAQIAwNK9d/QD2Imfq56Z8QMAALgEAwgAAEv3S6MfwFZ9ofon1QuqDw9+CwAAMLGrRj8AAAB27Orqo9VjRj+EM5O8AgAATswFCAAAS/dAdc/oR3Bm/6V6RsYPAADghAwgAACswVtGP4ArdpS8emH1kcFvAQAAAACAqfyVNr9I9x3W96Hq+Rf58wQAAAAAAL7oA43/hb7v5N+bqz9x0T9JAACAE5DAAgBgLX569AM4kS9U/zjJKwAAAAAAOJGnVQ81/rLBd+nv/iSvAAAAAADg1H6+8b/k9138k7wCAAAAAIAr9KLG/6Lf9/Dvc9X3VY+59B8bAAAAAABwOY+tfr3xv/T3bb6PVt942T8xAAAAAADgRL698b/499WbkrwCAAAAAICteUz1K40fANb6SV4BAAAAAMCOnG/8ELDGT/IKAAAAAAB27I2NHwTW9EleAQAAAADAHjy5+v3GDwNL/z5Xvbq66mR/LAAAANuhuwsAwFp9vPoj1XNGP2TBPladq35k9EMAAAAAAGBNvqS6s/FXEkv8JK8AAAAAAGCgr6k+3fjBYCnfQ9Vr24xLAAAAAADAQC9u84v70ePBoX/3V8873Y8eAAAAAADYpdc2fkA45O9nqz9+6p86AAAAAACwU1/S5u+tGD0kHNr3UPWaJK8AAAAAAGBaj6/e1vhR4VA+ySsAAAAAADgQX1bd0/hxYfZP8goAAAAAAA7Mn67e1/iRYcbvoeofJnkFAAAAAAAH6erqjsYPDjN9H6yee5YfKgAAAAAAMN6Tqrc0fniY4Xt79eVn+3ECAAAAAACzeEz1msYPEKO+z1Wvrq466w8SAAAAAACYz9+uPt34QWKf30eqr9/GDw8AAAAAAJjX06tfbvwwsY/vTW3+MngAAAAAAGAFHl/90zZpqNEjxS6+36v+TpJXAAAAAACwSs+q3t34wWKb35urp27zhwQAAAAAAByex1Z/t/po48eLs3wfqL51yz8bAAAAAADgwF1dvaZ6sPFjxmm+D7XJXX3p9n8kAAAAAADAUvyx6nur32n8uPFow8ffq56wmx8DAAAAAACwRI+tXly9sbn+svR3VNdXj9vdvzoAAAAAALAGX179/Tbjw+fb/+jxnur7q6fv+l8UAABgJleNfgAAAKzIn6peWD23el6bcWTbPla9tXpL9abq/Tv4/wAAAJieAQQAAMb5yuoZ1VOrp1VfVf3JNsPI5f5+js9WH6nurz5Yva/Npcd7q1+tHtrZiwEAAA6EAQQAAOb0xDZ/V8fVF/yzB6vPVA+0yVsBAAAAAAAAAAAAAAAAAAAAAAAAAAAAAAAAAAAAAAAAAAAAAAAAAAAAAAAAAAAAAAAAAAAAAAAAAAAAAAAAAAAAAAAAAAAAAAAAAAAAAAAAAAAAAAAAAAAAAAAAAAAAAAAAAAAAAAAAAAAAAAAAAAAAAAAAAAAAAAAAAAAAAAAAAAAAAAAAAAAAAAAAAAAAAAAAAAAAAAAAAAAAAAAAAAAAAAAAAAAAAAAAAAAAAAAAAAAAAAAAAAAAAAAAAADxLl9YAAAEIElEQVQAAAAAAAAAAAAAAAAAAAAAAAAAAAAAAAAAAAAAAAAAAAAAAAAAAAAAAAAAAAAAAAAAAAAAAAAAAAAAAAAAAAAAAAAAAAAAAAAAAAAAAAAAAAAAAAAAAAAAAAAAAAAAAAAAAAAAAAAAAAAAAAAAAAAAAAAAAAAAAAAAAAAAAAAAAAAAAAAAAAAAAAAAAAAAAAAAAAAAAAAAAAAAAAAAAAAAAAAAAAAAAAAAAAAAAAAAAAAAAAAAAAAAAAAAAAAAAAAAAAAAAAAAAAAAAAAAAAAAAAAAAAAAAAAAAAAAAAAAAAAAAAAAAAAAAAAAAAAAAAAAAAAAAAAAAAAAAAAAAAAAAAAAAAAAAAAAAAAAAAAAAAAAAAAAAAAAAAAAAAAAAAAAAAAAAAAAAAAAAAAAAAAAAAAAAAAAAAAAAAAAAAAAAAAAAAAAAAAAAAAAAAAAAAAAAAAAAAAAAAAAAAAAAAAAAAAAAAAAAAAAAAAAAAAAAAAAAAAAAAAAAAAAAAAAAAAAAAAAAAAAAAAAAAAAAAAAAAAAAAAAAAAAAAAAAAAAAAAAAAAAAAAAAAAAAAAAAAAAAAAAAAAAAAAAAAAAAAAAAAAAAAAAAAAAAAAAAAAAAAAAAAAAAAAAAAAAAAAAAAAAAAAAAAAAAAAAAAAAAAAAAAAAAAAAAAAAAAAAAAAAAAAAAAAAAAAAAAAAAAAAAAAAAAAAAAAAAAAAAAAAAAAAAAAAAAAAAAAAAAAAAAAAAAAAAAAAAAAAAAAAAAAAAAAAAAAAAAAAAAAAAAAAAAAAAAAAAAAAAAAAAAAAAAAAAAAAAAAAAAAAAAAAAAAAAAAAAAAAAAAAAAAAAAAAAAAAAAAAAAAAAAAAAAAAAAAAAAAAAAAAAAAAAAAAAAAAAAAAAAAAAAAAAAAAAAAAAAAAAAAAAAAAAAAAAAAAAAAAAAAAAAAAAAAAAAAAAAAAAAAAAAAAAAAAAAAAAAAAAAAAAAAAAAAAAAAAAAAAAAAAAAAAAAAAAAAAAAAAAAAAAAAAAAAAAAAAAAAAAAAAAAAAAAAAAAAAAAAAAAAAAAAAAAAAAAAAAAAAAAAAAAAAAAAAAAAAAAAAAAAAAAAAAAAAAAAAAAAAAAAAAAAAAAAAAAAAAAAAAAAAAAAAAAAAAAAAAAAAAAAAAAAAAAAAAAAAAAAAAAAAAAAAAAAAAAAAAAAAAAAAAAAAAAAAAAAAAAAAAAAAAAAAAAAAAAAAAAAAAAAAAAAAAAAAAAAAAAAAAAAAAAAAAAAAAAAAAAAAAAAAAAAAAAAAAAAAAAAAAAAAAAAAAAAAAAAAAAAAAAAAAAAAAAAAAAAAAAAAAAAAAAAAAAAAAAAAAAAAAAAAAAAAAAAAAAAAAAAAAAAAAAAAAAAAAAAAAAAAwDb9f1f/eod3roR4AAAAAElFTkSuQmCC;" vertex="1" parent="1">
          <mxGeometry x="723.13" y="617.4899999999999" width="23.73" height="23.73" as="geometry" />
        </mxCell>
        <mxCell id="H2W__GnyZfSHAvYUxblv-2" value="&lt;font color=&quot;#0000ff&quot;&gt;Sensing System&lt;/font&gt;" style="text;html=1;align=center;verticalAlign=middle;whiteSpace=wrap;rounded=0;" vertex="1" parent="1">
          <mxGeometry x="651.0400000000001" y="563.15" width="100" height="20" as="geometry" />
        </mxCell>
        <mxCell id="H2W__GnyZfSHAvYUxblv-3" value="" style="shape=image;aspect=fixed;image=data:image/png,iVBORw0KGgoAAAANSUhEUgAAAgAAAAIACAYAAAD0eNT6AAAABGdBTUEAALGPC/xhBQAAACBjSFJNAAB6JgAAgIQAAPoAAACA6AAAdTAAAOpgAAA6mAAAF3CculE8AAAACXBIWXMAARlIAAEZSAGkaX2xAAABWWlUWHRYTUw6Y29tLmFkb2JlLnhtcAAAAAAAPHg6eG1wbWV0YSB4bWxuczp4PSJhZG9iZTpuczptZXRhLyIgeDp4bXB0az0iWE1QIENvcmUgNS40LjAiPgogICA8cmRmOlJERiB4bWxuczpyZGY9Imh0dHA6Ly93d3cudzMub3JnLzE5OTkvMDIvMjItcmRmLXN5bnRheC1ucyMiPgogICAgICA8cmRmOkRlc2NyaXB0aW9uIHJkZjphYm91dD0iIgogICAgICAgICAgICB4bWxuczp0aWZmPSJodHRwOi8vbnMuYWRvYmUuY29tL3RpZmYvMS4wLyI+CiAgICAgICAgIDx0aWZmOk9yaWVudGF0aW9uPjE8L3RpZmY6T3JpZW50YXRpb24+CiAgICAgIDwvcmRmOkRlc2NyaXB0aW9uPgogICA8L3JkZjpSREY+CjwveDp4bXBtZXRhPgpMwidZAABAAElEQVR4AeydB7xdRbWHJ6GTEGroJfRm6BAIAULvCoKggIqi2LCgqE99PFF4qE9QQZQiXapSpSkEgUCQ3kKvCb2EAKG35K1v5azLyeUmOWWfs/c+5z+/37773HP2nvLN3rPWrFkzk5KCCIiACIiACIiACIiACIiACIiACIiACIiACIiACIiACIiACIiACIiACIiACIiACIiACIiACIiACIiACIiACIiACIiACIiACIiACIiACIiACIiACIiACIiACIiACIiACIiACIiACIiACIiACIiACIiACIiACIiACIiACIiACIiACIiACIiACIiACIiACIiACIiACIiACIiACIiACIiACIiACIiACIiACIiACIiACIiACIiACIiACIiACIiACIiACIiACIiACIiACIiACIiACIiACIiACIiACIiACIiACIiACIiACIiACIiACIiACIiACIiACIiACIiACIiACIiACIiACIiACIiACIiACIiACIiACIiACIiACIiACIiACIiACIiACIiACIiACIiACIiACIiACIiACIiACIiACIiACIiACIiACIiACIiACIiACIiACIiACIiACIiACGRMoF/G8Sm67iWgZ6l7614lbz+BKe1PUil2GgE12p1Wo7WXp7ru/fMhhxyS7rvvPv/80ksv+fn111/383LLLTe5Ouq///3v0/xvv6lBqgakzyLQWgL+XkYSn/nMZ/rHZ86PP/64/z/PPPP4ezl48GA/r7766lN4zyuh+p2t/hy/69zhBKZ5iDq8rN1UvJ56tZe9H0I9BPrIkSMn23e87C174S2NWeeaa65Zpgd80qRJs3/wwQc9eZzedfpeBLqFwKyzzjpl0KBB702vvAMHDvzAlO4Pp/d7Bt/3Q4mIdgKFoUpZiLYizhkkpyiKQECNcBFqofE8eP0h5K+99lrX+O1Mz7x377yvFPptv/32s7///vtzvvfeewtMmTJlnllmmWXQ5MmTB9nFA/v16zdf5cz/hIXst1nse+Ke3Y4F+NIC/89tx3wWx5TK7x5H5Tc7TRPI80J2TNNjmeYK/SMC3UWAd+IDO162oy8hy7syyY437BWL9+ZV+/8de98IvHrc+0Hl9w/69+/P/4RX7bs3Odvxhn0/6cMPP5xk59fffvvtiQsssMC7V1xxxbtcWEPob8q9p1/VkeC2vvJcQ3S6JG8CUgDyroH60u/R0isv4HQFvf0+p0W9kDUOy5jgXtoagcXt88J8Z8fgqoP/57BjVg67JvU+7Ptk93PqCfE/18bn+LH3//F9nGf2e1ynswh0EwHepRmF3r9Xv3t9/UZcvGu9D/v6fTuwJrxjx0uV40U7T7DjRYuL756z89McAwYMeOmSSy55276bthGwLwjWAelPBwSrQWVosM/rpl6tv0UiMOMnrkg57b68eN2EWc5eMHoI0wT7bZaJEycuZOb0lewlX9F+XNE0+6Xs89L2eYgdCPe57LvEQSMRjYF9/7HPfGeBl7f3wfe9n5Vp/rd4/X9Lwz5iCJjmZ+6vDjP8sfpCfRaBLiIwXcHJexvvFjz43IvL9P7nXet9eFtQiedjn0nLOg1+2DVYB16x44nKMd5+f8jSf9iueXTLLbd82RSAj3VErAMya5VCYLf2rTzwg0J+BNQQ58e+r5R7evh9Cfzhw4cvbGOF69mNQznsJeS8vB0DzHzvQp6XN15g+94/24kXlINGwhsDu8Zu9+rv/Qz0/t9uURABEegQAh9TFGgvrC3g+zhoAzD196+0ET0dCP5HObBhBK5laOFR++5ui+M+O99p7dCdV199dQw/2M9TQy+FoHce4jKd20xAjX2bgfeRXD97OWapaMvTOPnY90vay7aBvVjD7L6N7FjDPs+LsCfwIvLycljgXoQ8dRovsH30oHoOEjqLgAjUSqBHUFsbE/49fMQXyJUDO7tyQISmFNAWYS2408432vnW2Wab7WZTCF7g9whYLvms4YIgkt9ZgiEf9t7TJ+lqz96NN954HnthhtnLs7Udm9nL9Qkz3XvvHmFfEfi8lK4o2DW8hFGHcc6nREpVBESgmwi4cmBtUCgGlN19iGK4sdJm4bx4jx2jram6yqYl3mL+BG9xMUHKwFQOef2V0GgvefeirTbvjxgxYn4T+lvYe7SzHVvZS7IEPXz7HAI/zPfUFWY51Vl760ypiYAI1E4AxSCGG7EU9AuFoGIheBJFwD5fMsccc1w7atSo1yJqhgmsbYz2Lr7WuYUEJExaCDeiRsutzKnl4U72efaFF154cxPyn7NjO3tBFuElqbwg3sO376N3rzoKkDqLgAiUjUC1QuAWAjo4WAesvXvWlIHLre07x9q766JjVGUVmGZItGwFL0N+JVxaV0s+tm8PNQ+xm8s23XTTFe2B38f+39Me+pWrhH5ovYyNqU5aVyeKWQREIF8C3sGxLNDB6Y8yUOn44ER4jikGZ44ePfqJShZ9qLR6mDTfrHde6hI22ddpCP6eaXubbbbZ1pbM/nbsZF78c1bGxuJFkNDPvg4UowiIQPEJ9LSB1hnyoQKb0szMgkvMInCsKQKjK0WQItCiupQCkCHYyhiWC34+20P8GYv+AHu4h9Pbt4eb1PjjU2z4R0EEREAEup2AtZWTzQLAMWuVVeAq+/93ZkX9Z/BheEAWgaDR/HnqfLLm4+nqGHgo77///jRu3DjW2e9vD/M+BuR0e5C/aYJ/KevxExgKQOFSj7+rnxYVXgREoDcBE/S0jXSMpkRbae3n8vb/Pssss8wWyy677KvWvj5o7SxWg/7WzrL8OZ8VmiAgC0AT8OzW/ib8+4VGamP8e9pz/FN7cNcwJQBHl3BikaLVHGfdLQIi0H0EvNNk7SmdKtrTW619PdwE/0WgqFhce3ysug9P8yWWAtAYw2nG+W2MfxOL5hf2oOLZ74Lfzii1aLQKIiACIiACjRP4kPbU/KdCEbjU/v+puQiMJcqKIuDjq40n0Z13SgGos94rY1A+z3WTTTZZzEz8/2uC/kuM8Zs3qz+oEvx1QtXlIiACIjBzAj2KgDW17Hx4lFkF/veGG25g9cF+DAv0tS/BzKPt3iukANRe9717/d+0W39pWumC5tzHWBRKgUz9tfPUlSIgAiLQCAHM/rNY24tj9TPW4TrEhgVOJCJZA+rDKQWgBl6mVeJ0gpCfYg/YKqZ5/tkevs0r81cxPbGVroIIiIAIiEB7CNAef2jC32cNmCLA6oIHmDXgYfte1oAa60AKwExAVWuUNtZ/oF1+uI31z4kJyj5rOt9M+OlnERABEWghAV9EzdrkWU0JeMsUgp9cd911R5NeddvdwvRLHbUUgOlXX4/J3zbpWdx6/H+xYwf1+qcPTL+IgAiIQE4EPqiyBlxqn79qwwLPV5QAzRSYTqVIAegDTMXkj2aZbGrfJ+1hOtE0zMGVXr/m8ffBTF+JgAiIQM4EfFjAOmpYA14wB8H9rr/++sssT8g5Dm/Tc85joZKX01qv6kBjPPXUU9EYk5n8f2ne/ceaAjCgIvwZ65fS1IuZ/hUBERCBAhCgbe5vgv8Da7cH2bHX0ksv/cH48eNH2/dTKgu2oSQoVAhImFU9CjFmxBa99vCcgcnfNEnz+fNJ/ZrTX8VKH0VABESgwAR6Zgq8//77Zw8cOPBLV1xxxbvRxhc4323NmhSACu54MGy8f3UT/hfPNttsy5vwx9FPJv+2PpJKTAREQAQyIVA9JHCnxbibLR70RLT1maRQ8kjUqzWTPqYhcxj5wMb7d7Cx/v/YgfB/3+pWJv+SP+DKvgiIQNcSoIOLP8AH1qavbZ9vY2dW2nrafPu/6zvA3Q4gyj/FVvX7uvX8j+VVMYu/5vYDQkEEREAEOoOAzxKgKNa+f90sAcfbx572vzOKWH8putkJEOuHO4RYz//nNt5/hDmPQJCxIy3sAwkFERABEegMArT3tO39zRqwk+0wOMWcA6+rFK1HFnRGUWsvRVcOATDNzxDFNL9jTPgfYl7+KAN8181KUe1Pjq4UAREQgXIRoG2fTFtvSsAvrOP3x0r2fRv3chUlm9x2nbDrNcf/VBP+X7UhIjRDzEFdqRBl8ygpFhEQAREoPAE3+5u1d7K1/RvaNMEhZgm42PwCpiAbOBe+BBlmsKsUgF7C/xx7APbGQcR4wiHGgzLEq6hEQAREQAQKRoC2vp/pAB+aDFhnqaWWWtWUgPO6UQnoGqHXS/ifZxW/W0X4a7y/YG+nsiMCIiACbSLwgckCZgqcb46Bu5NmtaxoUx5yS6ZbFICeMX/z9j/L5vh/TsI/t2dOCYuACIhAkQi4EmC+AefYRkKfq2SsR2YUKaNZ56UbhgBQcnxcx+aAnmLK3ucl/LN+jBSfCIiACJSWgC8fbLJhDRsOWNaGAy6ykiAzOr6D3OkKQE8F4vFpFby/hH9pX1JlXAREQARaRSCUAHwCFjYl4HJLCPnRI0NalXCe8Xa017ut9kT5WOTnYBP+B5jw9/Wh8wSutEVABERABApJYBZkhMmKb7I2jOWQDYQ6WkZ2rAWA9Z4vv/zyD60iv2YVemRlnn/Ha3SFfK2UKREQAREoPgGXDywIZ+sEbG6WgBdsA6FbkSXjxo3ryK2EO9K8EZs92Jj/9vbMXW5LP/LoUYEdrc1RSAUREAEREIGmCLissG3gkykDO11//fWXhUxpKtYC3txxAjE29jGz/2om+M+tMPclIAvIX1kSAREQAREoFoH+Jju8x29KwLlmRR7KBkIoAcXKZvO56SgFgPmbf//73z+0iprPKu5C29xnHqvIWOineVqKQQREQAREoOMJmPxACfjAZMgAZMlGG220AEoAMqaTCt9JQwCUxW391vu/xOb672QOHWzpO1snVZjKIgIiIAIi0DYC75sP2Wzvv//+P20ogCFlQo+smfpvef92jDZjvX53aMR7syL86flL+Jf32VTORUAERCBvArMxddxkynYmWw4jM500M6AjLADhoGE9/x3NZHOpOW64JcBMN/3MjJP3A6T0RUAEREAESkjAREgyGeJCxGQL+wfsYpaAi0PmlLBI02S59BYAxmQYmxk2bNgiVrITqatKhUn4T1PV+kcEREAERKAeAhXZjywhcOtfNt5448U7xR+gEywAPh4zYsSIf5iZZmfMNVZJHeetWc9Dq2tFQAREQAQyJ/CBrQ8wq60pE/4AIT9La2YutQUAM4xVMSv9fVvCP/OHXRGKgAiIgAh8RADhz8ZB21mH8/v29ZTwPfvoknJ9Kq0CEKZ/c8xY0Uwzv7aKgXzHrmxYrsdKuRUBERCBjiQwC7LGfAMON9mzKkMBrD1T1pKGCaOM+XfTv/X+/2VmmW3QzKwQMv2XsSaVZxEQAREoDwEfCrDR5mtuuOGGLSzbIUdLNxRQSgtAmP5NA9uvIvzp/kv4l+cFUk5FQAREoKwEfCjAhp03t6GAb1khSjsUEJpLmSrCe/6szGQVcI9lfAkbAtA6/2WqQeVVBERABMpNYLINA7Ba4ESbGjh0zJgxz1px6FD7EsJlKVrpLADhdGGOGD+z3j/CH9N/Ycph+UmWtzTnnHMmmzdaludA+RQBERABEaidgC8VbG39AtbOH85t5gtQug51qSRUOP7ZPMzVjfe3p874K47jXwj/Z599Nl111VXp3XffTXPNNRdbS9b+WOlKERABERCBMhCYxWTQFLMEfNFk0ibsQ1M2h8CyaSwoLJPN8e8iE6qfKprj3xxzzJFGjRqVTjvttDR48OB05JFHpquvvjoNHTo0LbbYYgmFxdaULsODrTyKgAiIgAjMnMCHJouYGXCtrRC4uV3uQ9Qzv60YV5TGAlDRrBD+nzKTy6dMmDLWUijHP/NJ8FpdYYUV0vbbb5/+9re/uSVg+PDh6corr0yPPvpoQkngYIlJBREQAREQgVITQPijBIw0p/Q9rSRTymQFKIsU6tGqzOvyVht3WQ/oBrtQtvUBAwakf/7zn+nf//532nzzzXueaoYC7r333nTxxRenQw89NKEomMnIz++9914yJ5Kea/VBBERABESgVAQ+tE7pLNaO321WgHUs5zToPTKryCUphQUgHP+s9//Zogr/6kqO3j06CsKdHv+6666bzIch3X///emII45IL7/8slsHUADkJ1BNT59FQAREoFQEEP5YAda0Duo+5DxkVtFLUQYFoB+rLRlINKof4mhXloAiEDMBUAT4vOqqq6bvfOc76fLLL09nnXVWmn/++X144LXXXnNFIIYRylJG5VMEREAEup2AySXffM7a/INM+M9aJbMKjabwCoCNp3gerff/adOw1kHTMqKFMv3XUsPVigDXL7nkkulzn/tcOuOMM9Kll16a1lprLVcExo8f7xaD2WefXX4CtYDVNSIgAiKQMwET/P0rVoCh5p/2GbJTBitA4RUAm1rhA+SmYR2Qcx1nknwoAlgyOLAA7LjjjumYY45JN954I3NJfSbBLbfc4hYD1hOIIYVMMqBIREAEREAEWkbA2muXVRUrQMvSySLiQisAFW/KKeYwt7kJzpE2po79v3S9/74qCqHOEYrA3HPPnWx1w3TYYYelsWPHpl/84hfphRdecD8BfAnkJ9AXRX0nAiIgAoUhwIyAySarhtuMgG3IVdFnBBRaAYhqNUH5FTP/869v+Rffd8K5WhHAT4ByfuITn0gHHnhguuKKK9Ipp5ziqwoyjfD11193RYCVBhVEQAREQAQKRwAFgI7d/uRs9dVXL7TTGo51RQ0oJ5NtHGWIaVVjTVAONKjALGyeYxrgNddcw/iPzwAIk389kMNhMO5hxgDDA+edd146/fTT00orrZSWXnpptx6wsNBULHG1ziIgAiIgAjkRCBn1jrXLa9pugQ9bPlyW5ZSfGSZbWHO6CdBZxo0bN9mc5Q6wHu92pgQwE6Cw+YUyHvyPPfZY2nfffdOQIUNcMNPDrzfEPSHYGR5YeeWV07bbbusLDPH9mWeemV566aW0xBJLJBwGGSaI6+tNT9eLgAiIgAhkQoAG/wOTWbNbm/zqU089dU3IskxizziS+qVTxhmYTnTky1dUeu655+62XvTqBtN3X5rO9YX4GgvAv/71r9SsBaB3YUKwh2KAsGc9AaYSHn/88emJJ57whYVQFFh0CAuCggiIgAiIQC4EGAZgVsDDzz///Bq2Auy7lguXabnkZgaJFtIHIKb+PfPMM5uZ0FvdQLLhQiHzOgO2mf2E4OdAEUC44yfA/gI//vGPXdk4+eSTfQdCNiB666235CeQGXlFJAIiIAJ1E0D4owSstOiii27O3SHT6o6pxTcUWqgawD3L6PyHsCZEzz2rOiReY+LRoQgQlllmmfSlL30pnX/++X4st9xyPnPALCfuPMjwgIIIiIAIiEBbCYQz4GfbmmqdiU2VVHXe1OLL3VRiS+fOa1Pf7jeht7gJ0nCsaHHSzUUfQwDVewGEEhBKQXMpfPzu3vEzU+D2229PF110UTrqqKPSQgst5NYCFAeWHY7rPx6TvhEBERABEciIAFbrftZRe8FOq5oz4CsWr8u2jOLPJJrCOdUxb9LGt6csv/zyO5jQ+ooJLLq6hbZURE3QK19wwQXdOW/gwIFpgQUW8F44wh/By8HnLAPxRfzEy74DQ4YMSVtuuWXabbfdPA+XXHKJb0aEtYD1BMinFIEsa0FxiYAIiMA0BGjoJ5sFex7z2brNnAHvN2fAWXFsn+aqnP8prGA1AbVjxdxdKGAzqi+c8xD8t912mwvgL3zhC+ncc89NmOMR0tXm+6wFcLUigIBnRsKaa66Zfvazn/kUwuOOO84tAPgJvPPOO/ITmFFF6jcREAERaJ6ADwNYu78zUZkCUDhZlm13tHlg5GeKmf/ntiVw7zdwy5igLI0FgOIj2Fmoh7H3SZMmpZtvvjmtvfbaPjVw66239ul8oQiEEoDwbkVAEYi0iJ+VBUePHp3OPvvsdOGFF7JIRVpsscV8CiHrCSiIgAiIgAhkRsCHAaydf9aOVcaMGfO6xewyLrMUmoyoUEMAYf43E/ZwM518LwRkBVqTRW3P7WGOtw0hvBfOoj04MjJd709/+pP3wvEVYKggNvyJcmatCER8ET/WCYT+dtttl1BG8BewvRY8T4sssogrLigNCiIgAiIgAk0TcGFv7fAga4OvsWGAx0PGNR1zRhEUSgFYeOGFffEfW+XuK2bC3tSEUeEX/5lRPSB4UQQIK664Ylp22WWTOYOkI488MtnD4IoBTnrM3w9hjQCOzzOKu57fiI8jFAE2GCIvKAG77LKLD1swi+DBBx9Mpny53wL5iOvrSUvXioAIiIAI9BD40CzCTAt83tr8q0LG9fya84fW2J4bK1SPaWTEiBE3WK95YxtTL+XWvzMqPmPzDBFMmDAh3Xnnne4rsPfee6ctttjCp/TFvaEIZK0MED+CnSOGB/hsi1X49MGTTjop3XHHHWnDDTdM88wzj1sHplZD5ExnERABERCBWghY24ojYH9rQ2+1IYANKvf0yLpa4mjlNYVTAIYNG7akCckHTfANMHilmP7XSAUxLMAQwJtvvulOeiussILP52dr4FVXXdV/I96pCGzgyHrwrQgoGqEIED8Oi/gJ/PWvf02XXXaZb0yEnwCWDPkJtKIGFKcIiEAHEwgZ9o6VcXWzAD9uZ5zvCzHWWpghgJgiYSbo7Uw47oXmVAFlp84LCHaEKsIXPwHG53HM+8Mf/pBeffVV99LvPY0QClkrAhFfKBr0+tmNcIcddkhbbbVVeuONN9Lf/vY3z6v8BDrvOVSJREAEWkqgH7LMZNpsdr79ySefvMdknQ91tzTVGiMvjAJggr8/cyRt/H8/M5FvZD1TzP+FnaZYI9+aLkMRQACzsQ8r+d1zzz3uJ8B6/1gKUAQQzCGs6bUT4v+aEpnJRcTFEYoA6wWQF/wEPvWpT7lCctppp/m+A/gPsN4A+YjrZxK9fhYBERCBriRg7eqH1o4zDPCM+QFcsf766/djrZsiwGiNXbn+kvWMiWy88cbXmwIwwmB13Ph/rVjwEcBXIKYR2rTI9OUvf9l75DgThuAP4Rv/1xp/LdcRN0cMDyDsH3rooXTllVemE0880RcWkp9ALSR1jQiIQDcTsHa02g9gmLGIYYHclYBCKQCbbLLJYIP1iAm0ee0ckLr22UH40tNmhz/G5VEK2ABop5128uV9mT1AmIoqW4tANXSEfygCfP/00097fs4444x0xRVXpLXWWisNHjxYfgLV0PRZBERABKYSiPUA3jDZttL111//nH3d0+nNE1IhhgBibqQ5m21sppKvVoQ/XIqioORSRwj2cLyj57/UUkulq6++Ov3+9793Zz2GB1hPoB3TCAGAIoC1YdCgQa6A4CdgSluaOHFiuuCCC5wR0xpRFjQ8kMsjo0RFQASKRwA/AJSAOWy492rrQD0aMi/vrBZCAYi5kbZW/S5m/t7WhEfXmv+n90DgJ8CoCD1t2yfBp+3hMMiywwhb/ATmm2++lg4PIPwJKCYE/ARwYNxmm20SsxewUGAVYCaB+XL4TIapIzl+uf6IgAiIQLcS8PUArO0ca34AY0Lm5Q2jEE525hXpXm0GZ428gRQ9fSwCrOWPsMdL/+2333b/ADb/+e1vf+sOhAhdhDUHwjoEdlZl6x03Fojhw4en//3f/01jx45Nhx12mC90hLWCvKAoYK1QEAEREIEuJ/AJyh8yL28WRTCxx1hIfxMit5mgWNuExmQTMoVQTvKuoJmljzDGTwALAasMInC/973vuec+zoPMHiCEEsD1WYdQMqr9BMaPH5/YFhmLAGf8BBgeQIEhrwoiIAIi0EUE2BiImQBjbbbX2rYEO1bukH25YcheGtRfFIdgwmohW6L2MRNQrJvc9Q6A9WJEsMfeAghfVvZjO+A999zTx+kXXXTRnigZMqgW1j0/ZPChd9wvv/xyshWwfM8BlAGGL4YMGeLDFigDoZhkkLSiEAEREIGiEuhxBLQO0Aq2SdwLltHcFYDc7bKHHHJI/2uvvXaKjRmvYULpmxUoVGIRlBPyUZpA75/eNcMDOA0+//zz6eijj07XXXddz/f4CoTwD+GbpVUg4oq4GR5YeeWVfQMiNiEinHXWWfITKM1TpYyKgAhkRACZNrt1ki5+5plnngzZl1HcDUWTuwJgufZVkcwBcCsz/+9igqNrFgBqqMZquIleOIoAFgGc9AjHHXecz9+n182wALMHWG8AgR3COoR3DUnM9BLiqo6bvFgdu9/C7rvvnpZccsk0atQo3w+B2Q34CZDvyMtME9AFIiACIlAeAgh/XxDI2sUbzRHwTvs/9xUBizTOvnylZ1qINZLL81xNP6cIVJwECWw2xMI9J5xwQrKVqNIBBxzgc/iZwhfCmuu4J8sQcSPYiRtnwKFDh/p6Blgm2HyI31AG3nrrLVcEUEwUREAERKDDCOAHQJGWL0q5crcA7LvvvokhAOsF7mfCYQ0TEoz/F0kxKUpdNZUPhgc4WM+fjYfY+pf1BO6++24XzPPPP3+ad955XRkgoVAEEOBZhFAEIm7+Z6hi7bXXTjvvvLPPImCBoUsvvdSdGrFQ8LJEPrLIg+IQAREQgTwJWJsWSwKfb0vfk5Wpc6pzylTeCkA/hL+VvZ8pAAeZUFiKBt/O2UidnKAWOVn4MjwwYMAA9xN4/fXX0zHHHJMuv/xyn17IIj9469NTpxrCJJ9llURcETcbIbED4vbbb+9rCpC/c845xy0CKCwMH6C8KIiACIhAWQnQ3lnbx6JAb9kQwMlWDsytucq6XBOvFH6KzQCYuzIDYFGDoxkAbXzC6WUjYPENuPHGG105+MEPfuDTCNdZZx1XFMjO1Gqxp7UFulnvuMnLfffdly666CL3XXjhhRfSiBEjkj0jviyyrAJtfECUlAiIQFYEYibAi7Zo2vLW+X3DIkYG52YFyFsBwNQ/2camh1iP8wETLnNKAcjqWasvHgQ7igDhiSee8IMphHvssYcLX1u5qidCBDCKQ9YBRYAj4ubzY4895ssf4ytw6623pvXWW88VAX5TEAEREIESEQgF4F1bzG3122+//THLu8vAvMqQ6xCATYPwIQBbGOET1ujvXwUhb8WkKivd8zH8BJgqiJ+ATVVJRx11lM/jp1fOmD2+AiGgoyeelVWAeCKuUDLIC0L/k5/8ZNpggw18hcHXXntNKwt2z2OpkopAJxFAts1q7dsFzz777HjbE6B/nlsD56oA2Lr2XnibHjbcLAC7W6+OMZHsu5ad9Pi0oSwIX8bhMbmzngCKwbHHHuur+jGrAD8BnPRY+x+BHb3xEN5ZZDHiirjxE1h99dWTKYvp0EMP9emN5FFBBERABEpCAOHPTAD8AEaZ0/PYvPcEyHW+1UsvveQ9fWvsF6s0+JMNjBSAAjzN1AeCH4HPZ6YRohgcf/zx6Ze//GX62te+5isNMqUQy0CE6LnH/82eK8+F5wXHRJSO6hAKQvV3+iwCIiACRSRg7Zkvc2/nxYqQv0IIW2vEfZ1aO2tgtwhPheWBqogDoc4GRO+9915aZZVVEhsPjR492j32995773TmmWe6aZ6sVw8PZFmdoQiQF0Lkzf/RHxEQAREoAYGqNnGRImQ3VwVg5Ee7AAYMjf0X4amYQR7wBcAqwLbE7EZoVpy0zz77+BS+I488Mt17773eW0cRQGhLUM8Apn4SARHoVgIu80IG5gUhVwXAnAC9x29CYuGKZiQFIK8noc50GX9n5T52IsQigHPgQQcd1LPKHzsTvvnmm64ERO+9ziR0uQiIgAh0GgHG/ymTT6syGTjVpJlTKfNUABD2kOhvAmJwpacoBSCnB6HRZDHJYxGg/jbffHM/zj//fN+BcP/990+XXHJJmjBhglb0axSw7hMBEegYAtZOhgIw2AoVTvi5yb08FQCvVDOBzG4KwAL8o56iIynlHxSAd9991/0E2PJ3xx13TDfddJNP32Pzn3vuucfLxXUKIiACItCNBJBxtIF2XtBk37QezTkAyXUWAOW1pWjNijzHAhXBkJsmlAP7jkqSBzsWEmLxHta5/vznP+/rCLAJEfP5CVLyOqraVRgREIH6CISMY+rUnHa8U9/t2V6duwJgxZnXjjmyLZZiaxcBnP3wA6D3f80113iyLCW8yy67JJYSnnvuuduVFaUjAiIgAmUhMIf5UM1vmX3VDpSCXEyjeSoAUWgUgNlkGjYKJQps2UuPn1X5cPhjkZ4jjjgibbvttr6xD3P2CVGv6vmXqHKVVREQgZYRqLSJs9oZ2ZdryE0BMO/HxGGCYZCBmBUBEcIiVyJK/GMEom44sxAPwt2WsfQthXfYYQdfIXDTTTdNtqNjz704B3I9RyuDnplW0lXcIiACWROotKfIXlcAbDngfn//+9+zTqam+HJTAGy3N5cMBmMecmoNeS4mkJoo6SJfFhihzjz/l19+OeHhf/TRR6fprQQYCwJlhS4ej4iX/+O7rNJQPCIgAiLQYgLMAvBNgawt+2gJ1RYnOr3oc1MAIkMoADTqJlxQAHKflRD50tnmqFhPHzM/0/wY32es/0c/+pFvFfyJT3zC/4dTCGI02xDQWfGLuGNIgdUIFURABESgxARcAbD8e+c3lsTPozy5KQBRaBMY8yI4LMgCkMcT0EeamPkZ46enf/fdd/sufGwGxMp/TPGr1JfP7edz/N9HVA1/hbUBZSLifv7559P111+fzj77bM8PTocKIiACIlBCAigAtG0D8857bgpAVcHnqTTyUgCqoLT7I3VAb58z0/iefPLJtMcee6T/+Z//SSNGjEi2a1VPlkI4t6K3T4+feDn4TF5GjRqVTjzxxGT7Z/vMAnYpJA8KIiACIlBCAqEAuAUgz/znpgDY/P/wDhtUASAFIIcnAUGLaR/T+rXXXus5+P73v98zjW/AgAH+XZjiURBaIfhJhLg5yIvtkZ0uvPBC9zN49dVX0/Dhw31HQnr+Ev5eJfojAiJQTgKuAFjW3QJQJQvbXprcFIB55pknBL4mire92qeO7yP47eFLY8aMcdP+b37zG9/UZ7XVVvPxf7JVLfizzmbvuMnLbbfd5oL/j3/8o28zvOaaa7rCgeDHF0FBBERABEpOIJYDnotyVMnCthcrNwXAdpNzBcB6fLEIUFgE2g6hmxLEzI9D3XPPPZceeOCBtPXWW6fTTjstjRw5Mi299NI9KOhlR4+858uMPsQQAvETXnzxRV9L4KyzzkrsI7Dccsv5ngJcx+6DoShklLyiEQEREIHcCVi75gpAyMI8MpSbAhCFtUbeIcT/OmdPAEFLbx+BOnbs2DRx4sS03377JbbvHTZsWM8yvaQcwrkVZn4EOfFG3OPHj/fx/b/85S/p5ptvTmuttZab+RH677yT6wqZ2VeCYhQBERCBKgLWHuZu/c5NAbCV46aw+EGVBaAKjT5mQQBBi+BHmMYyvQcffLBv0DN06NC2TuMLa8KHH36YbA2IdPnll6djjjkmPfPMM2mjjTbqGd+XmT+LmlccIiACRSZQsWp659fkYAyHtz3LuSkArAJYCXNWYGgIIIg0eWYKH1P5XnnlFR/fX3vttV3YYu5fccUV3bRPEhXuPf83mew0t/eO29a9di9+HPt+//vf+7WbbLJJWnnllV1BkeCfBp/+EQER6FwCLuuqOr/dpwBY3UahNQSQwYNODzum8T3xxBNpnO3Gt+uuu6af/OQnCUG76KKL9qQSZn7uyTr0jnvChAnpxhtvTH/729/SmWeemZZZZhkf30dBwNv/gw8+yDoLik8EREAEykBg9rwzmZsFwAruCoAJArZEVGiQQJj5GTePaXzf/e53fbW+9dZbDw9Tj7m6Rx5j8A0m+bHbiJuDeCNuxvf//e9/u4Phddddl9ZYY4205ZZbulOfxvc/hlBfiIAIdB+BcICPznDbCeSlAND19EJXmUHaXvgyJxjL9L755ptu5qdnzTS+7bbbznfmi6VzqwV/1uWtjhtrAuP7zCy44oorfMiBxYRwMkTwM42PYQAFERABEeh2ApVOUygA4OiRie1kk5cCEGVkPuTsmI3tMBmSvUk6EuqUcyzT+8ILL/hiOZtvvnk69dRT00ibxocSEKFaOMd3WZ17x41gv+uuu9JFF12Ufvvb33oyrB7IssH09lFSFERABERABNz3KmTdbMYjF8Ef9ZC7AmAZAYLCDAigGOHNj+CN3fi++MUvpl//+te+Qt6CCy7Yc3fvMfieHzL40Dtu9gpgfP+8885Lp59+elp88cVdESGfGt/PALiiEAER6GQCuSsAeXW5XeuxXuus5v19q5mr1zLzMSYA7QZY9bjH+D7mcwQt4ac//WnaeeedfUx97rmnTiPt3SOviiKTjyH4I7KnnnoqjR49Op1yyinp6quv9iEH9grAoQ9fBAUREAEREIG+CVh7PdlkXn+TeXfPNddc65nvFp7QuVgCcrUAsAayTVlzT0iZ/z96WGIaH2vgI/jZepc58+zGt9JKK/VM22ul4CdujnDsQwl48MEH05VXXpnYGfDhhx9O66+/vubvf1Rt+iQCIiACMyVQJetmy3MfADKaqwJg48P9Bg4cqF6/VQQPBeP7CFx62OyC98lPfjL913/9l0/jW2yxxXoeLIQx11c9SD2/NfuhWqkgfqwPjO9ffPHF6Ve/+pVHv/HGG6clllhCjn3Nwtb9IiAC3UygPzIwTwC5KgAmXPrZNLWu9gFAyLK9LaZz9rtHAH/jG99Iu+++e1p33XXTvPPO689H7x551g9NteAnbqwPt956q8/fZyvehRZaKG222WaeLOP7Wrgn6xpQfCIgAl1GYHZzkM61A5yrArDkkkv2M0GSqwaU1wPHND0c+9544w1fptdYpF/+8pc+vr/qqqv6oj7krVowt6LHH+P7Efezzz7r4/vMLPjXv/7lQw7MNGB8H2uAggiIgAiIQDYEhgwZ4ou2ZRNb/bHkqgBgAbAszx5Crv7sl++OmMbHDnisiU+v+qSTTvK58tXT+Fpt5od5jO/z+ZFHHklXXXWV+xow1o/1YYsttnBvfvX2y/ecKcciIALFJVCRebNXZGBuGc1VATBTcj8TiGEBiHNuMFqVML1rlukl4DzHVrxf+MIX0uGHH+7T+DCvR4geOcI56xCKFvnhoEfP7oD/+Mc/0qGHHurJDR8+3Jfq5Tct3JN1DSg+ERABEXCPf9rgfsjAPHnkqgBUCh7LIHLOFUbWFYEQZ3yfxXBYDpfwox/9yJ372KCnr2l8rRb85OG1115Lt912Wzr33HMTW/HON998adNNN3WLAIJfPX4oKYiACIhASwiErAvZ15JEaom0CApAdHU7QvjTy2YaH+P7CFqm8dnWx74D3jbbbJNWWWUVF7RUTnWPvJbKqveasCbQ2yc8//zz7mh4xhlneK+fnQEZ32cJXxz7FERABERABFpOIGRdyL6WJzi9BHJVAKxn3N+GADpmFgACHec+tuG9//7704477pjOOeccn8bHKnkR2jm+T5qM77NgzwknnJDuvPPOhPUBwc/MA/X2o1Z0FgEREIG2EpgNGdjWFHsllqsC0Csvpf+Xnv+kSZN8A5yjjz7aHekwrxNQDjjC8S7rwlZbE+jx06NnYx7G95ldgBf/Rhtt1DO+L8GfdQ0oPhEQAREoFwEpABnWly3r6Dvz/eEPf3APeqLuLZgzTM6jqo6fL2xlKR/fv/DCC9Mf//hHX1wIxz4UD43vZ01f8YmACIhAeQkURgEIQVZelB8J+3DkY2ydIYFWhN7j+xMmTHBHw7POOitdcMEFaciQIWnkyJHssujWAPhiGegEzq3gqThFQAREoF0Ewi9r8ODB7Uqyz3RyVQDMPN7PTNO55qFPKk1+GUI2KrnJ6HpuJ16O6mGE8ePHp1GjRqWTTz7ZHQ7XWGMNF/x9je9Hvnoi1AcREAEREIG2E6Atts7ZbNZOh0Ng2/NAgrkKXxP+FD7XPLSCeisEP/kkXg4sCywidNlllyWGG1hUaIMNNvDxfaYcany/FbWqOEVABEQgOwLWlvevyMDsIq0zpiII39znQtbJrG2XR489FApbNzrdcccdbuJH8BNGjBiRVlttNV9rQAv3tK1qlJAIiIAIlJ5AERSA0kPMugB9je+PGTPGN+ZhjJ99A1hCGAUBb3/M/QoiIAIiIAIiUA8BKQD10GrhtQhzjt7j+8zfZ2MedgpkQaGYv4+pX0EEREAEREAEGiUgBaBRchndV23mj/F9FhFiJz7WEnjqqafS+uuv3zN/X2b+jMArGhEQARHocgJSAHJ6AKoFP1lAsN91113poosuSr/97W89VxtvvHFafvnlNb6fUx0pWREQARHoZAJSANpcu73H91k2OMb3//rXv6ZFFllkmvF9VvBTEAEREAEREIGsCUgByJrodOILwR+LBGHaHz16tI/vM49/1VVX1fj+dNjpaxEQAREQgewJSAHInmlPjJj5qwU/nx988MF05ZVXpmOOOSY99thjvl8Ajn0s06vx/R50+iACIiACItBiAlIAWgAYQU+IZYAR7mPHjk2sz3/44Yf7b6zPv9RSS0nwOw39EQEREAERaDcBKQAZEo8Fe+aYYw6PdeLEien222/3+fsnnnhimnfeeacZ39eKfRnCV1QiIAIiIAJ1EchdAQhv+DjXlfuCXcyiPIRHHnkk4dz3m9/8Jt1www3uyc/GPDj0SegXrNKUHREQARHIgQAyLzqNOSTvSea1EQHpThk2bNggg/CUQeDMksB55ScT/hRhttlmS48//nh6/vnn09prr+29fhQDefNngliRiIAIiEDZCUwxmdfP5MUkOy118803T7ICuUxsd8FytwC0u8CtTM8q05flXW655dIqq6yi+futhK24RUAEREAEmiIgBaApfB+/GSWA3r56/B9no29EQAREQASKQ6B/cbKinIiACIiACIiACLSLgBSAdpFWOiIgAiIgAiJQIAJSAApUGcqKCIiACIiACLSLgBSAdpFWOiIgAiIgAiJQIAJSAApUGcqKCIiACIiACLSLgGYBtIu00mkLATZbig2X2pJglyTC8taxxHWXFFnFFIGOJyAFoOOruHsKyBTMN998M02aNMn3YZi6tlT3lL8VJYXphx9+mAYNGpTmnnvuJKatoKw4RSAfAlIA8uGuVDMmgKB655130korrZQWXnhhF1p8p9AcAQQ+m1q9+OKL6dFHH01zzjmnlIDmkOpuESgMgdwVgOhRxLkwZJSRUhEYMGBAsiU10xFHHJG22mqrxPLLGgpovgox+88+++xp1KhRaeutt05sXf3GG280H7FiEIEuJ4DMy7uTkrsC0OXPgIqfEYF4kWaddeojzZ4M8V1GSXRlNKGYB1cx7crHQIXuUAKaBdChFdttxQpB1fvcbRyyLm9vnvF/1ukoPhEQgfYTkALQfuZKUQREQAREQARyJyAFIPcqUAZEQAREQAREoP0EpAC0n7lSFAEREAEREIHcCcgJMPcqUAayJBBj1Fq0JhuqcGQ2RXDNJlbFIgIiUAQCUgCKUAvKQ9MEwjudeeqE8FpvOuIujyCmUgbX4NzlWFR8EegIAlIAOqIaVQjm/RNuueUWP7MokISVo2jqDz1/hH9wDc5NRaqbRUAECkFACkAhqkGZaJYAAn/48OHpwAMPbDYq3T8dAvCVYjUdOPpaBEpIQApACStNWf44AXr79E5HjBjhK9fRc5UF4OOc6v0mOMJWwr9eerpeBIpNQApAsetHuauDAAL/3Xff9aOO23RpjQSkUNUISpeJQEkI5K4AhHdxnEvCTdkUAREQAREQgYYJFEHmaR2AhqtPN4qACIiACIhAeQlIAShv3SnnIiACIiACItAwASkADaPTjSIgAiIgAiJQXgJSAMpbd8q5CIiACIiACDRMQApAw+h0owiIgAiIgAiUl4AUgPLWnXIuAiIgAiIgAg0TkALQMDrdKAIiIAIiIALlJSAFoLx1p5yLgAiIgAiIQMMEpAA0jE43ioAIiIAIiEB5CUgBKG/dKeciIAIiIAIi0DCB3JcCJucsiViEZREbpqgbRUAEREAERKBkBHK3AEjwl+yJUXZFQAREQASaJlAE2Ze7AtA0RUUgAiIgAiIgAiJQNwEpAHUj0w0iIAIiIAIiUH4CUgDKX4cqgQiIgAiIgAjUTUAKQN3IdIMIiIAIiIAIlJ+AFIDy16FKIAIiIAIiIAJ1E5ACUDcy3SACIiACIiAC5ScgBaD8dagSiIAIiIAIiEDdBHJfCCjmQsa57hLoBhEQAREQAREoGYEiyDxZAEr20Ci7IiACIiACIpAFASkAWVBUHCIgAiIgAiJQMgJSAEpWYcquCIiACIiACGRBQApAFhQVhwiIgAiIgAiUjIAUgJJVmLIrAiIgAiIgAlkQkAKQBUXFIQIiIAIiIAIlIyAFoGQVpuyKgAiIgAiIQBYEpABkQVFxiIAIiIAIiEDJCEgBKFmFKbsiIAIiIAIikAUBKQBZUFQcIiACIiACIlAyArkvBQwvlkQswrKIJas7ZVcEREAEREAEGiaQuwVAgr/hutONIiACIiACJSVQBNmXuwJQ0rpTtkVABERABESg1ASkAJS6+pR5ERABERABEWiMgBSAxrjpLhEQAREQAREoNQEpAKWuPmVeBERABERABBojIAWgMW66SwREQAREQARKTUAKQKmrT5kXAREQAREQgcYISAFojJvuEgEREAEREIFSE5ACUOrqU+ZFQAREQAREoDECUgAa46a7REAEREAERKDUBKQAlLr6lHkREAEREAERaIxA7nsBxHKIcW6sGLpLBERABERABMpDoAgyTxaA8jwvyqkIiIAIiIAIZEZACkBmKBWRCIiACIiACJSHgBSA8tSVcioCIiACIiACmRGQApAZSkUkAiIgAiIgAuUhIAWgPHWlnIqACIiACIhAZgSkAGSGUhGJgAiIgAiIQHkISAEoT10ppyIgAiIgAiKQGQEpAJmhVEQiIAIiIAIiUB4CUgDKU1fKqQiIgAiIgAhkRkAKQGYoFZEIiIAIiIAIlIeAlgIuT10ppyIgAiIgAh1CQEsBd0hFqhgiIAIiIAIiUDYCGgIoW40pvyIgAiIgAiKQAQEpABlAVBQiIAIiIAIiUDYCUgDKVmPKrwiIgAiIgAhkQEAKQAYQFYUIiIAIiIAIlI2AFICy1ZjyKwIiIAIiIAIZEJACkAFERSECIiACIiACZSMgBaBsNab8ioAIiIAIiEAGBKQAZABRUYiACIiACIhA2QhIAShbjSm/IiACIiACIpABgdyXAqYMLIlYhGURM+CpKERABERABESgFARytQC8/PLLafLkyaUApUyKgAiIgAiIQFYEkH3IwDxDrgrAggsumGfZlbYIiIAIiIAI5EYgbxmYqwKQG3UlLAIiIAIiIAJdTkAKQJc/ACq+CIiACIhAdxKQAtCd9a5Si4AIiIAIdDkBKQBd/gCo+CIgAiIgAt1JQApAd9a7Si0CIiACItDlBKQAdPkDoOKLgAiIgAh0JwEpAN1Z7yq1CIiACIhAlxPIXQHo3z/3LHT5I6Dii4AIiIAItJtAEWRfrksBswrSXHPNlfr166elgNv99Ck9ERABERCB3Aiw/H1XrwQIee0BkNvzp4RFQAREQARyIlAE2Ze7/Z3ev4IIiIAIiIAIdBOBIsi+3BWAbqpwlVUEREAEREAEikJACkBRakL5EAEREAEREIE2EpAC0EbYSkoEREAEREAEikJACkBRakL5EAEREAEREIE2EpAC0EbYSkoEREAEREAEikJACkBRakL5EAEREAEREIE2EpAC0EbYSkoEREAEREAEikJACkBRakL5EAEREAEREIE2EshdASjCakht5K2kREAEREAERKAQq+DmuhdAPAMoAVIEgobOIiACIiACItB6ArlbAFpfRKUgAiIgAiIgAiLQm4AUgN5E9L8IiIAIiIAIdAEBKQBdUMkqogiIgAiIgAj0JiAFoDcR/S8CIiACIiACXUBACkAXVLKKKAIiIAIiIAK9CUgB6E1E/4uACIiACIhAFxCQAtAFlawiioAIiIAIiEBvAlIAehPR/yIgAiIgAiLQBQSkAHRBJauIIiACIiACItCbgBSA3kT0vwiIgAiIgAh0AYHclwKOJYDj3AXMVUQREAEREIEuJ1AEmScLQJc/hCq+CIiACIhAdxKQAtCd9a5Si4AIiIAIdDmB3IcAupx/qYvfr1+/VH1QGP6PM5/79+/vOz1i7oqD38P8Fd/F2W/Wn5oIBN9q5tzI/3Hwf7CtZj6j7/lNQQREoPMJSAHo/DrOpIQhbBDos802W5p11lnThx9+mN5666308ssvpw8++CC9//776Z133klvv/32dNMkngEDBqQ55pgjzTLLLH6eZ5550pxzzunxEj/xEh/nyZMn9wiw6Uba4T+EMIcN3GeffXbnAutXXnnFmcOK/998880Z0ph77rmdNfFwDBo0KM0111zOnvqAN/XIOY5QHGYYsX4UAREoHQEpAKWrsvZlGMGDkEA4I5AR9E899ZR/jlwsu+yyad1113VBjmBCmHA9goYDYY9weuONN1wxQGFAUL377rvpvffecwXiiSeeSHfccUdE2XOeb7750uDBg9O8887rAgrBVC2cei7swA+wRyDDkoCgf/bZZ51jFJe62XLLLdPAgQNdKeBa+HPAnu8JwR7FjAP+sKcOqM8777wzouw5U2+wX2CBBbxuQ8GjLsOi0HNxgT6QN7igYNYTuA/mcOEZ43MnhVC4o5y1lo3reV44K3QeASkAnVenTZWoWugjrO+6666e+LbYYou09dZbpzXWWCOttNJKiZ77wgsvnBZZZBEXVlzI/b0Pvq/uyVc3JjS2EydOdAFH75XG5umnn04PPvigCyeUgxtvvJEoPKAULLbYYt5z5QuEWCf1VBH6CHC4jB8/3pUuyjls2LC00UYbpVVXXTUNHTo0wWH++edPSyyxhAt/rgmhxRlrQfwP7+DPdcGf71As4I+SAMsXXnjB2Y8bN875X3311dziASGy1FJLebrkE2GJYlAdd1ybx5lyka8JEya4stRIHrCIDBkyxMsV/BqJp0j3UI6+FOxa87jKKqu4UhXPTa336briE8hLzSXdKSussMIga1Sesgd0kD1cqJh55af4NdXiHNJIRG/z/vvv9545Pe+99947bbXVVmmZZZbxhpFeJT0sBEwEqq6vxqH6u+k1pnzf12/R03/ttdfSk08+6UJq7NixrpDcc889iSPC8ssvnxZccEGPByEWQwfxexnOCFe4Pvfccy54yfNee+2Vtt9++2TvifOnN841CLkItbDn2r4YT499DL+gAAb7hx9+ON12223pgQceSGPGjInk09JLL+2WAoaFYB8KQc8FbfwQwn/kyJFp4403dsWE5Psqe+9swRG2KLx/+9vfvFyUpeyBsmP14VlafPHFa1Zs4ME7znt4zjnnuKJIHVe/02Vnk2P+p1i99DOWk+ydWerRRx+dZHlxmdjuPOUlcKUAtLumZ5AePU56cdFL2G+//dJOO+3kPf0ll1yyp4dJFNHb40yggeFoNESDEueIMxSMOPM9gp1G+cUXX3QrAT1krAM02tdff71nAdM3CgEmbAQSDVh13H5Rgf4wbILgufXWWz1XO++8c9p99919WGVZG16hPBH6Ys9vzfKv5hP1ybmaPdfA8tVXX3XLBIrKTTfd5MMH//znPyOLid4i1gmuxUIQz0nPBS38ACs4HnPMMelb3/pWT9q18CGfKBAXXnhh+vSnP5023HDD9Prrr7cwt62PmnKHUnPfffel1VZbzd+h6nqdXi6ob67jHdpjjz2cK0NCvIMKTRMojAKQ+xBAND5xbhqtIqiJALzpdaLVh/D51a9+lbbbbjtvxMMaQMOI0OX6EA4kUEsjUktGonGOc9wTz0OkHWmSX8zQHJjEd9ttNxdKDBU866mlQQAAQABJREFU8sgj6d///ne69NJLXUngHgQSDXvEF/HnfSZPCKybb77Zs/L9738/7brrrq50YYYmtJo9aVTXKf9HgFdv9ggThnw4CDvssIM7HcJ+nA0ZXHfddenaa691xYDfV1xxRVce28U+0uEMOw5C72fLv+z1h2urnxPiiPh6XVqqf6MMcQ4mMytE9fV8rj5mdq9+r41AMK7t6tZclbsC0JpiKdYZEaBBxJSPqZ+x31/84hfps5/9rDfY/EYjQeNPCAFRSyM6ozQb/S3Sj/t5aUIw8RuNNj0Tjg022MB7zz/72c/SQw895MrAlVde6b1RFJYivHDkAfaMvTOk8fWvfz19+ctfTmuttZYrY9XlI8+9yx8c2nHunXZ13uI3lBXyzrHjjjuml156yRUxLDMXXXSRK2cxa6Edee6dBvlUaJ5AEd6d5kuhGHoTkALQm0gH/89LHCbnW265xcf3v/e976V11lnHe/Qxdh6Cp6goQviQv95CCQvBcsst5wfj55jUN9tsMy8j5sw8GzK40uuHPSbmP/3pT2nTTTd13wuULszmUbaiCq7IXzwbPDMw5XuUMcaZOWCO/wiKJUoBFqVae58RdzPn3vmcWVxF5T2zfNf7e63lrJdfvfnQ9cUgIAWgGPXQ8lzQSCN88PjGZHv66ae7yZneKI04wgcBxVG2UN1YhUKAsEHZwTmQkKfgJ23yQkD4H3744d7rZ/ZECP5OYk95Y7hgoYUW8ucNPxMFERCBYhGQAlCs+mhJbmiQEfSM9dPbP++88/zM92UW/NODVa0QxFDG9K5t9fcwRvhNmjQpmbev+ycwdk4eo8dfRqVretwoVwTYo1x2UvmibDqLQCcQkALQCbU4gzIggJivT8/zU5/6VDr66KOnmeLU6Y1ztUCaAaaW/BTCn1kLeMTffvvtrniF2VzsW4JdkYqACNRIQApAjaDKeBkCiJ4/wn+fffZJRxxxhC/aE73+VpWJdCNUf+a73gK59/9xX9nPIfxZWIfx76uuuspnJESvv1Xl7s279/+90+39f9m5K/8iIAK1E5ACUDurUl1Jw89ceMz+e+65Z/rd737nnvJZCn/SCAFDbxZhEketsCIOzuEkVm8ctabVrusoC1Ms8fTHMe6yyy5LK6+8cs9wSxb5CG7ElQX7iC8UgjhnkVfFIQIiUEwCUgCKWS9N5YrGnF4nc7NH2qpoWQr/EBQIHRy9IoQjIeO+sd4/y/rGuvN8z/UIRg7GxeNASOK9zxEBZYC0OJdNIaA85BtnSxYpykr4T48936PYUQes+hb8mfUQiyGRp2DPs8GBUyjMqZfqugzuoZB1+lBFPHM6i0C3EfioBe+2kndweWnsEQis2nbcccf5tKxme/4Ig2qhj7DBvI2QY4ybefc4ubFCHD1f0uYzGwj1Dni/c7CWPf4JrGfPGvfsL8B3rPXPYjN4zodSQPocCKeiCyQUGywvmP3XXHPNpnv+lJkQQpr/YRzs4c5Svc8884zP8oA9dcLmQb0DyzvDG87M4aceWLCHVeJYSwHuTONDWQj2pBd+C2VTxnqXX/+LgAh8REAKwEcsOuZTzDX/17/+1XTvk8afRh9hwGeE+r333uurvrHITqwiGPAWXXRR71kivBEkrNiHQoLQRoAjSLAG0DNlnXksBKzcVx1YvY8Nh9Zff30XoCztW70kcVGVAfiEw+Wf//xn30OB8jaqsBAfIQQ/UzhZi/8///lPYvnd6o16uA4BzrAPwpt9AxDmpM1BXHCDPcfzzz+fxpmFCAWNOohAHKywyMI+8GdNhSFDhnidcg3xSBkIWt1z1pBQZ9Z17gpANHJx7kzMrS8VLygMQ/gfeuihmQgghA8C4+67704I/L/+9a++gh0loueIkEDAhAk6eun8HoIaD/gI0ZCgUHDgpIigIh3+R7iwBvuoUaN8Uxbuo5fKDAY2JVp99dXTsrZGPr1sQqTB54ibz71DPF9x7v17Fv+j9LAcMWv5s/kKgfRmlK/ppUu54EF4/PHHfVVDNmUJoc/mTGzDzDWwp46q2ZMu31eXN/KBQgY/nhXWSQj2XMvwAU6j//jHP3qyhg/Jtttu68oYGxPFUsVcT30RIu6em6o+RB7iXPVTph8j/jg3G3lW8TSbj0bvn1Gd1BtnsIhzvffr+o8TKALL3BWAj2PRN40Q4GFCEDMGjHD44he/6P8jGOptCIiLexAMjz32WDrppJMS+wQQ6J2z5C5CHQHDFr71PMjTuzaUBNJFQGGmHmI9TwQcyxWfcMIJfpAHZjSwyt/aa6/tygDj2QSEEUIQDhGq06v+HL9neSavmOYPOuighKkdPtV5qTWtEP6Y8c8999z0ne98x2+FBwoX5YRXjPfXGu/0yk8+iYtAflm8B0sOlgSsAwxlkA8Cy/2yURTPAAogFg9CsO/rWSPd6aXtNxfwT9ny2xfCLMtQxjrsi4m+m5aAFIBpeZT6P3p0mORZ5Q/TeyMCiBcdIcBBw7/NNts4EwQPggmB0Mpd0qKhIS2UFwQTeWFIAEGP4Lv44ovTGWec4fn66le/6pvS0BtGaUAIc2+WjV8tDwV5Y7vc//qv//KeOQKRfNcTIs+UgWEWdrQbPXp0zz4BsEAZamWAHYH8M0yDQIcrwzD8hlMjsxoIbF60yy67pGHDhvlQAfkm8NxFWfwL/REBESgkASkAhayW+jOFsKE3Tu9/iy228Aj66o3NKGYa7RBap512Wtp3333T0KFD3Rmv1YJnRvlC8HAgWCjTEOsJY8JGGfjLX/7iB/4G3/jGN9xUzTAByhChHYKIPGG1ILCVLJaTRpSviOeaa67xOmToA+GKwoUwziPAD0WM+id/4aTJ92z4w/a5hAMPPNAtA1hluIbANRzcpyACIlA8AvV1UYqXf+WoQoAeKLv7HXDAAe58V6/pn4Y6hD9CFeGP8OF7FIuiBPJD2RCKKABYBjBHI3QOPvhg//zNb34zXX755W49iDX4W5l/hD9j/4z7403fiNDjHuLBzwIFDsWL2RCvvfaax9fK/NcaN3nEMsDzgDUC3w0sQzgM/v73v09bbrll+tznPpfOPvtsn4WARSCUISkBtVLWdSLQPgKyALSPdctSonGNBpZd2PjciBBCAWCsly1q8QQP4RNxt6wADUZMGelph2UgdjU866yzEhYMBDLCiemFYc5uMKkZ3oY1AlaYw/HCr1f5wrqBsGT4Bmc78sx3DLcUmX21ZYA8o2wxSyG4o4hxDd9THgUREIFiEZACUKz6aCg3CG7mfLPJDIvO1Cv8uZ6eGp7+bN9Kry6Ef0MZyuEmyhCObKwpgEUEKwDKAEMCCCCuyTogoCNdhGC9gTwh/JmWh+I1xIY3+A7rRlGFf+8ykl8ULA5mCGCRwRly//33d98ArDNSAHpT0/8ikD8BDQHkXwdN5wBvbRQAPONpgGls6xEeKBD0No899ljPC722VgjLpgtaYwRYBBgiWHrppX2mQCuFD4oTiyAx6wLHy3rZR5EuuOCCdMcdd/iUx1ZaKyK9Vp0ZIoA9vX4cM1HEWsm/VeVQvCLQDQSkAHRALYcDGqvOEeppcLkWBQCv8+OPP957bygDnRBQBFpdFpQveuuM29cr7FCyUCBYwY/lmrFUIDzrUd6KWk88V6wpUGZFsqhslS8RyIqAFICsSOYUD8IbocHiOKyWR6hHgHA/jXQsMEPvX6F2AsGaBXII9Qi8uJZtgllvAf+B+K72HOhKERABEWiMgBSAxrgV5i4EOOZ/xu3xGqfnFUJpZplE2GA9YDnYSy65xMdrMT8r1EYglC/G7Vk4h1Are66FPVYKVj0kiL1j0B8REIE2EZAC0CbQrUoGIYLDHgu1xFBArWlFb5OlZseMGePrx8d3tcbRzdehAEyYMMG99lEAYFerAsC1cf8NN9zgq+rJ+tLNT1Pxy17rs138kiiHQSD3WQAhcOIcGdO5NgKMIRMwQeNNjhCp90V96aWXPA4UCOpBdeE4ZvoHzrBD+Ae7md5UuSAYsyHSnXfe6Q5zGjOvlV7f1wXTvn+t/9us46s/B83dwfOZVRmIJ47mcqW7g0BWdRPxNXIuhAWgCCAagVeEe6LXz3KthHpY0gPleiwABMzR9dzvN3XxH/gRGHqpVwEIbAh9Aoqc2AeV/M+dUBdZlYF44si/ZjojB1nVTbM0CqEA1NtjbbbQnXh/oyveMW0rLAD1zB7oRIb1likUAHbUC0Ws3jg07l8vsfZcrzbp45zF5ONMGv2mKCwLoQA0ClH3fdTjD2FUDxMeQjTRGHsuilZaTxnyvDaY470fLOvND1MICWJfLzldLwIi0CwBKQDNEizI/Y1olCF0Gu29FqTouWcjFIFGMhI+HI3UXyPp6R4REAERCAJSAIJEl54RXgMHDvTSNyPIuhSfFzsUqUYYsJCQggiIgAjkQUAKQB7UW5BmI+P3CC56/ywiRIjeaAuy15FRhuCPIZRGChm+G43UXyPp6R4REAERCAJSAIJESc9hOg5hVE8x4h72nSdEXPXE0c3XBj9WYqxnAaZq1rBnCWFmA8gC081Pk8ouAu0nIAWg/cwzTbFaCNUbcQh8lhDGk/2NN96QEKoDIjMoCC+++GLic/CsNQrqDvbbbbedx1Hv/bWmo+tEQAREoC8CUgD6olKi78L8PG7cOO+F1tOLRODQc0UI7brrrun+++9veDpbiZBlltUw2z/33HPOsZ6IYY/SMPfcc6etttrKp2JiCVAQAREQgXYRkALQLtItSicUgEcffbShVQARYjii7bjjjp5DBFJYFVqU5Y6JFnaLL7647+bHroMI9XrYxbXDhw93JvUobx0DUQURARHIjYAUgNzQZ5MwQmjhhRf21fxiH/kQLPWkMGLEiMTxwgsv+F7u9dzbrdfCfqGFFkpXXXVVevrpp+seAkDgYwX4xCc+kX7wgx+kW2+9VTsCduvDpHKLQA4EtBdADtCzTBIBgiPZZZddlp566qm02mqreS+01vFkrmMJYATZYYcdlkaOHJmGDRuWJk2a1OPY1ohCkWUZixxXmO3xA1h99dXrYk+5YMseDt/4xjfSkUcemd588023yDSjzBWZV9HzFs865/hc9DxPL3/VFqlmyxI8mo1nenntxu+LwLIQFoAigCjrA0gvdK655vLs0wttJERPdLPNNkunnXZauvnmm9O8887rgon4FfomwHOL8kS4++67XWDUa8ankWYYh90cr7/++vTggw96PNSp2PfNfXrfqh2ZlkyWPLKMa9pcdud/ReFZCAWg1t5qdz4qMy91rCd/4403ukm5XiFECjyQCJx99tknnXjiiemmm27yWQEoAlopcPp1wFK+WE/+/e9/98yiqPflDiWAIZhRo0alsWPHprvuuivNN998roRNP3X9IgIiUEYCRZF5hVAAyliBRcozQojFfBgGePnll11gNyKEosf55S9/2QUaswMYl2aO+qBBg9w3oCgPblH4MwSz1FJLpUsuuSQ99thjdTsCRjngSlxbbrlluvfee9PnP//5dMstt6QnnngizTPPPL5WgNgHLZ1FQASyICAFIAuKOceB4GYe/2233ebCg+zUqwBwDwKGuDg233zzdOGFF6YzzzzTpwmiCNAzZeU6lAHGrRuxNJBOJwU4BwcYEZoR1AwH4Etw3HHHpX/+859pp5128npliIF4Yc+sDdJsJp1OqgOVRQREoDECUgAa41a4u2JXOXqifG7UbB9CJRwD99prL1cErrjiCndUu+eee9wqQC+VHisCib0EUAhIM+4vHKAWZujtt99Oyy23XDrppJPShAkTfEnlRhQwsgg/2OMDsO222/pwzJgxY9J///d/+1oBKBnUAdMO2YUQ6wBKWbeyb2G1KmoR6HgCuc8C6HjCbSogfgDrrLNO+sMf/pD23nvvtN5667kgid5pvdngvlhjgDFuVqvDKvCd73zHBdDVV1/twwTR6yV+hiHmn39+F4AoIQgyrAkIw0YFYr35zuN6FCHKjfPkNddckz7zmc94eRtVhmBPnDBDyLNOADMzvvKVr7iFZ/To0Z5ONftYzRHrAPUG/7DmdDL7rOs73heU2vicdRrtio/nD8WQacKNPovtyqvSyYeAFIB8uLck1RDYxx9/vJuRmaKGIGn05Y/7iBchQi9/lVVW8WOXXXZJzz//fBpnKxA+9NBD6T//+Y8PETAMEYGeKePjOLPRmCKUiCsEU1zXCWf8JFZcccV0yCGHpI033tgXCKKswbDeMnIfRygC8FtmmWX8wDKArwf+AY8//rizxyJz7bXXTpPM0ksv7UND1BvKWChkoZRNc7H+cQJMwySgyHVSiLaB97jRZ7KTeKgsUwlIAeigJwGzMD1/vPi32WabpnuigSaEEY0HQoT/2TkQAcOx6aabpi9+8Ytp4sSJ6cknn3ThxJg1pmoE0+233x5ReY92iSWW8KED4sFyEUpBmXuqCFV6jXfeeWc6+eST009/+lPn1GyDG+wBCCfiQxlg7QeODTfc0OuZDYlgzxAEUwnvuOMOV8yYGRIhlIiw0lSzJ/8KKW2wwQbp8ssvdz+LMj+P1XWJErnYYov5VzxPCiIQBKQABIkOOPNys6HP0KFD0x577OE9claZQ2jT+GcRIh4axxBIpItCsOiii/pBOigg/I5AYoGil156yYUjCgFCstpSgImSe7FYYCUI83XZGmB6jyhgBx98cFp77bV9eeVQmLJg35cywHeYeRdYYAE/SGeLLbZw9q+99lqPQhbcH3jggWkUMnw4GD5guid5DfbdphDAked1pZVW8iOL+ipaHJSPciqIQBCQAhAkOuQcQpNZAd/61rfSOeec49p/lkpAoKoWSNUKAb+jKGB6prfPQdh+++29kWXo4Nlnn/UhBNYbQDjhZBiBni09Fu7HwY4eTBkEEjxQAlC68N7HCrLGGmtkqoAFo5mxRyEbPHiwH9zDhkM8A6+88oorBShkWAlYbwD2cCbgVMhQA9YMLATcUwb2nvkm/8A0lNomoyrc7dXPS+EypwzlRqAICoBU0oyrn4abRhxnMUzRv/vd79xJrRVKQHXWezcyfSkF+AUMGTLED+7deeed3aMdXwKUAhzb8HpnClwEpsUhkBhnp4EuckBZQfii9OAMiHBlhkAR2KNQVVtp8CUgX1honnnmGbcYsRrheeed14OYHjHWAYaXuDYUzJ4LOuxD72e4w4qn4ojANATyEr6kO2XllVeex87j7aWb3xqWKfY5r/xMA6UT/gEn5l1M7d/97nfTIYcc4s54rRZEtbAjbxw0tlgKqhtdBCi9aBzccC5kox18GggIohVWWMEFEUpOUQNlY1dF8r/mmmums88+2xUe2FeXNY/8B3vShn3w539+wxKALwGLGuFUeMEFF7ijIb+vtdZann8UsSIGmDO8dPTRR6cDDjigaywXraoLng0UP4YT8SXBKld0BbxVLDKOd4q1A/3MsvaqnZa2duJ1i99lYsbpzDS6WWZ6RWsucEFvvZHZrcH/tiUxgMbHghSADHnz8jI1jwV9GItnfBqP/DDpIozyCKQbB+mTnzDz8z2+APRU6fnTS8XBkGVyEfoslcuOhUOGDPGsF7VBYiydBhOBhCAl/5SJQHmLwp73LviTN6wEDB3Q88eXACsGwwc8N6wxwfANPgNch0JTpECeyB9TVnHmU2iOAM8o79ff//73NH78eB8eirajuZh1txGg8X3dntmjbDjuvcr/bQeTjWdY27OtBGshwAvMrn7rrruuL1Kz6667+vKymKg5eJkrilct0bXsGvIZvVESQRlAuND40KjT66cXgnf9DTfc4L4NzCxgZULGrLmmaIEyhT8A5nX8Av7xj384c/IL9yKwh1vw5zN5gntYKxD2O+ywgw8j4dPwy1/+0n0b8B1gjQLWHShKOci/QvYEVL/ZMy1KjFIAilITLcpHKAGYbxljZ0GZY445xr3yEUR4kBdFEQgEIZA4h0BCKCFwmGPPtrmsO7D//vu7Rztb8aIIcH2RAvnBXM4sB6wZn/rUp9LPfvYzN6kXTQmr5hb8+S6UAZ4VHBrJ/3333Zd+/vOfu3UDJUwbRlXT02cRKA8BKQDlqauGc0qDTm+Uhprpad/+9rddGLF5EN8XVRGIApN/jrAMkF/mvx911FGJFQmxcGARYOigaD1S8s1wAHlnCOb//u//fOvfU089tUcJQxlA0SliT4v8Y50hb1gFOK+22mrpf/7nf3wWwde+9jX3M+E3xuCLWIZ4jnQWARGYlkCuCoA12Kw+UqyBxGn5dMx/NOQ00gh8lgzGLM1UNZaXRYiyfgCCNYRREcf6egsjZhQwTn3WWWf5EAcmahzvcH4smiCCJ/PycQrEGvClL33J+TO+ypS8sAiQ76JZZOIlQBEghCKAMsnS05deeqnzZlgAJVNBBESgJgLvVWRgTRe34qJcFYBKgdz7zz7HuRXlVJxVBBD2mNPpkZ5//vnu5IUiQEMem9mgDCBwiyqQqnulrGzHFsaYo1lrAGsAgqhoSgA88bLHrI7VgqELfBuYCnnGGWekp59+2odkwiJDlRVRGahWBFDCdtxxR18694c//KFbA2Id/aLxr3oFpvuRPHfiMd0C64c8CBRG1uU6C2DxxRefzcyj37aGcVClFoo1iJvHo9GmNGnk8KpnfJrlfJl7f/rpp7uTHb8hhOhJY1KPneb4vlogIdDyDuSBPHHgZc+sAQQQ2xgz/76o0wUZFkB4sl4DFoBTTjnFLRkwxhqATwM7AsI+BC6/cRCKwp78MLyBEjZy5Eh32Dz22GO9Lsg3v7UrrzyzzAJACWx0FgC8gzn575SjkfeUekNZxUrFWhE8k7xnCs0TMLY+C8Da1z8+99xzWMFzaUyLsBBQaEOcc4HQfHWWNwbMuRwIS8bQcRT86le/6gXac8893QMck/Xyyy8/jcc9DX8IXi7meZ76TLefRaRLORBEP/nJT3wq29e//vW0/vrru+m9/bmaeYoIR9bwR9BjEWB45sc//rHfyFLKWAYws7PJEEv9ohhECPbUQ97sSR/2CM4vfOELrlQihJn5QJ4pZxkC5aA+qAcEfyhbZch7X3mM94JyMI0ThbPsZeqrnCX8LmTdFKuTkH+5FOOjFiWH5G1Hs8mmATEHUiFnAqEI4MiFjwCN9sUXX5zOPfdczxlzwZnLziwCpoYNGTLEFQZ6XREQSjQw0Utot2Ci0aYcCB2c08jLN77xDVcCXn311dwUlOAzvXMoAuSf2Rqc8We48sor/RZ6s7DfZJNNfHdFlDWsHNXsKWuw55wH+1BKmIfPSo6cUWCYCUGeihzIHwoM/jCf/vSn02abbeb5LnKeZ5Y3ngHK9PDDD6frrrvOfU/o0YdiMLP79XtrCVg9vGe9/1xfjFwVgAreXAG0torLFzvCCB8BGgkEDb1TGnbW62cRngiM+yKsEE6Y3lEK2H+ABqdaMIVSQAPbDsGE8KQMnLFksA4CvWr8HXDCK3LjByuEJXmkx29DZF4OFj5iOWcOwuabb+4bPg0fPtwVAhYcog5QfKrZB/OoA+JtZfmJmzQRMgzFYDpmIaEysI/nmmeHwLPCvgllDrwD9PrZOpp6USgWAauTKfbO5loxuSoA5og22RoLzQIo1nPpuYmGHJMoDTumdfwF8AlghUHm4TONMALKwKqrruq9DDzdF1poIRdg3INg4oiAQGqlUCK/xE+aLAnLKmZ//vOfXWHBvNtKIRhlbOYMewQReSVglWGHR9gjXNnul/3qWfKWMMSsMVhtbGltH0qIrYJRIBAA1UpBcOcMh6xZEF/kf/fdd/c1J6iDsigBwQNucC9zoCzV712Zy9KJebf6ed/e6e5VAGzMeYo1cpNpMBSKSyAadIQSwp+GJXr9CCW+p7fEcAGCJQICicVjUAwwBXMPTm9YCmhgI3B/1gKJPDIcQCPOhkisZU4emf2AEC1TgA8HDo2Ui/FcGOKzQd2gpGFyZ93+CChsDBngP4B/wVJLLeUbFGEtoM6w1BDgTtzEy5FFIB7yxcHsDKxHxx13nE+BjF0Hs0inlXEEl1am0eq4qQesAArFJGD1MxkZmGfuPuqW5ZAL8yqdYuZmWQByYN9MkjTsCFGOUAgQRgh6ehwId4QK5neWv8UUHAFLAb1VhBMKAs6FCLPopYZwzkIY0fihBLAzH6sfMo5O2gxxlDXAPhQCZhIQKOcQswIEe76jjIz7wj8CSgDDBnDAosAQD0pZsCdeBF8WQoP6oy4ZQmIIhmeAZ4W4SUNBBLqdgL3L7yED8+SQqwIwcuTIybZTmhSAPJ+ADNKuFkoIXHp5CAAEEgKec7WlgDX9OQh46eMxjtMVXuMMGRCyUgQQOMSF4PvNb37jwghrRJjXPbGS/0GgclBOhCyBcqP4MMUThYz6QCG76KKLehw7qRt8ObbccksfHkFBwDKQlSJAHngehphyctJJJ6VddtnFrRFYLBTKQyALZbw8pW1rTt9HBl5rm4XlFXJVAA455BC2BHYFACGi0DkEoj4RJgimUApQBJhWyJnAYjhsMENAGWBBoq233jotu+yy/l1WigCN2F577eXj5uFoRx4jn55YB/0JK0EoBZQfgYzQRyFAKWNmBH4EHFhhfvCDH7hCwFK/WAWyYE+6MKZO2dXxtNNOc0WvqOszVD8CZX82shLccEDB5Fx2JtX1m+fnSt18gAzMMx95DxDZ8zTl/cpDlSuIPCuh09OORoMzggnTNb1AzNQMHeAnwDg1C+IwfQ/TNEvM4ryHoKJX2ozZmJcNYcZMhcMOO8yXC8YXIPLVyfyjjMGeHjnWD7zc4YoyBnucNvGVwIHz4IMP9lUV+R3+WbDHF2O//fZz1DHkUGTuwa3IeZxZ3ihDVuXIKp6Z5blLfjecLu4Yw8tV7uWlAFQX+t2sNNUueXg6ppi8BAgXrAOYp7EKMEaPUDrwwAPTEDMd2xCR/47QaEYQBTTM3axohhCkR9zNAZ4oY7CnLhD++Gj8+te/dqUMJQylDPaVBqshXLzf3E/dfvazn/XdBMugBDRUWN0kAjUQqMi8d6surZaJVV+39mOeLWC/StG0EFBr67g0sSOQsAzQS2WcHlM0Zvvvfve7vk5+M0oALxzWB8bFDzroILcCxDBEaQC1MKMIaIZGUIywyMD/+9//vu8aec8997gloFElAPZYYLC67Lbbbq504ByoIAJdTuDtSvlDFrYdR54KgBfWGoepXkttL7oSLCoBBA3DAwhsFho68cQTfVncJ554wnujjVoCuI9e/6abbupFVy+07ycAiwz8mbvP7opYBlj3geGAZpQAUsPCQEDZ6HYLjIPQn24mELKvKxUAL7Q1KG4BMEUgFxNINz99RS87AnvixIk+Rs1Ws5iP2ca4UUsAPVEC0w8RaqyQxji3Qt8EcBLEb4K1BJhFQR006hMAe+qTmQb77rtveuCBB8S+b+z6tvMJuKwz2RcKQG4lztMC4K2xNQxuBmm0Z5EbOSXcFgIIDhzWcFS75ZZb0iGHHOJm6kZ6oyGEcHhj2uG4ceNcoLWlICVMBF701HHUZAEhti5my2IUsEbeVxQAhl3YV4JAvAoi0MUEwgegKy0AXu/WkLzVxQ+Ail4DgVACYjiAFe/4rpGAEEKAxTCA/ABmTBHODAmgADzyyCPpT3/6k/toNGK+D6WBWR4RGq3HuF9nESgjAZ57O7rXB8AWQPAW3BqFt9UIlPERbm+eeUawBOAYyJazTz75ZENj0iGEcAYk8L+evxnXJXyYKcA6DcwQuO2223z8HmWqnhCcGQagHou8Q2M95dK1IlAngWmGAEwW1nl7dpfnNgRg3t4xBBAWAPkAZFevHRkTAie8xxtdPSuEEEvgstgQgi2+60hoGRUKRrHK4Pnnn+9e/fVaAYiDOmQIhlUfceqUD0ZGFaRoykjALQAhC/MoQG4KQKyBbI3C1C3PUmrMppsHNaWZGwHGpJnHzxr3TFlDgESvvpZMIYS4niWHEULPP/+8vNFrAWfXsHrfKquskk444YT01FNP1c0+kqHOhgwZ4vUgBSCo6NxFBELWTaLMIQvzKH9uCkBVYV+nQbYjoFT9pI8iMC0BpgayoyC9UHqQIdCnvWrG//G8IXhQApjuVm9Pdsaxd+6vcBs4cKCv1fDoo496QfmunoAFAAfO8APgs4IIdBmBfpU2KPdNMYqgAPjWbNaQSwHosregkeLy4sQwAB7pjQaEfmw8JAWgdoos0kRgSiDKWL3sqD9e9fDBkAWgdva6smMIuKyz98AtAIMHD65Pi84QQ24KQBTaGgC3AFiZpABkWLGdHFVsg/vggw/6mHIjQoh75p9/fsdU7/2dzHZmZQsF4O6773Y/gEb1dvYGIDR6/8zyqd9FoKAEEPZuAQgFoHq79HbnOTf7WxTaTIKv0iuwAwXA4bQbgtIrF4HYpQ4zNJ8bWRMAoR9CiNLzDCrMnAAm/AUWWMB3cUQRY2dBvqtXkMf1lXd/5gnXcEXWdZh1fDUUIdNLgnEWkVLHWdZVFnkqcRyuAFj+Ywggt8YnNwuAFd4LbRaA1+zzByWuTGW9zQRojAivvPKKC59Gk4+ef5YNZaN5Kct9CIFBgwalZ5991qdlil1xa67sCkxxyTafM3tvPrAhNB8CaD62xmPIUwHwXFsP7jV7UKUANF6HXXtnmKPrBRANo4RXveSmWkqwuLBpU1hi6o9Fd4hAdxOoyLywAOQGI08FwC0ANrXoFSt9LImYGwgl3D0EQvCHJSEUgu4h0HxJYSZuzXNUDN1HoNL+vGtDaMg+QlcOAUwtekrvGJBXKlByAxGZ0bk8BBh/bjQg/FlHgCBBVjtF3lMsL/PNN5+P/9d+57RXBvPKez/tj/pPBDqXgMs4e+4nWhuUe8c3TwuAV7EtL/q+wXi5c+tbJcuaQIzdL7jggnVPQyMvCB0UAHYaJIQlwP/RnxkSgB1L+DKNb955521YeWL9BUIoAjNMVD+KQIcRQObZrpi+E26eRctTAXBNyGYDfGgwJlQgyAKQ59NQkrTZzIfAevLhhV5v1hH6L7zwgt8mBaB2eigA7MnAUsqxKyDf1RpQ3hD6rCRIaNSPo9b0dJ0IFIzAlMr7MsF2NsWbOWa/5ZLNPBUACuzpW4PwIlDskAKQy2NQrkRj9Tj2qSfU04vkWp41HNhQAFhWWApA7fUfuyeyM2MjyhfsEfqPPfaYJypHwtrZ68ryE6iScVN7H1MVgNwKlqsCMHLkyFAAXqBhqKchz42YEs6VAD1IPNAJLAlM4NmpJ3D9c889l/7zn//4NrdSAGqnF8Mv7KPQ6DvLCoLjx4/39Rv4rCAC3ULAZJxbAOzkCkDIwLzKn9tCQL0K/ALCn0OhMQIhBDudIb3/+++/P33zm99MSy+9tPfeo+y1kAs+9P5ZR2BZ2xEQk3azoVFh2Gy67bwf4T9hwoS07rrrppVXXtmTrpc9S/+yAdNNN93kChwKQNRJs2WJeOLcTHzEkUU8zeSh2XuzeibhEPVUdibNMs3g/lgFMCwAGUTZeBS5WgAi29awPFd5sAqRn8hXmc68oKyRHybaMuW9nrzGPgA777yzj0HX24MMgTVu3DhPNosGDQsC4+HVKwvWU6ayXEv5nnzyyfT5z3/e91HAfB88aylDsGYPBxYSwolQ1pdayDV2TfBu7G7d1SIC/akXU4SfJf5YEr9Fac002lwFru3p7l1+a0Serjys5EdmgJlW27QXwG7OOedMY8eO9d4xDWuMk097Zbn/o0wIjk033TTZ7BEvTD0CiBvoxbKErT17fn/sce//NPAHAYZgfOCBB5w/q+R1uhK27bbbNkDqo6Ea9nAgSPg3hLHmm+p9N2qOWBc2SgDZ1p/n3toh38nMnOBzlXe5KgAGwwtvDTsKQO5zIhut1Tzvo+f5+OOPpxEjRqTRo0envfbaK91xxx2+VjuKQHjM55nHLNJGyUG4Mnb/4x//ODEFEGeyeho54kABII5LL700Lb/88k2tZoc5+8UXX0xLLbWUm7R/8pOfpDvvvNOVMPKKUtYJAW7M+2cDoN///vdplVVWcW71sIcD7N9666105ZVXer01q3x1AttWloF6UygkgXfMctn4VqYZFqkQCoA9qDgBvlZvg5Ihh9JGFcw4b7LJJumEE05w4YaXNooA3tYhjOLashWWhowNaG699db085//PG299dbee0Sg1BOiQcSHgHHoZk3Q8KT3z5x2nOIOO+ywNGbMmLTffvu5InDffff5LAOuKTN7Zkrcfvvtabvttktf+MIX6kHec22l1+PK6nnnnZdWX331ppSvnoj1QQRKRIB2wI5XbQbNS5Vs56ql1deCtgj0Zz7zmbcMyrgiAGlREVseLcLt7bffTgMGDEg77rhjOuecc9Ill1ySGCunV4owYvx84MCB3hNreYYySiCE/2233ebC57vf/a5bNRoxH6MwYDWgB0potgcaCgWWAOIi/uHDh6c//vGP6frrr3dHxbvuusuHBrDEoIgxjFEWZYDykWeGNxZeeOH0pz/9yRWxei0vsI4yU48EeAQ//0J/RKDzCbiwt3bi8XvuueetIhQ3bwUAIP1ZEMEaiMcrjUSuGlERKqXRPCCAcIqjgcZku9NOO6VTTz01XXPNNemAAw5wQYQZlzFwer+MVUfD3GiarbyPvGHqR2h86UtfSkcccUSaf/756zb9k0eEDYIa578//OEPadVVV3UOWeSfuGHPGfZwZUjmd7/7nfec7fl2IYoixpABPWqsAtxT5ABrFBimW6LQLLfccl6+evMNFxQfVhA888wz00ILLeRDAUUuu/ImAlkTsPYMOUc78YTF7bKvcs46qZrjy70FGllZC8B6dOMqwmjqXq81F0EXVhOAIQ00HtoII3r8xjgdeeSRrgAcddRRrhwwPIApnJ5Y+ApU+FdHl8tn8kG+sViE2Z+xZ/OYbUgAVRcCPwkCQhrBlGUg3xyhCMB2nXXWSQcffLCbvk8//fS04YYbukUGh02UtVDE6hWqWea7d1z4LqBAYvY361waNWpUWmmllRpmH5xRPokLnwktANSbuv7vdAK8B5X2YTxltXY5d/lblHUAEFqPAciO/kBSaI5ACCOEDFzpgTFOzbHnnnt6z+6KK65IKAQRGJdFMDKUQAPdiJk94qr3TH7podMzxkKBsCDQY0QIIUxRaBoRlFF+nP9+/etfe082NgKqN5+1Xk8+STfyzHoDHJ/85Cd9OAZBePLJJ7ufBnEiYFEGGEoI9tzfrgD7mGIZ7H/zm9+k/fff35WBKEe9+aEMMURCXRJsB9B6o9H1ItAJBHwNAGuLHylKYXJXAGw6lvf4DcpDNPwmCGYxOLR80gIyeEpCEQhhxP+LLLJIYirXFlts4UMDWAMuu+yyRA81AuZeeoEoATTYnOOIa5o5R74QlAge8jfOzPOxKM+hhx6a9thjDxeMpItQbET4V+fxggsuSI8++mhac8013XGv+rdWfY48R4+XMXX8BLAE4CxoY4Huk8CwRAR6yLHREeyrFYKslALyxYHCh4BmaOLhhx/2LDBcxFz/9dZbz69pVPgTGfklHSwvf/nLX9Laa6+dJk2aFEXVWQS6hQAybRZry6bY+/YQhQ7ZlyeA3BUAK7x3c6yRoPVhi7CBeQLp5LRpiAkIFBpmGv4VVljBD3qmTK9DIF111VV+oBhEYDwYxYHxa4Q3cWBdCKUgBFOc4z6uJXAmfSwR9Oa5D0HALAU+E/BZ2G233Xz8HAWE60NwRjx+YR1/iJv0GH9HsK2xxhptE/7V2Yz8h0WGsrGjHsdWW22VvvOd76R7773X/TXw2WDsPQImeZQC2HMfccRB+YJ5nOO+SDPYU9+wIGABYSZEKFzDhg1LBx10UNp8883dP4J1/kkD/qTZSAj2WF5+9KMfpSWXXFJj/42A1D0dQ8DexdftvQgLQPtMfNMhWAQFwLNmTlkTzPT4hMEZag2ZLADTqbAsvkYgcIA5BCwNPrvrcey6664uHFj1jTUGbr755vTII4/4+O300uf+GLdHyBAvPUeGE5j7HelU349AIK1tttnGl5dlcx96yIQQPuSz0RAC6KWXXko//OEPPX/kKc8Q7MkDTKgDBHMMEWy//fbp5ZdfTk888YTvmHfLLbckFs654YYbvA76yjv3w54ZILAnTqxpWA9gPz2TO9P6sAJhjcApEuc8Atyi198o/ygX8TDMxLBCKF+NxtlX2fWdCJSEAHsAEB6ztVom4hhchFAEBQBh359tgU0AjDVAQ+3/ydaANNbtKALVEuXBeHtuabBprPkfIYLnNwdrC3zuc5/zsWmWcGUteNbQp1fHevoI14kTJ3qvml4lPUrOmPURSJw5EFAIGHr2WB2wKCy++OJuVeB3AnkIRYF8RN78xzr/EBfWBsbUf/vb36arr77aTf9sJNRMvHVmY4aXRxmj3JwR5lhaOBDMu+yyiwvz4A1feu4csEdZwJICc8rGZ+ovlLGoB3hTn6zhTz0wrQ/rQ/VshFBI6PE32uunwJSDshHHKaeckvAlwBmSWQBFYT/DitGPIpA9AWYA4N821oQ/Jk/kW+4O70VQANLIkSP7Mx5iDcY91njsRQ9Eof0EotGvFkg02AhSzM9YByJwDb106oqD/+l1InA5I4Q4YoyZeIifuCId4uLeEDxcw9FsIC8IUuL+85//7ApA0QVQlL03e8qBkI6hmmDTewgAhrCntw9fLDIc1EHEDXvii0BaMArFL66L3xs5EyfxkA4+F1/5yld83B/Fhe8V2kdAvNvHupaUqA97P+7l2pB5tdzXymsKoQCY8PexEGs07kF4GKSPWqlWll5xT5cAD2s0ICEouJjPBIQMvyNUCHxmrBpP9uoQ11efETiESCPO1fc1+hmBRp44H3vssekHP/iBDy9gpQjFI/LSaBrV92UZV8RbzYP4qw+uid+DPd/BHiWtOkTeqs/VyhbXEldwqb63kc+kQ3wIfxahwp9j6NChbpmI3yIvjcTf7nvKlNe+2JD/3mXgf+qo3hDxxLne+3W9OwDynvr0ppB5eXMphAJgELzLbw/XXXaEI6D8AGp4OuKFjHMNtzR0STQacY5IIl3O8Tl+i3Pve7ISOBF/nBH69HjpBbNqXbXwJw/Ty1/cX+85ypx1vH3lg/z35lidLmXvK/S+p694+rqv3u9C8SJ+lvpl6ibTSrFKYK3g++r81ht/LddnEX/EEeda0i3qNdVlqP7cSH6p32bjaCTdDrnHZZnxe83avvDu7fuFbXOBCzXObkuOPmeA7qs0WlO7mm0GUtbkooHlJc3rRSUPfR2tZkp5Q/jT0//FL37xMeHfijxUnlPvQUceWpFOLXH2xT3yV8v9zVwT7LEusBcFwh+HP6x5fNeufDRThk68t5p79edOLGvBy4QDIO/BvTbL6sUi5bUoCgDC3s3+1pDeWnlYC6EhFamyZpQXelmM+WJ+hV83aOwhdDGF0/NnZcMvf/nL6Ve/+pU7naEMVJ6lGaFr+DfShzeCjjxg2eCIfDUccUlu5BmDL+zZpvm///u/09e+9jUf88cpMXr+JSlOR2eTZ1IhNwL4t/Gu3FrJAZb3QlRIURSANHLkSB+Ysgb1pgqkwuQtt8emhoTpYS1rK8wxVe+vf/2rL+ZCw0ujjFCigQ6B1CmNQJSHl4py4mBG2TE5X3zxxe7tz0yFVgp/qgYBiM/DQw89lE488USfu8+0x1BIqpWBTmEf5eYMe54/Nldih8b/+7//63H466TyUlYFEWiCQH/eB3tf/kMcJuuaiCrbW4viA5DMKeJDimaN9hiD9bZ9ZG4YWlL9Hit2U7cEhBCChvne++67rxf761//uq/0x7K/LCCDJz6Bh5Dro+fWagHpiWb4J4RKWDkQtjfddJPvUY/TWcxSYCpcO8pGflC2WLUPfwMC5m8WVVprrbVcMWMqZASuhT2B/LUjj5F2s2fKygF7BD9lYXGlk046yf0tWNMBs7+m+jVLWvd3GAFkGJ3ZN61jcCNlC1nH57xDYRSAAGGLnoxjPQBrKDewBkcKQICZwRlMCBOEDg5wxx13nB/cwi56LPvL/G/m4DM/nAacgDDi3iIrBOSPA8HDQWC+O6sUnnbaaT7PnB43Zef7YOEXtukPvWCEH2nbehZ+kPSnP/3pxMI+KGJM42Np5WDPtXDnIBRRISCPHCiYMCbwfDHUgqPf4Ycf7t+xvG+sQ1AkpYa8E/6/vbONsas47/i+Qb1+t+u1MRDYgpI6cmI7pdmGgMCAQaDSiqqlUNE2H9IoovnQquqbnJRAVdEP9EOlkqhqoqqNVeHgEhANpk6QMQZsEF7bGBu7rkPsgBH2OrZrg72Yfen/Nz5zmb2+u1wvd/eec+9/pHPPy505Z+Z35szzzDNvHxWnmM7g2T+BgJnULCMw/r9d39B2tf+/VbO71uhGeVIA+FqJz4BgPad9j2oZlI5uChCEalys+TKrGxPAvPvuu0FAMhkLDkUA8xNzvDMpDLU2rANjCSXCfVQBip9auLTQQejw3Cj0GTp44MCBsDTw6tWrwxhznongp6c5aa+XI56wZo+iFRc0evzxx0vxvPrqq1uuv/76MM3xZZddFqwDvKOUPemPSllkHvcTnTaejWPPM+Ef2VPbZyIiZvN78sknw/BK/KL0oPzQBIObrLiGh1X4ic+P8Y9e4vV4Xr4vz3fl/zfCOe8Txz4ej5UumKR+Y/4YK4z/q0hgGI7Kg8/y7/LlyztkARio6LMOF/OkAJD8UAoJ2I9VsPyFzj0fwHlmCj5UamlsZLxFixYFZQABumnTppZ169aV7sg47WuuuSa0mS9cuLAFwZQqBHiMhWO6jzdIC9b0OP6f7tMCJD0mHPHERYHDMX4Q7Ah92thZPe/hhx/mr1AbjdaOegr+EJnkhzjDOU56wwp/jM8njUypvHlzaAIMIbAMMP9+T09PmBGxu7s7KA5RIcAT94usomIQH5fyTo/j/+k+3oNr6THh4pYVUqVg5B+EPlNAP//88y0oXRzjGNvPfVB68uRi2lBKyDvxvJo44pe8T4fORnFp+nmfKHJwid/bWOkkLP4IR96LFqCxwvi/cwggzzrgp7LtGf6V8D+raZ/jtT4X8ta+TnyGJZRmaJrZPQJ3Mefa8hbP+rytj/FUCnoEbJwhDnN5LNDjbVmMB3MuQmnu3LlhulgUAz5+wo5WCFBYsPGMtNDhvlxL9+Gk7AehyUeCGZn1B+jAt2vXLj6Wlscee6zkm7UCaMKgvwNhiuJgQGGKcEchoBDer5UPSUd0N910UxCsrBR40UUXBf5YaPAfw0a/6T7lnR7jpxr2CEsEA4LvzTffLK1DsH79+qAsMuUwDosReYK447f8WcFTnX9IL+khnuTb83GkB85Mr4ziw3eSxzSeT5qiX74t3h/fDscxX8T/x9rjnwW74Ho+4ca6ZxP9FyzYKjv3a42Txb29vXzwQcblhUEeBSvVwSHVnv5dme8PtWEuyZulIi/vb9zxoLBLFQJqc9RSU8FKgcFaABSm3d3dwZrAPPLUlDBzszH7HBv3wqWFRCxA2SPsUDoQ8nTeo2bBsxAwCHsEIsKf2mbqsGDwHMJERSH9v4jHMIIXCgEsYcE6C9GUHtN04403BusAlhmaFpi7H4WApgOY8H5YPClaDSqx514I7cie98A5BTrrCGjujVDAHzx4MPTmj89mH5eEJn6xJpj+n8djGKCgRMWl2jgSDkWINRjgG/NuteHz7I+00TkTxRolvtq04Q//fP9p3spzWnMWN5qzO8TuX1XZ+rLiRiEZOrvnJZ65UwCWZ20kKvB+Rx/kGikA7gcwCbkFhYAtCiWwoxQgmBAYo7mlS5eGQhNBFoUa90DAILDZU7BS+CDkqV2N5lAuKIARcoRF6BD2bBYYLVTxr1O4wo6NtHOOoEaIUXCP5qJSgDJAQc0Ge3il7BH+vEcUvNEcygQKBqMWCB+VhCKyjzxHS+tY10lvEdM8Vpr4j7wFl/E4vmG7cRFg/H+bvsvfVuf2H2iEUDuL3o3rThMUaHw5YoIik92WOA2rnXGOan279TEu4FxbHuOaRbnxdhQWbFExiMKFcwoENmpa1MwR7uwrFZz4Jyw94BEyKAqcR4FHGO7D/Thmq7aG0njUP0xR5M4eVgh29ihEsELAI6RREBDwldjH9wd7rDSw5z6RP5zL2Ve6z4ex8pEJmECVBILM0jf7tpTqxdu3b0eTD7KtyvCT4i2vQjWYStQM8G8qkL6kzc0Ak5IdqntIrElEJSE9L79DFObs02P8xfPyMD4fnUDKOvLHd7yehkz5Rv7xWtyn/n1sAiZQMwLB/C8F/l/27t37Vd01d+Z/Unq2+3XN0lybGzGZCk61ldXZHYFnlxMCUZhQW4w10lgrpWaablxni6Z8wsTwOUlOoaIR2Z0P+5R/DF+oRDuyJlA8AkFmydr2aJ6jnksFQO0ktPszLO1Z7faqdoOlIlzjup0JmIAJmIAJ5JQAk//gds2fP/+5LI65lF95rll37Nu374Ourq4FqrVcp21QWy4VlpxmQkfLBEzABExgkglI8A/K9N+m9v9/0tC/DcvVsV0doHOpAORZoAZg6hW9SoK/XxtDAelYYWcCJmACJmACeSQgURVk1XvqdPsfRFDzmeRS+BO3vCsAbZp+dK+Uqae00dEpV0MoAGhnAiZgAiZgAhDIav+MnnpSc///VJewslsBAM44XBiloFm5vkNYdXzKs8IyjuQ5iAmYgAmYQKMQkIwKzerqwB5kVt7TlddhgOdw05DAF9Wb+Ysyr2AFyHPfhXPi7gsmYAImYAINT2BQFgA1/bc/p5n/liu1yNdcN1vnvkZNBwqyjTSqb9EMIAWAUzsTMAETMAETyA0BZBMyShbrsGqZhrPnXr7mPoLqQBHa/TUa4FFpVzsFONdtKrnJjY6ICZiACZjAZBFg2t92yahtEvw/4KFxOPtkRWA8z8m9AqBEDWMFkCIwoEkVHsqsADYDjOdtO4wJmIAJmEDNCaj2P5zV/h+6//77h5j3Xw/JvZwqSh+A0JYCVI0K2Kq+AEvEm56VRVBgap7ZfEMTMAETMIHcEAht/6qg9mra31/NYpX79n/iWRQBOozwZyUlta88aCtAbjK+I2ICJmACTU1AldHWrPb/ICCKUvsnrkWxABBXXNCqtAzqs5pvfrnAe0TAWS7+NQETMAETmHwCsfb/jGr/N+vxhaj5R0xFsQCMiK+sAN/MrADEP/ftLDHy3puACZiACTQMAdVBh9uRRZr1774sVYWSqUUbT4+wbz98+PB+LbLwS4K/LLMCFAp6w2R/J8QETMAEmpfAoMb8t6nt/7uvv/76t4UBeVqo2WqLKDhDjb+zs3OlNK+jAs48AbmdalFxszMBEzABE2gsAsicDsmgvtmzZ38jS1rhrNFFVACGGBa4bdu2t9UUcJ80MNhbAchyoHcmYAImYAITSyDY/iV7NEHd37z88suHkEl6YuHkUNE6Aca3WupooQ6BG9Qh8Hr9MaCXEmYNjJ68NwETMAETMIFaEtBkPwPaOiT8n9mzZ0/hOv6lLIpoASD+oS8AB9OmTbtXZhgvFwwMOxMwARMwgYkkQOW/QwrAKXX8+1r2oKJWpAszD0ClFzqI2WXr1q271RTwDXXEwE+hOmBUSpSvmYAJmIAJ5JbAILJmypQpK1mqvqim/0i3sJpLloAY/2E1BTytGQJv1XKMA/rPTQHxDXtvAiZgAiZQCwIDsjZj+n9Kpv/bdcNSU3Qtbl6PexS1CSCyoikgKAFTp079sjoE9um8kJ0xYoK8NwETMAETyB2B2Ov/0IwZM/4oi12sgOYustVGqGjzAFRKV1gs6KWXXvq/iy++eO/g4ODd2qK/wr+gmBDvTcAETMAE6kKAdv9Wmf5bZfr/ve3bt2/F9L9///6SoKlLrGrw0EYSkGEShsWLF/9df3//19UcEHpq1oCRbwRT6NgAAA45SURBVGECJmACJtCkBCT8B2T271Bfs7/VhD/fFAaszDQ1F941kgJAWmgSaFm0aNHTZ86cuVWWACsBhc+iToAJmIAJ1I3AB2r3v0DCP7b7E5GSrKlbrGr04KL3AUgxIPxDeubMmXOPzDVv0GFD1wpvpkkT6WMTMAETMIGJJ5CN979AsuQn8+bN+4PsiciYUNGc+BhM/BMaSQGAVpglcPPmzUfVUeMOvbhTukbTQOFmaCIxdiZgAiZgAnUhMMR4f7l3Z86ceccLL7xwrOhD/ipRbDQFoGXDhg0DvKje3t7XNDLgLrXdtOhFkk4rAZVygK+ZgAmYgAmkBBD+LPLDKn93b9myZScyBdmSemqE40YYBXDOe1DvzGAJ0BzNezQy4LA8/DojA2TSwW8j9Xs4J+2+YAImYAImMG4Ckv3DrWrzp8f/vTt37nykUYU/hBpdGMaRAQ+8//7792nNgEEpAVgDGj3d4879DmgCJmACTUoA4T8kq3G7FID71eP/AXEIMqRReTSkBaDsZbX29fU9u3DhwgV6uT2yBEQloMybT03ABEzABJqVgOTDIMP9ZPb/toT/X4oDFcWG6fBX6b02gwJAjX9YSsBTCxYsuELHn8uGB3LdzgRMwARMoMkJSPiHsf5SAL4n4f+VDIcVgAbIF3F44PCRI0eekBLwab3sJawZkDUHNEASnQQTMAETMIHxEEiE/+rdu3f/fnaPUHEcz/2KFKYZLAC8j1QJ+E81B3xW1z5jS0CRsqrjagImYAK1JRCFv9r8H5Pwvyu7O8K/KUaNNYsCwHstKQFqDnhUSkCwBGRKAKYeNjsTMAETMIHGJyDZX2rz/77M/r+bJblphD/pbSYFgPSmSgCWgCuVCegTMKTmACsBELIzARMwgcYmgPCntz8d/lbt2rXrniy5TSX8SXOzKQCkOVUCHpcSMF/Xfk1KAPME8J8tAVCyMwETMIHGI8AkPy0y+TPU759V849L+zad8OfVNqMCQLpTJWDtJZdcgkZ4g5QADAGsHUBmsDMBEzABE2gcAmGGPwl+JvphZb8/z5LWlMKftDerAkDaY22/9fDhw89pxsBDEv63Swlo054pH60EQMnOBEzABIpPgIodtf6Wzs7Or2mGv4d0jrW3aYU/r9Tm7g8zweCSJUtu7e/vX6MZA6fLIvCB+FwAJDsTMAETMIFiElBZPsDKsHKnJfzv2rFjx38pJVR+6elPRbBpnWu5ZzPAIPM9K2P8tzLIF6Ql/qS9vf0CMo5yRlNnkKb9MpxwEzCBohNQET48gOSnTNcKsV9A+FPWK2FYBJq+bLcCkGXxuIrgq6++uqurq+vzWgjiKXqJKgPhoynGhGYovDMBEzCBohMInf2ynv7r5s6d27N169Ydjbywz3hemJsAyqilGWTx4sUPnDlz5j5t+GLmwKgQlIXyqQmYgAmYQL0JqIxm+Xcst9T6Wc7379Xev5J4pWV7veOZl+dbAaj8JkodQ5YuXXr76dOnv6t+AQvUQRAlgLYjc6vMzVdNwARMoF4EMPkPqvm2QzX/I1OnTv3K9u3bn8giUyrT6xW5PD7XTQCV3wom/1Y0RjUJ/HDWrFnL1CTwQ2mUWABaMw2zckhfNQETMAETmFQClMmUzZTR6se1bs6cOZ/LhH+ssLkZt8IbaeZhgBVwjLy0f//+IZSATZs2ndBCQo9ceumlx2UBuE4Z7ReyxYQIYGvASGw+MwETMIHJIkBbf6j1S/ifUUXtrzWz3x8fPHjwBGW3ynA6+9mNQsDCaxQwZZexlNAbcLinp+dTJ0+e/NbAwMAK+gagebpZoIyWT03ABExggglkZS/m/hZtGyX87922bdvreixyjc21/o94B7YAfASg7O8wFACN8sUXX+yTNWCVZg98W4L/Km2zmEFQ/phG0E0q1fG0LxMwARMYL4FBCf9Wje5rVye/Y9r+SrP63fvOO+/0ZbX+UFkb782bKZwtAOf/tkvWgGuvvXbO8ePHvy5LwJ+ok2CHFAEWFSLzWbE6f64OYQImYAJjEcDcP6xOfu0S/szn/72ZM2eu3Lx588EsEOWuTf5jESz7z4KqDEgVpyVrwMaNG09pGuEfdXd3P6F8+QnNNvXL6hvQpmOsAfizRaAKoPZiAiZgAmMQQPAPqXxlKt82bRvVw/9LmtTnH996662TSa3fJv8xIFb6yxaASlSqv8ZIgXYmESLIsmXL7tBUwitlCfi8+gi02CJQPUj7NAETMIEyApj6WxD8tPOr4v+ahP+DEvyrM39UYKloWfCXgav21ApAtaTG9hdr+iEjau6A31KzwJ9KCbguUwTIpFgFyLBmPjZL/2sCJtC8BCTzhylHWyX42zLBv0v7f1i0aNGqNWvWYOJvvfPOO9uy4+YlVYOUWxjVAGK8hTJle5opWVxIfQP+TErAzbIGtKAMyDFqAIUhKg0xuPcmYAIm0KwEgplfiWfqfmr7HLykDn4P6/jR3t5eFmdrKS9jmxVWrdJtBaBWJJP7ZJkULTb0F5BF4AYJ/6/KKvAb0m6nogior4CtAgkzH5qACTQdAWr71OhZgp3l+hD876u2v1am/u9oSN/TkQjt/GpqxW8oU+N17z8eASsAH4/fmKHLFYGrrrrqSikB90gBuFvbp7EKsGUmL0YQuIlgTKL+0wRMoOAEYk2/XeVdKzX9bNsnBeD7Gsu/asuWLf8T02jBH0lMzN4KwMRwHXHXTBHgWhiiQqbW8MEbpAzcLQXgNlkDFibKQLQM0ETA+/E7gpydCZhAEQlQnlHTxyLaIZmPaZ+OfQj+Q9r/WLX9R2bPnr1eNfz+LIFtKjNb0+bUIia8CHG2cJnct9Qm4d8WRw3w6BUrVszSxEIoA78pJWCFlIFP6GMJ/QV0jJeoEPCuolLAdTsTMAETyBuBVOCHvk6ZsI9C/w0pAD/Stae1RO9GlYXHYwKy2j6FXij44nXvJ46AFYCJYzvWnWMvVvwEqwAHt9xyy7RDhw71SBG4WU0E10sR+KyUgBkoBNFCIG9BIcC/tOlUIfC7BIqdCZjAZBCgHMKpeAq1e45DE2YU+NT2ddyvbafa9ddL8K/VwmovJzV9wsTaPkI/3pPrdpNAwEJjEiB/xCMqKgOEUZ8BmgZ6pAygFHxRysAybbNRCLAOxC27P8MMaV/TTl/eyFEGfs8ZJO9MwASqJpAKZAQ952yUJwj7UKtH4LPhZNZ/T8e7tO/Vnl78L7zyyis/1V/pvdpl4m+Rid9CP1Cr348FQ/3YV3pyUAb6+vpa02aC6FEmsnnHjh37lUwR+IyUgiX6Jq/U+fSz36ZsZ1IMOI77LGwwq0kv0F/DvPOoJPB3eR4oP89u4Z0JmEADEEgFMckJ5xQMHCdlRDDf44H6BFsq6LkuIX9K19/Q9ppq+Du13zF9+vStWi/lbf5PXWbe5xkW+imYOh+7sK/zCxjj8eHdSFNuG00hoHOhlr38xVOnTn1S3++ntH1S1gL6EFyebfOkJHTqGaX3rOsl5YBjtjIXCgJdKxUI/C9/pXtk/kec6+OP54SLx5nX0m606yUPPjABExhRW66IQ99j+Yc74lyfYzjPvlu+u3Qr3ZPPNt1iTT560Hm//v+5tgMS+D/T+c/03z4d/6+E/p7u7u6+UTrrtUvoU5GJAn9E/OL9va8vARfI9eV/vk/nfdGRMH5YfFwVnfxM0SREc6UcXC4l4HIVBAvlcb4sA1067mKvc47na7tQxx3as1W8X/n19Jzj9JwblJ+Pdq3iw3zRBJqYAAK53JVf4zy9lh4Ttvw83i8Lx4xkTEh2RtsRbX0675NwD8fa9+n7PYiwVw/9A2q7P6IFd+ihX7lwOFsmtXV1dQ1nZn0eN5pf/rPLCYFzc1pOIuZoVEUgvj/WJAiNcJnGPapikNy19bbbbrtQSsKUEydOzJXlYIYUhZkqDGbKzzQdz2Gv81mE0fk8HberYODeF0qBmKsCAkHP+XSdEzY8V9fop9AZzwmP0zXuhUXChQNA7ExgJAG+Z2rcpZ7x/K3vholyTsfrnMud1F8nda1N3x7m+WM6f59z/T+kGjpCnbAntHtX/x/Xf+/J7wnCqvZ+Qh3yfq59/9q1a1EEqvkmwygm7qtyBv+xnKkmLMHsckYgCpCcRcvR+ZgE0vdKv4JWmhG4Z/LhTthHq86LF8yfP/9sr6AkIVIiOlQwtR89ejS56kMTMAEIaFhcy+nTp4c6OzvDtLcpFa06OhSnw02v1/CY8iFUJE6ePNl6xRVXDKk2z+2jkOd4wsoMbm43+QRSQTH5T/cT60kgffelY5QFIhUVBgoDzlX4pAUBl8rPXThAxc4EJodA6ZvNHjdC4ZYSHs5nzJgRvkvM8/jLhHr8VuOev9Jjzu2agEB5JmqCJDuJE0TAeWmCwPq2JlCBgAV2BSi+ZAImYAImYAImYAImYAImYAImYAImYAImYAImYAImYAImYAImYAImYAImYAImYAImYAImYAImYAImYAImYAImYAImYAImYAImYAImYAImYAImYAImYAImYAImYAImYAImYAImYAImYAImYAImYAImYAImYAImYAImYAImYAImYAImYAImYAImYAImYAImYAImYAImYAImYAImYAImYAImYAImYAImYAImYAImYAImYAImYAImYAImYAImYAImYAImYAImYAImYAImYAImYAImYAImYAImYAImYAImYAImYAImYAImYAImYAImYAImYAImYAImYAImYAImYAImYAImYAImYAImYAImYAImYAImYAImYAImYAImYAImYAImYAImYAImYAImYAImYAImYAImYAImYAImYAImYAImYAImYAImYAImYAImYAImYAImYAImYAImYAImYAImUGcC/w/mO/3vdJ6RLQAAAABJRU5ErkJggg==;" vertex="1" parent="1">
          <mxGeometry x="678" y="616.85" width="25" height="25" as="geometry" />
        </mxCell>
        <mxCell id="H2W__GnyZfSHAvYUxblv-4" value="" style="rounded=0;whiteSpace=wrap;html=1;strokeWidth=2;fillColor=default;fillOpacity=0;strokeColor=#000000;" vertex="1" parent="1">
          <mxGeometry x="820" y="221.05" width="120" height="94" as="geometry" />
        </mxCell>
        <mxCell id="H2W__GnyZfSHAvYUxblv-5" value="" style="rounded=1;whiteSpace=wrap;html=1;strokeWidth=2;dashed=1;fillColor=#000000;fillOpacity=2;strokeColor=#000000;" vertex="1" parent="1">
          <mxGeometry x="518.32" y="646" width="421.68" height="60" as="geometry" />
        </mxCell>
        <mxCell id="H2W__GnyZfSHAvYUxblv-6" value="&lt;p style=&quot;line-height: 130%;&quot;&gt;&lt;font style=&quot;font-size: 9px;&quot;&gt;Power unit&lt;/font&gt;&lt;/p&gt;" style="rounded=1;whiteSpace=wrap;html=1;strokeWidth=1;dashed=1;fillColor=default;fillOpacity=0;strokeColor=#009900;align=center;" vertex="1" parent="1">
          <mxGeometry x="830" y="290" width="60" height="18.5" as="geometry" />
        </mxCell>
        <mxCell id="H2W__GnyZfSHAvYUxblv-7" value="" style="endArrow=classic;html=1;rounded=0;strokeWidth=2;entryX=0.731;entryY=0.002;entryDx=0;entryDy=0;exitX=0.002;exitY=0.274;exitDx=0;exitDy=0;exitPerimeter=0;entryPerimeter=0;" edge="1" parent="1" source="4hzZpZeHnHlpzF2ELLDW-2" target="Rx2p6Ad4WCmZezqTzOOQ-16">
          <mxGeometry width="50" height="50" relative="1" as="geometry">
            <mxPoint x="378" y="210" as="sourcePoint" />
            <mxPoint x="357.51" y="261" as="targetPoint" />
            <Array as="points">
              <mxPoint x="360" y="240" />
            </Array>
          </mxGeometry>
        </mxCell>
        <mxCell id="H2W__GnyZfSHAvYUxblv-8" value="" style="rounded=1;whiteSpace=wrap;html=1;strokeWidth=2;dashed=1;fillColor=#FF0000;fillOpacity=3;strokeColor=#B20000;fontColor=#ffffff;" vertex="1" parent="1">
          <mxGeometry x="130" y="319.75" width="310" height="210.25" as="geometry" />
        </mxCell>
        <mxCell id="H2W__GnyZfSHAvYUxblv-9" value="&lt;font color=&quot;#ff0000&quot;&gt;Actuator Control&amp;nbsp;&lt;/font&gt;" style="text;html=1;align=center;verticalAlign=middle;whiteSpace=wrap;rounded=0;" vertex="1" parent="1">
          <mxGeometry x="143.00000000000006" y="506" width="100" height="20" as="geometry" />
        </mxCell>
        <mxCell id="H2W__GnyZfSHAvYUxblv-10" value="&lt;p style=&quot;line-height: 130%;&quot;&gt;&lt;font size=&quot;1&quot;&gt;Motion control&lt;/font&gt;&lt;/p&gt;" style="rounded=1;whiteSpace=wrap;html=1;strokeWidth=1;dashed=1;fillColor=default;fillOpacity=0;strokeColor=#FF0000;align=center;" vertex="1" parent="1">
          <mxGeometry x="830" y="230" width="80" height="23.5" as="geometry" />
        </mxCell>
        <mxCell id="H2W__GnyZfSHAvYUxblv-11" value="&lt;font style=&quot;font-size: 9px;&quot;&gt;Raw Data&lt;/font&gt;" style="text;html=1;align=center;verticalAlign=middle;whiteSpace=wrap;rounded=0;" vertex="1" parent="1">
          <mxGeometry x="558" y="422.82" width="50" height="14.5" as="geometry" />
        </mxCell>
        <mxCell id="H2W__GnyZfSHAvYUxblv-12" value="&lt;font style=&quot;font-size: 9px;&quot;&gt;Raw Data&lt;/font&gt;" style="text;html=1;align=center;verticalAlign=middle;whiteSpace=wrap;rounded=0;" vertex="1" parent="1">
          <mxGeometry x="558" y="485.6" width="50" height="14.5" as="geometry" />
        </mxCell>
        <mxCell id="H2W__GnyZfSHAvYUxblv-13" value="&lt;font style=&quot;font-size: 9px;&quot;&gt;Motor 1 Phase&lt;/font&gt;" style="text;html=1;align=center;verticalAlign=middle;whiteSpace=wrap;rounded=0;" vertex="1" parent="1">
          <mxGeometry x="170" y="428.01" width="70" height="14.5" as="geometry" />
        </mxCell>
        <mxCell id="H2W__GnyZfSHAvYUxblv-14" value="&lt;font style=&quot;font-size: 9px;&quot;&gt;Motor 0 Phase&lt;/font&gt;" style="text;html=1;align=center;verticalAlign=middle;whiteSpace=wrap;rounded=0;" vertex="1" parent="1">
          <mxGeometry x="168" y="330" width="70" height="14.5" as="geometry" />
        </mxCell>
        <mxCell id="H2W__GnyZfSHAvYUxblv-15" value="&lt;font style=&quot;font-size: 7px;&quot;&gt;Encoder Channels&amp;nbsp;&lt;/font&gt;" style="text;html=1;align=center;verticalAlign=middle;whiteSpace=wrap;rounded=0;" vertex="1" parent="1">
          <mxGeometry x="370" y="463.08000000000004" width="70" height="12.85" as="geometry" />
        </mxCell>
        <mxCell id="H2W__GnyZfSHAvYUxblv-19" value="&lt;font style=&quot;font-size: 13px;&quot;&gt;Monitor &lt;br&gt;SSH Terminal&lt;/font&gt;" style="rounded=1;whiteSpace=wrap;html=1;strokeWidth=2;" vertex="1" parent="1">
          <mxGeometry x="810" y="656" width="90" height="40" as="geometry" />
        </mxCell>
      </root>
    </mxGraphModel>
  </diagram>
</mxfile>
